<svg width="394" height="82" viewBox="0 0 394 82" fill="none" xmlns="http://www.w3.org/2000/svg">
<path d="M2.64453 18.9922C2.37891 19.1172 2.14453 19.2031 1.94141 19.25C1.75391 19.2969 1.51953 19.3203 1.23828 19.3203C1.03516 19.3203 0.863281 19.2969 0.722656 19.25C0.597656 19.1875 0.535156 19 0.535156 18.6875C0.535156 18.5625 0.621094 18.4531 0.792969 18.3594C0.964844 18.25 1.16016 18.1563 1.37891 18.0781C1.59766 17.9844 1.80078 17.9141 1.98828 17.8672C2.17578 17.8203 2.29297 17.7891 2.33984 17.7734V14.1641C2.07422 14.1484 1.83984 14.1094 1.63672 14.0469C1.44922 14.0156 1.27734 13.9609 1.12109 13.8828C0.964844 13.8047 0.878906 13.7109 0.863281 13.6016C0.832031 13.5234 0.808594 13.4453 0.792969 13.3672C0.792969 13.2891 0.785156 13.2109 0.769531 13.1328C0.753906 13.0391 0.746094 12.9375 0.746094 12.8281H2.29297C2.30859 12.7031 2.32422 12.5703 2.33984 12.4297C2.35547 12.1797 2.35547 11.9609 2.33984 11.7734C2.33984 11.7422 2.31641 11.6328 2.26953 11.4453C2.23828 11.2578 2.20703 11.0703 2.17578 10.8828C2.14453 10.6797 2.11328 10.4922 2.08203 10.3203C2.05078 10.1328 2.03516 10.0234 2.03516 9.99219V9.64063C2.03516 9.48438 2.06641 9.34376 2.12891 9.21876C2.19141 9.09376 2.31641 9.03126 2.50391 9.03126C2.67578 9.03126 2.82422 9.10938 2.94922 9.26563C3.07422 9.42188 3.17578 9.61719 3.25391 9.85157C3.33203 10.0859 3.38672 10.3438 3.41797 10.625C3.44922 10.9063 3.47266 11.1719 3.48828 11.4219C3.51953 11.6563 3.53516 11.8672 3.53516 12.0547C3.53516 12.2422 3.54297 12.3438 3.55859 12.3594C3.63672 12.4063 3.76953 12.4219 3.95703 12.4063C4.14453 12.3906 4.33203 12.3594 4.51953 12.3125C4.72266 12.25 4.90234 12.1719 5.05859 12.0781C5.21484 11.9844 5.30859 11.8828 5.33984 11.7734V7.88282C5.33984 7.83594 5.37891 7.77344 5.45703 7.69532C5.53516 7.61719 5.59766 7.57813 5.64453 7.57813C5.69141 7.57813 5.79297 7.61719 5.94922 7.69532C6.12109 7.77344 6.22266 7.83594 6.25391 7.88282C6.26953 8.10157 6.29297 8.34376 6.32422 8.60938C6.35547 8.87501 6.39453 9.14844 6.44141 9.42969C6.48828 9.71094 6.54297 9.99219 6.60547 10.2734C6.68359 10.5547 6.76172 10.8125 6.83984 11.0469H8.66797C8.66797 11.2344 8.57422 11.3828 8.38672 11.4922C8.19922 11.6016 7.98828 11.6953 7.75391 11.7734C7.51953 11.8359 7.30859 11.9141 7.12109 12.0078C6.93359 12.0859 6.83984 12.2031 6.83984 12.3594V15.0078C7.15234 15.0078 7.44141 14.9531 7.70703 14.8438C7.98828 14.7188 8.26172 14.5859 8.52734 14.4453C8.79297 14.2891 9.05859 14.1484 9.32422 14.0234C9.60547 13.8984 9.90234 13.8359 10.2148 13.8359C10.2148 14.1016 10.1367 14.3203 9.98047 14.4922C9.82422 14.6641 9.63672 14.8125 9.41797 14.9375C9.19922 15.0469 8.94922 15.1641 8.66797 15.2891C8.40234 15.3984 8.16016 15.5234 7.94141 15.6641C7.72266 15.7891 7.53516 15.9531 7.37891 16.1563C7.22266 16.3594 7.14453 16.6172 7.14453 16.9297C7.14453 17.4141 7.16016 17.8438 7.19141 18.2188C7.22266 18.5938 7.30078 19.0391 7.42578 19.5547L6.65234 20.375L5.92578 17.1875C5.92578 17.1875 5.91797 17.1797 5.90234 17.1641C5.88672 17.1641 5.87109 17.1641 5.85547 17.1641C5.83984 17.1484 5.82422 17.1406 5.80859 17.1406C5.38672 17.1406 5.01172 17.25 4.68359 17.4688C4.35547 17.6719 4.08984 17.9375 3.88672 18.2656C3.69922 18.5938 3.59766 18.9609 3.58203 19.3672C3.56641 19.7578 3.65234 20.125 3.83984 20.4688L3.55859 20.7969C3.41797 20.7188 3.29297 20.5859 3.18359 20.3984C3.07422 20.2109 2.98047 20.0078 2.90234 19.7891C2.80859 19.5391 2.72266 19.2734 2.64453 18.9922ZM3.60547 13.6719C3.52734 13.9063 3.48828 14.1719 3.48828 14.4688C3.48828 14.75 3.50391 15.0469 3.53516 15.3594C3.58203 15.6563 3.62891 15.9688 3.67578 16.2969C3.73828 16.6094 3.79297 16.9063 3.83984 17.1875L5.64453 15.9688V12.875C5.14453 12.875 4.69141 12.9453 4.28516 13.0859C3.89453 13.2266 3.66797 13.4219 3.60547 13.6719Z" fill="#FFFFF0"/>
<path d="M18.6417 8.072V9.77601H18.1617C17.6657 9.88801 17.1297 10.136 16.5537 10.52C15.9777 10.888 15.4337 11.376 14.9217 11.984C14.4097 12.576 13.9857 13.272 13.6497 14.072C13.3297 14.872 13.1697 15.752 13.1697 16.712C13.1697 17.864 13.3377 18.784 13.6737 19.472C14.0257 20.144 14.4577 20.624 14.9697 20.912C15.4817 21.2 15.9937 21.344 16.5057 21.344C16.9057 21.344 17.2417 21.304 17.5137 21.224C17.7857 21.144 18.0977 21 18.4497 20.792L19.2897 22.256C18.8737 22.576 18.4177 22.8 17.9217 22.928C17.4257 23.056 16.9217 23.12 16.4097 23.12C15.4017 23.12 14.5137 22.856 13.7457 22.328C12.9777 21.8 12.3697 21.064 11.9217 20.12C11.4897 19.16 11.2737 18.04 11.2737 16.76C11.2737 15.528 11.4657 14.432 11.8497 13.472C12.2497 12.496 12.7617 11.648 13.3857 10.928C14.0257 10.208 14.7137 9.616 15.4497 9.15201C16.1857 8.672 16.8977 8.312 17.5857 8.072H18.6417Z" fill="#FFFFF0"/>
<path d="M32.2425 8.072V9.77601H22.5225V10.496L22.4265 12.008C22.4585 12.216 22.4825 12.504 22.4985 12.872C22.5145 13.24 22.5225 13.592 22.5225 13.928V18.08C22.5225 18.784 22.5625 19.28 22.6425 19.568C22.7225 19.856 22.8185 20.064 22.9305 20.192C23.2185 20.528 23.6585 20.696 24.2505 20.696C24.8905 20.696 25.4825 20.544 26.0265 20.24C26.5705 19.936 27.0585 19.56 27.4905 19.112C27.9385 18.632 28.2825 18.128 28.5225 17.6C28.7785 17.056 28.9065 16.488 28.9065 15.896C28.9065 15.368 28.7545 15.024 28.4505 14.864C28.1625 14.704 27.7545 14.624 27.2265 14.624H27.1065C26.3705 14.624 25.7785 14.568 25.3305 14.456C24.8825 14.328 24.4505 14.16 24.0345 13.952C23.6665 13.744 23.3225 13.504 23.0025 13.232C22.6985 12.944 22.4505 12.624 22.2585 12.272L22.4985 10.184C22.8345 10.76 23.1865 11.248 23.5545 11.648C23.9225 12.032 24.3785 12.328 24.9225 12.536C25.4825 12.744 26.1945 12.848 27.0585 12.848H27.4425C28.0505 12.848 28.5145 12.888 28.8345 12.968C29.1705 13.048 29.4665 13.168 29.7225 13.328C30.0905 13.552 30.3625 13.864 30.5385 14.264C30.7145 14.648 30.8025 15.112 30.8025 15.656C30.8025 16.632 30.5705 17.568 30.1065 18.464C29.6425 19.36 29.0585 20.112 28.3545 20.72C27.7465 21.248 27.0985 21.664 26.4105 21.968C25.7225 22.272 24.9545 22.424 24.1065 22.424C23.5145 22.424 23.0105 22.336 22.5945 22.16C22.1785 21.984 21.8345 21.76 21.5625 21.488C21.3065 21.184 21.0905 20.816 20.9145 20.384C20.7545 19.952 20.6745 19.296 20.6745 18.416V9.77601H18.1545V8.072H32.2425Z" fill="#FFFFF0"/>
<path d="M40.5557 8.072V9.77601H40.0757C39.5797 9.88801 39.0437 10.136 38.4677 10.52C37.8917 10.888 37.3477 11.376 36.8357 11.984C36.3237 12.576 35.8997 13.272 35.5637 14.072C35.2437 14.872 35.0837 15.752 35.0837 16.712C35.0837 17.864 35.2517 18.784 35.5877 19.472C35.9397 20.144 36.3717 20.624 36.8837 20.912C37.3957 21.2 37.9077 21.344 38.4197 21.344C38.8197 21.344 39.1557 21.304 39.4277 21.224C39.6997 21.144 40.0117 21 40.3637 20.792L41.2037 22.256C40.7877 22.576 40.3317 22.8 39.8357 22.928C39.3397 23.056 38.8437 23.12 38.3477 23.12C37.3397 23.12 36.4437 22.856 35.6597 22.328C34.8917 21.8 34.2837 21.064 33.8357 20.12C33.4037 19.16 33.1877 18.04 33.1877 16.76C33.1877 15.448 33.4357 14.264 33.9317 13.208C34.4277 12.136 35.0917 11.232 35.9237 10.496C36.7717 9.76 37.7077 9.22401 38.7317 8.88801L37.1957 9.68001C36.9077 9.71201 36.5957 9.736 36.2597 9.752C35.9237 9.76801 35.5477 9.77601 35.1317 9.77601H31.7717V8.072H40.5557Z" fill="#FFFFF0"/>
<path d="M55.0446 8.072V9.77601H52.5246V23H50.6766V17.168L51.0606 18.512C50.5326 17.776 49.9566 17.112 49.3326 16.52C48.7086 15.928 48.0686 15.456 47.4126 15.104C46.7566 14.752 46.1166 14.576 45.4926 14.576C44.9006 14.576 44.3966 14.736 43.9806 15.056C43.5806 15.36 43.3806 15.816 43.3806 16.424C43.3806 16.904 43.5486 17.32 43.8846 17.672C44.2206 18.008 44.7406 18.312 45.4446 18.584L44.5326 20.288C43.5566 19.888 42.7886 19.352 42.2286 18.68C41.6846 17.992 41.4126 17.216 41.4126 16.352C41.4126 15.568 41.5966 14.92 41.9646 14.408C42.3486 13.88 42.8286 13.488 43.4046 13.232C43.9966 12.976 44.5966 12.848 45.2046 12.848C46.0366 12.848 46.7966 12.992 47.4846 13.28C48.1726 13.568 48.8126 13.96 49.4046 14.456C50.0126 14.952 50.5886 15.528 51.1326 16.184L50.7966 16.28C50.7486 15.912 50.7166 15.552 50.7006 15.2C50.6846 14.832 50.6766 14.464 50.6766 14.096V9.77601H40.0686V8.072H55.0446Z" fill="#FFFFF0"/>
<path d="M60.601 11C61.865 11 62.881 11.216 63.649 11.648C64.433 12.064 65.009 12.6 65.377 13.256C65.745 13.896 65.929 14.544 65.929 15.2C65.929 16.512 65.465 17.552 64.537 18.32C63.625 19.088 62.265 19.52 60.457 19.616L60.697 19.352C61.417 19.56 62.177 19.856 62.977 20.24C63.777 20.624 64.585 21.072 65.401 21.584C66.217 22.08 67.001 22.632 67.753 23.24L66.649 24.512C65.657 23.776 64.745 23.144 63.913 22.616C63.097 22.072 62.289 21.6 61.489 21.2C60.689 20.8 59.841 20.448 58.945 20.144C58.049 19.84 57.033 19.56 55.897 19.304L56.257 17.648C56.817 17.808 57.353 17.928 57.865 18.008C58.393 18.072 59.025 18.104 59.761 18.104C60.897 18.104 61.769 17.968 62.377 17.696C63.001 17.424 63.433 17.072 63.673 16.64C63.913 16.208 64.033 15.768 64.033 15.32C64.033 14.472 63.721 13.824 63.097 13.376C62.473 12.912 61.681 12.68 60.721 12.68C60.145 12.68 59.681 12.736 59.329 12.848C58.977 12.96 58.721 13.128 58.561 13.352C58.417 13.56 58.345 13.816 58.345 14.12C58.345 14.248 58.361 14.384 58.393 14.528C58.425 14.656 58.457 14.776 58.489 14.888L56.737 15.248C56.657 15.008 56.593 14.76 56.545 14.504C56.497 14.232 56.473 13.992 56.473 13.784C56.473 13.192 56.649 12.688 57.001 12.272C57.353 11.856 57.833 11.544 58.441 11.336C59.065 11.112 59.785 11 60.601 11ZM58.993 11.84C58.913 11.328 58.673 10.88 58.273 10.496C57.873 10.096 57.297 9.816 56.545 9.656L57.121 8.57601L58.225 8.864C59.121 9.216 59.769 9.616 60.169 10.064C60.585 10.512 60.825 11.08 60.889 11.768L58.993 11.84ZM67.753 8.072V9.77601H54.553V8.072H67.753Z" fill="#FFFFF0"/>
<path d="M82.0635 8.072V9.77601H79.5435V23H77.6955C77.1995 22.04 76.5275 21.16 75.6795 20.36C74.8475 19.544 73.8875 18.856 72.7995 18.296C71.7275 17.736 70.5755 17.36 69.3435 17.168L68.4075 14.864C69.9435 13.936 71.5275 13.096 73.1595 12.344C74.8075 11.592 76.5035 10.952 78.2475 10.424L77.6955 11.432V9.77601H67.2795V8.072H82.0635ZM77.6955 11.648L78.1995 12.296C77.3835 12.536 76.5355 12.84 75.6555 13.208C74.7755 13.56 73.9035 13.952 73.0395 14.384C72.1755 14.8 71.3595 15.24 70.5915 15.704C71.2475 15.848 71.9355 16.072 72.6555 16.376C73.3755 16.68 74.0795 17.048 74.7675 17.48C75.4715 17.912 76.1035 18.416 76.6635 18.992C77.2395 19.552 77.6955 20.184 78.0315 20.888L77.8395 20.936C77.7755 20.52 77.7355 20.104 77.7195 19.688C77.7035 19.272 77.6955 18.856 77.6955 18.44V11.648ZM79.3275 20C78.7995 19.008 78.1195 18.12 77.2875 17.336C76.4715 16.536 75.5275 15.88 74.4555 15.368C73.3995 14.84 72.2315 14.48 70.9515 14.288L72.1755 13.256C73.0715 13.432 73.9515 13.696 74.8155 14.048C75.6795 14.384 76.4875 14.848 77.2395 15.44C78.0075 16.016 78.6795 16.76 79.2555 17.672L79.3275 20Z" fill="#FFFFF0"/>
<path d="M82.1211 22.0859C82.1211 22.0547 82.293 21.9844 82.6367 21.875C82.9961 21.75 83.4727 21.6094 84.0664 21.4531C84.6758 21.2813 85.3867 21.0938 86.1992 20.8906C87.0117 20.6719 87.8945 20.4531 88.8477 20.2344C89.8164 20 90.8164 19.7656 91.8477 19.5313C92.8945 19.2813 93.9492 19.0391 95.0117 18.8047C95.0273 18.7891 95.0742 18.7813 95.1523 18.7813H95.3398C95.6055 18.7813 95.7695 18.8594 95.832 19.0156C95.9102 19.1563 95.9492 19.3438 95.9492 19.5781C95.9492 19.7656 95.8867 19.9219 95.7617 20.0469C95.6367 20.1563 95.4023 20.2656 95.0586 20.375C94.7305 20.4844 94.2695 20.6016 93.6758 20.7266C93.0977 20.8359 92.3398 20.9922 91.4023 21.1953C90.4648 21.3828 89.332 21.625 88.0039 21.9219C86.6914 22.2031 85.1367 22.5625 83.3398 23H83.1758C83.082 23 82.9648 22.9844 82.8242 22.9531C82.6992 22.9063 82.5742 22.8438 82.4492 22.7656C82.3398 22.6719 82.2461 22.5703 82.168 22.4609C82.1055 22.3359 82.0898 22.2109 82.1211 22.0859Z" fill="#FFFFF0"/>
<path d="M111.056 8.072V9.77601H108.536V23H106.688C106.208 22.04 105.544 21.16 104.696 20.36C103.864 19.544 102.904 18.856 101.816 18.296C100.728 17.736 99.5677 17.36 98.3357 17.168L97.3997 14.864C98.9357 13.936 100.52 13.096 102.152 12.344C103.8 11.592 105.496 10.952 107.24 10.424L106.688 11.432V9.77601H96.2717V8.072H111.056ZM106.688 11.624L107.192 12.296C105.976 12.696 104.696 13.192 103.352 13.784C102.008 14.36 100.768 15 99.6317 15.704C100.496 15.896 101.416 16.224 102.392 16.688C103.368 17.152 104.272 17.736 105.104 18.44C105.936 19.144 106.576 19.96 107.024 20.888H106.808C106.776 20.52 106.744 20.152 106.712 19.784C106.696 19.416 106.688 18.976 106.688 18.464V11.624Z" fill="#FFFFF0"/>
<path d="M120.577 21.8C119.265 21.8 118.041 21.48 116.905 20.84C115.769 20.184 114.745 19.128 113.833 17.672C112.937 16.216 112.161 14.264 111.505 11.816L113.329 11.336C113.889 13.32 114.497 14.952 115.153 16.232C115.825 17.512 116.593 18.456 117.457 19.064C118.337 19.672 119.361 19.976 120.529 19.976C121.281 19.976 121.913 19.888 122.425 19.712C122.937 19.52 123.345 19.256 123.649 18.92C123.969 18.584 124.201 18.2 124.345 17.768C124.489 17.32 124.561 16.84 124.561 16.328C124.561 15.656 124.433 15.048 124.177 14.504C123.921 13.944 123.561 13.504 123.097 13.184C122.633 12.864 122.089 12.704 121.465 12.704C120.825 12.704 120.361 12.84 120.073 13.112C119.801 13.384 119.665 13.744 119.665 14.192C119.665 14.352 119.681 14.52 119.713 14.696C119.745 14.872 119.801 15.072 119.881 15.296L118.033 15.656C117.937 15.352 117.857 15.056 117.793 14.768C117.745 14.48 117.721 14.184 117.721 13.88C117.721 13.256 117.873 12.736 118.177 12.32C118.497 11.888 118.929 11.56 119.473 11.336C120.033 11.112 120.665 11 121.369 11C122.361 11 123.233 11.232 123.985 11.696C124.737 12.144 125.329 12.776 125.761 13.592C126.193 14.408 126.409 15.352 126.409 16.424C126.409 17.432 126.193 18.344 125.761 19.16C125.345 19.96 124.705 20.6 123.841 21.08C122.977 21.56 121.889 21.8 120.577 21.8ZM128.017 8.072V9.77601H110.569V8.072H128.017Z" fill="#FFFFF0"/>
<path d="M142.321 8.072V9.77601H139.801V23H137.953C137.457 22.04 136.785 21.16 135.937 20.36C135.105 19.544 134.145 18.856 133.057 18.296C131.985 17.736 130.833 17.36 129.601 17.168L128.665 14.864C130.201 13.936 131.785 13.096 133.417 12.344C135.065 11.592 136.761 10.952 138.505 10.424L137.953 11.432V9.77601H127.537V8.072H142.321ZM137.953 11.648L138.457 12.296C137.641 12.536 136.793 12.84 135.913 13.208C135.033 13.56 134.161 13.952 133.297 14.384C132.433 14.8 131.617 15.24 130.849 15.704C131.505 15.848 132.193 16.072 132.913 16.376C133.633 16.68 134.337 17.048 135.025 17.48C135.729 17.912 136.361 18.416 136.921 18.992C137.497 19.552 137.953 20.184 138.289 20.888L138.097 20.936C138.033 20.52 137.993 20.104 137.977 19.688C137.961 19.272 137.953 18.856 137.953 18.44V11.648ZM139.585 20C139.057 19.008 138.377 18.12 137.545 17.336C136.729 16.536 135.785 15.88 134.713 15.368C133.657 14.84 132.489 14.48 131.209 14.288L132.433 13.256C133.329 13.432 134.209 13.696 135.073 14.048C135.937 14.384 136.745 14.848 137.497 15.44C138.265 16.016 138.937 16.76 139.513 17.672L139.585 20Z" fill="#FFFFF0"/>
<path d="M148.698 8.072V9.77601H146.178V23H144.33V11.744C144.138 11.2 143.85 10.736 143.466 10.352C143.098 9.96801 142.618 9.77601 142.026 9.77601H141.834V8.072H142.194C142.578 8.072 142.978 8.2 143.394 8.45601C143.81 8.696 144.146 9.07201 144.402 9.58401C144.386 9.50401 144.37 9.32001 144.354 9.03201C144.338 8.74401 144.33 8.49601 144.33 8.288V6.488H145.626L146.154 8.072H148.698Z" fill="#FFFFF0"/>
<path d="M148.754 22.0859C148.754 22.0547 148.926 21.9844 149.27 21.875C149.629 21.75 150.105 21.6094 150.699 21.4531C151.309 21.2813 152.02 21.0938 152.832 20.8906C153.645 20.6719 154.527 20.4531 155.48 20.2344C156.449 20 157.449 19.7656 158.48 19.5313C159.527 19.2813 160.582 19.0391 161.645 18.8047C161.66 18.7891 161.707 18.7813 161.785 18.7813H161.973C162.238 18.7813 162.402 18.8594 162.465 19.0156C162.543 19.1563 162.582 19.3438 162.582 19.5781C162.582 19.7656 162.52 19.9219 162.395 20.0469C162.27 20.1563 162.035 20.2656 161.691 20.375C161.363 20.4844 160.902 20.6016 160.309 20.7266C159.73 20.8359 158.973 20.9922 158.035 21.1953C157.098 21.3828 155.965 21.625 154.637 21.9219C153.324 22.2031 151.77 22.5625 149.973 23H149.809C149.715 23 149.598 22.9844 149.457 22.9531C149.332 22.9063 149.207 22.8438 149.082 22.7656C148.973 22.6719 148.879 22.5703 148.801 22.4609C148.738 22.3359 148.723 22.2109 148.754 22.0859Z" fill="#FFFFF0"/>
<path d="M169.937 8.528V8.19201C169.937 7.52001 169.793 7.024 169.505 6.70401C169.217 6.384 168.721 6.224 168.017 6.224H167.537C166.497 6.224 165.689 6.152 165.113 6.00801C164.553 5.86401 164.073 5.64001 163.673 5.336C163.241 5.016 162.921 4.608 162.713 4.112C162.489 3.6 162.377 3.024 162.377 2.38401C162.377 2.176 162.393 1.976 162.425 1.784C162.441 1.576 162.465 1.35201 162.497 1.112L164.273 1.232C164.241 1.408 164.217 1.56801 164.201 1.71201C164.185 1.84 164.177 1.984 164.177 2.14401C164.177 2.496 164.209 2.808 164.273 3.08C164.353 3.35201 164.473 3.576 164.633 3.752C164.857 4.00801 165.177 4.20001 165.593 4.328C166.009 4.44001 166.617 4.49601 167.417 4.49601H167.513C168.361 4.49601 169.033 4.56001 169.529 4.68801C170.025 4.816 170.449 5.048 170.801 5.384C171.073 5.64 171.281 5.992 171.425 6.44C171.569 6.872 171.649 7.416 171.665 8.072L169.937 8.528ZM171.689 8.072V9.77601H171.209C170.713 9.88801 170.177 10.136 169.601 10.52C169.025 10.888 168.481 11.376 167.969 11.984C167.457 12.576 167.033 13.272 166.697 14.072C166.377 14.872 166.217 15.752 166.217 16.712C166.217 17.864 166.385 18.784 166.721 19.472C167.073 20.144 167.505 20.624 168.017 20.912C168.529 21.2 169.041 21.344 169.553 21.344C169.953 21.344 170.289 21.304 170.561 21.224C170.833 21.144 171.145 21 171.497 20.792L172.337 22.256C171.921 22.576 171.465 22.8 170.969 22.928C170.473 23.056 169.969 23.12 169.457 23.12C168.449 23.12 167.561 22.856 166.793 22.328C166.025 21.8 165.417 21.064 164.969 20.12C164.537 19.16 164.321 18.04 164.321 16.76C164.321 15.528 164.513 14.432 164.897 13.472C165.297 12.496 165.809 11.648 166.433 10.928C167.073 10.208 167.761 9.616 168.497 9.15201C169.233 8.672 169.945 8.312 170.633 8.072H171.689Z" fill="#FFFFF0"/>
<path d="M189.225 8.072V9.77601H186.705V23H184.857V14.96L185.001 15.584C184.649 15.072 184.273 14.664 183.873 14.36C183.489 14.056 183.065 13.904 182.601 13.904C182.361 13.904 182.113 13.952 181.857 14.048C181.617 14.128 181.409 14.288 181.233 14.528C181.073 14.768 180.993 15.136 180.993 15.632C180.993 15.808 180.993 15.968 180.993 16.112C181.009 16.24 181.025 16.368 181.041 16.496L179.481 16.616C179.417 15.96 179.241 15.408 178.953 14.96C178.665 14.496 178.313 14.144 177.897 13.904C177.481 13.664 177.033 13.544 176.553 13.544C176.121 13.544 175.753 13.632 175.449 13.808C175.145 13.968 174.913 14.192 174.753 14.48C174.593 14.752 174.513 15.064 174.513 15.416C174.513 16.056 174.745 16.6 175.209 17.048C175.689 17.496 176.361 17.872 177.225 18.176L176.577 19.952C175.809 19.712 175.121 19.384 174.513 18.968C173.905 18.552 173.425 18.04 173.073 17.432C172.721 16.824 172.545 16.12 172.545 15.32C172.545 14.6 172.721 13.984 173.073 13.472C173.425 12.944 173.897 12.536 174.489 12.248C175.081 11.96 175.729 11.816 176.433 11.816C177.281 11.816 178.009 11.976 178.617 12.296C179.225 12.6 179.785 13.096 180.297 13.784L179.937 13.808C180.097 13.28 180.401 12.88 180.849 12.608C181.313 12.32 181.793 12.176 182.289 12.176C182.865 12.176 183.361 12.288 183.777 12.512C184.193 12.736 184.649 13.056 185.145 13.472L184.929 13.832C184.913 13.496 184.897 13.16 184.881 12.824C184.865 12.488 184.857 12.144 184.857 11.792V9.77601H171.201V8.072H189.225Z" fill="#FFFFF0"/>
<path d="M189.301 22.0859C189.301 22.0547 189.473 21.9844 189.816 21.875C190.176 21.75 190.652 21.6094 191.246 21.4531C191.855 21.2813 192.566 21.0938 193.379 20.8906C194.191 20.6719 195.074 20.4531 196.027 20.2344C196.996 20 197.996 19.7656 199.027 19.5313C200.074 19.2813 201.129 19.0391 202.191 18.8047C202.207 18.7891 202.254 18.7813 202.332 18.7813H202.52C202.785 18.7813 202.949 18.8594 203.012 19.0156C203.09 19.1563 203.129 19.3438 203.129 19.5781C203.129 19.7656 203.066 19.9219 202.941 20.0469C202.816 20.1563 202.582 20.2656 202.238 20.375C201.91 20.4844 201.449 20.6016 200.855 20.7266C200.277 20.8359 199.52 20.9922 198.582 21.1953C197.645 21.3828 196.512 21.625 195.184 21.9219C193.871 22.2031 192.316 22.5625 190.52 23H190.355C190.262 23 190.145 22.9844 190.004 22.9531C189.879 22.9063 189.754 22.8438 189.629 22.7656C189.52 22.6719 189.426 22.5703 189.348 22.4609C189.285 22.3359 189.27 22.2109 189.301 22.0859Z" fill="#FFFFF0"/>
<path d="M221.115 8.072V9.77601H218.595V23H216.747V13.496L217.275 15.032C216.619 14.072 216.019 13.256 215.475 12.584C214.931 11.896 214.411 11.336 213.915 10.904C213.435 10.472 212.947 10.16 212.451 9.968C211.955 9.76 211.419 9.656 210.843 9.656C210.203 9.656 209.619 9.776 209.091 10.016C208.579 10.256 208.107 10.576 207.675 10.976C207.243 11.376 206.843 11.808 206.475 12.272L206.283 12.32C206.539 12.16 206.787 12.04 207.027 11.96C207.283 11.88 207.563 11.84 207.867 11.84C208.795 11.84 209.475 12.096 209.907 12.608C210.339 13.104 210.555 13.72 210.555 14.456C210.555 14.632 210.547 14.8 210.531 14.96C210.515 15.12 210.491 15.24 210.459 15.32L210.051 15.176C210.243 14.968 210.427 14.768 210.603 14.576C210.779 14.384 210.963 14.192 211.155 14C211.363 13.808 211.571 13.608 211.779 13.4L214.755 10.616L215.931 11.888L209.115 18.32L207.699 17L209.667 15.128L208.803 16.16L208.083 16.712C208.323 16.44 208.523 16.152 208.683 15.848C208.859 15.528 208.947 15.168 208.947 14.768C208.947 14.368 208.827 14.048 208.587 13.808C208.347 13.568 207.995 13.448 207.531 13.448C207.275 13.448 207.027 13.48 206.787 13.544C206.547 13.608 206.299 13.72 206.043 13.88L204.219 12.152C204.859 11.304 205.515 10.568 206.187 9.94401C206.859 9.304 207.563 8.808 208.299 8.45601C209.035 8.08801 209.827 7.90401 210.675 7.90401C211.571 7.90401 212.379 8.07201 213.099 8.408C213.819 8.74401 214.515 9.24801 215.187 9.92001C215.859 10.576 216.563 11.408 217.299 12.416L216.867 12.296C216.819 11.912 216.787 11.496 216.771 11.048C216.755 10.6 216.747 10.12 216.747 9.60801V6.488H218.019L218.571 8.072H221.115Z" fill="#FFFFF0"/>
<path d="M229.415 8.072V9.77601H228.935C228.439 9.88801 227.903 10.136 227.327 10.52C226.751 10.888 226.207 11.376 225.695 11.984C225.183 12.576 224.759 13.272 224.423 14.072C224.103 14.872 223.943 15.752 223.943 16.712C223.943 17.864 224.111 18.784 224.447 19.472C224.799 20.144 225.231 20.624 225.743 20.912C226.255 21.2 226.767 21.344 227.279 21.344C227.679 21.344 228.015 21.304 228.287 21.224C228.559 21.144 228.871 21 229.223 20.792L230.063 22.256C229.647 22.576 229.191 22.8 228.695 22.928C228.199 23.056 227.703 23.12 227.207 23.12C226.199 23.12 225.303 22.856 224.519 22.328C223.751 21.8 223.143 21.064 222.695 20.12C222.263 19.16 222.047 18.04 222.047 16.76C222.047 15.448 222.295 14.264 222.791 13.208C223.287 12.136 223.951 11.232 224.783 10.496C225.631 9.76 226.567 9.22401 227.591 8.88801L226.055 9.68001C225.767 9.71201 225.455 9.736 225.119 9.752C224.783 9.76801 224.407 9.77601 223.991 9.77601H220.631V8.072H229.415Z" fill="#FFFFF0"/>
<path d="M243.928 15.56C243.928 16.44 243.76 17.192 243.424 17.816C243.088 18.424 242.648 18.928 242.104 19.328C241.56 19.728 240.952 20.04 240.28 20.264C239.624 20.472 238.96 20.608 238.288 20.672L237.784 20.12C238.664 20.248 239.512 20.424 240.328 20.648C241.16 20.856 242.008 21.136 242.872 21.488C243.736 21.824 244.64 22.24 245.584 22.736L244.744 24.176C243.496 23.504 242.216 22.944 240.904 22.496C239.608 22.032 238.264 21.664 236.872 21.392C235.496 21.104 234.072 20.888 232.6 20.744L232.816 19.016C233.28 19.112 233.768 19.192 234.28 19.256C234.808 19.32 235.424 19.352 236.128 19.352C237.552 19.352 238.696 19.168 239.56 18.8C240.44 18.432 241.08 17.96 241.48 17.384C241.88 16.792 242.08 16.184 242.08 15.56C242.08 14.712 241.808 14.064 241.264 13.616C240.736 13.168 240 12.944 239.056 12.944C238.944 12.944 238.824 12.952 238.696 12.968C238.584 12.968 238.464 12.984 238.336 13.016L238.096 11.456C238.256 11.44 238.456 11.432 238.696 11.432C238.952 11.416 239.16 11.408 239.32 11.408C240.248 11.408 241.008 11.552 241.6 11.84C242.208 12.112 242.68 12.464 243.016 12.896C243.352 13.328 243.584 13.784 243.712 14.264C243.856 14.744 243.928 15.176 243.928 15.56ZM234.616 17.792C234.072 17.792 233.592 17.728 233.176 17.6C232.76 17.472 232.424 17.28 232.168 17.024C231.928 16.784 231.728 16.472 231.568 16.088C231.424 15.704 231.352 15.136 231.352 14.384V9.58401H233.2V10.496L233.152 11.576C233.168 11.768 233.176 11.976 233.176 12.2C233.192 12.408 233.2 12.648 233.2 12.92V14.384C233.2 14.8 233.232 15.104 233.296 15.296C233.376 15.488 233.472 15.648 233.584 15.776C233.824 16.016 234.216 16.136 234.76 16.136C235.448 16.136 236.04 16.008 236.536 15.752C237.048 15.496 237.44 15.192 237.712 14.84C238 14.472 238.144 14.12 238.144 13.784C238.144 13.48 238.032 13.288 237.808 13.208C237.584 13.128 237.28 13.088 236.896 13.088H236.752C235.92 13.088 235.176 12.944 234.52 12.656C233.864 12.368 233.32 11.976 232.888 11.48L233.2 9.94401C233.472 10.248 233.76 10.52 234.064 10.76C234.368 10.984 234.744 11.16 235.192 11.288C235.64 11.4 236.216 11.456 236.92 11.456H238.096C238.272 11.456 238.384 11.504 238.432 11.6C238.496 11.696 238.624 11.792 238.816 11.888C239.136 12.048 239.408 12.272 239.632 12.56C239.856 12.848 239.968 13.224 239.968 13.688C239.968 14.472 239.728 15.176 239.248 15.8C238.784 16.408 238.144 16.896 237.328 17.264C236.528 17.616 235.624 17.792 234.616 17.792ZM228.928 9.77601V8.072H245.896V9.77601H228.928Z" fill="#FFFFF0"/>
<path d="M252.269 8.072V9.77601H249.749V23H247.901V11.744C247.709 11.2 247.421 10.736 247.037 10.352C246.669 9.96801 246.189 9.77601 245.597 9.77601H245.405V8.072H245.765C246.149 8.072 246.549 8.2 246.965 8.45601C247.381 8.696 247.717 9.07201 247.973 9.58401C247.957 9.50401 247.941 9.32001 247.925 9.03201C247.909 8.74401 247.901 8.49601 247.901 8.288V6.488H249.197L249.725 8.072H252.269Z" fill="#FFFFF0"/>
<path d="M266.564 8.072V9.77601H264.044V23H262.196C261.716 22.04 261.052 21.16 260.204 20.36C259.372 19.544 258.412 18.856 257.324 18.296C256.236 17.736 255.076 17.36 253.844 17.168L252.908 14.864C254.444 13.936 256.028 13.096 257.66 12.344C259.308 11.592 261.004 10.952 262.748 10.424L262.196 11.432V9.77601H251.78V8.072H266.564ZM262.196 11.624L262.7 12.296C261.484 12.696 260.204 13.192 258.86 13.784C257.516 14.36 256.276 15 255.14 15.704C256.004 15.896 256.924 16.224 257.9 16.688C258.876 17.152 259.78 17.736 260.612 18.44C261.444 19.144 262.084 19.96 262.532 20.888H262.316C262.284 20.52 262.252 20.152 262.22 19.784C262.204 19.416 262.196 18.976 262.196 18.464V11.624ZM254.084 18.536C255.012 18.712 255.852 18.984 256.604 19.352C257.356 19.72 258.012 20.136 258.572 20.6C259.148 21.064 259.62 21.536 259.988 22.016L258.884 23C258.212 22.296 257.452 21.72 256.604 21.272C255.756 20.808 254.788 20.472 253.7 20.264L254.084 18.536Z" fill="#FFFFF0"/>
<path d="M272.94 8.072V9.77601H270.42V23H268.572V11.744C268.38 11.2 268.092 10.736 267.708 10.352C267.34 9.96801 266.86 9.77601 266.268 9.77601H266.076V8.072H266.436C266.82 8.072 267.22 8.2 267.636 8.45601C268.052 8.696 268.388 9.07201 268.644 9.58401C268.628 9.50401 268.612 9.32001 268.596 9.03201C268.58 8.74401 268.572 8.49601 268.572 8.288V6.488H269.868L270.396 8.072H272.94Z" fill="#FFFFF0"/>
<path d="M272.996 22.0859C272.996 22.0547 273.168 21.9844 273.512 21.875C273.871 21.75 274.348 21.6094 274.941 21.4531C275.551 21.2813 276.262 21.0938 277.074 20.8906C277.887 20.6719 278.77 20.4531 279.723 20.2344C280.691 20 281.691 19.7656 282.723 19.5313C283.77 19.2813 284.824 19.0391 285.887 18.8047C285.902 18.7891 285.949 18.7813 286.027 18.7813H286.215C286.48 18.7813 286.645 18.8594 286.707 19.0156C286.785 19.1563 286.824 19.3438 286.824 19.5781C286.824 19.7656 286.762 19.9219 286.637 20.0469C286.512 20.1563 286.277 20.2656 285.934 20.375C285.605 20.4844 285.145 20.6016 284.551 20.7266C283.973 20.8359 283.215 20.9922 282.277 21.1953C281.34 21.3828 280.207 21.625 278.879 21.9219C277.566 22.2031 276.012 22.5625 274.215 23H274.051C273.957 23 273.84 22.9844 273.699 22.9531C273.574 22.9063 273.449 22.8438 273.324 22.7656C273.215 22.6719 273.121 22.5703 273.043 22.4609C272.98 22.3359 272.965 22.2109 272.996 22.0859Z" fill="#FFFFF0"/>
<path d="M308.939 8.072V9.77601H306.539V23H304.691C304.227 22.056 303.651 21.232 302.963 20.528C302.275 19.808 301.539 19.192 300.755 18.68L301.355 17.096C301.963 17.448 302.595 17.928 303.251 18.536C303.907 19.144 304.411 19.76 304.763 20.384C304.747 20.144 304.731 19.92 304.715 19.712C304.715 19.504 304.707 19.288 304.691 19.064C304.691 18.84 304.691 18.6 304.691 18.344V9.77601H287.147V8.072H308.939ZM296.411 20.816C295.323 20.816 294.283 20.56 293.291 20.048C292.299 19.536 291.363 18.672 290.483 17.456C289.619 16.224 288.819 14.536 288.083 12.392L289.835 11.816C290.411 13.48 291.011 14.848 291.635 15.92C292.275 16.976 292.987 17.752 293.771 18.248C294.555 18.744 295.451 18.992 296.459 18.992C297.339 18.992 298.043 18.856 298.571 18.584C299.115 18.296 299.507 17.912 299.747 17.432C299.987 16.952 300.107 16.408 300.107 15.8C300.107 14.872 299.851 14.12 299.339 13.544C298.843 12.968 298.219 12.68 297.467 12.68C296.939 12.68 296.539 12.8 296.267 13.04C295.995 13.264 295.859 13.608 295.859 14.072C295.859 14.184 295.875 14.336 295.907 14.528C295.939 14.72 295.987 14.896 296.051 15.056L294.227 15.416C294.115 15.08 294.027 14.776 293.963 14.504C293.915 14.216 293.891 13.944 293.891 13.688C293.891 13.096 294.051 12.6 294.371 12.2C294.707 11.8 295.131 11.504 295.643 11.312C296.171 11.104 296.723 11 297.299 11C298.243 11 299.059 11.216 299.747 11.648C300.435 12.064 300.971 12.64 301.355 13.376C301.739 14.112 301.931 14.968 301.931 15.944C301.931 16.808 301.731 17.616 301.331 18.368C300.931 19.104 300.323 19.696 299.507 20.144C298.691 20.592 297.659 20.816 296.411 20.816ZM295.643 11.84C295.563 11.328 295.323 10.88 294.923 10.496C294.539 10.096 293.971 9.816 293.219 9.656L293.795 8.57601L294.875 8.864C295.787 9.216 296.443 9.616 296.843 10.064C297.243 10.512 297.475 11.08 297.539 11.768L295.643 11.84ZM315.419 8.072V9.77601H312.899V23H311.051V11.504C310.779 10.88 310.467 10.44 310.115 10.184C309.779 9.91201 309.379 9.77601 308.915 9.77601H308.675V8.072H308.915C309.363 8.072 309.779 8.2 310.163 8.45601C310.563 8.696 310.891 9.07201 311.147 9.58401C311.131 9.50401 311.107 9.32001 311.075 9.03201C311.059 8.74401 311.051 8.49601 311.051 8.288V6.488H312.323L312.875 8.072H315.419Z" fill="#FFFFF0"/>
<path d="M321.808 8.072V9.77601H319.288V23H317.44V9.77601H314.944V8.072H317.152C316.896 7.768 316.632 7.448 316.36 7.112C316.104 6.776 315.872 6.44 315.664 6.104C316.208 5.16 316.792 4.30401 317.416 3.53601C318.04 2.75201 318.776 2.136 319.624 1.688C320.472 1.224 321.496 0.992004 322.696 0.992004C323.544 0.992004 324.352 1.096 325.12 1.304C325.904 1.512 326.672 1.816 327.424 2.216C328.176 2.6 328.936 3.072 329.704 3.632C330.472 4.176 331.272 4.784 332.104 5.45601L331.096 6.752C329.992 5.856 328.992 5.112 328.096 4.52C327.216 3.928 326.368 3.488 325.552 3.2C324.752 2.896 323.896 2.744 322.984 2.744C322.104 2.744 321.336 2.896 320.68 3.2C320.04 3.504 319.48 3.92801 319 4.47201C318.536 5.01601 318.112 5.64801 317.728 6.36801C317.856 6.60801 318.032 6.87201 318.256 7.16001C318.48 7.44801 318.736 7.752 319.024 8.072H321.808Z" fill="#FFFFF0"/>
<path d="M327.367 11C328.631 11 329.647 11.216 330.415 11.648C331.199 12.064 331.775 12.6 332.143 13.256C332.511 13.896 332.695 14.544 332.695 15.2C332.695 16.512 332.231 17.552 331.303 18.32C330.391 19.088 329.031 19.52 327.223 19.616L327.463 19.352C328.183 19.56 328.943 19.856 329.743 20.24C330.543 20.624 331.351 21.072 332.167 21.584C332.983 22.08 333.767 22.632 334.519 23.24L333.415 24.512C332.423 23.776 331.511 23.144 330.679 22.616C329.863 22.072 329.055 21.6 328.255 21.2C327.455 20.8 326.607 20.448 325.711 20.144C324.815 19.84 323.799 19.56 322.663 19.304L323.023 17.648C323.583 17.808 324.119 17.928 324.631 18.008C325.159 18.072 325.791 18.104 326.527 18.104C327.663 18.104 328.535 17.968 329.143 17.696C329.767 17.424 330.199 17.072 330.439 16.64C330.679 16.208 330.799 15.768 330.799 15.32C330.799 14.472 330.487 13.824 329.863 13.376C329.239 12.912 328.447 12.68 327.487 12.68C326.911 12.68 326.447 12.736 326.095 12.848C325.743 12.96 325.487 13.128 325.327 13.352C325.183 13.56 325.111 13.816 325.111 14.12C325.111 14.248 325.127 14.384 325.159 14.528C325.191 14.656 325.223 14.776 325.255 14.888L323.503 15.248C323.423 15.008 323.359 14.76 323.311 14.504C323.263 14.232 323.239 13.992 323.239 13.784C323.239 13.192 323.415 12.688 323.767 12.272C324.119 11.856 324.599 11.544 325.207 11.336C325.831 11.112 326.551 11 327.367 11ZM325.759 11.84C325.679 11.328 325.439 10.88 325.039 10.496C324.639 10.096 324.063 9.816 323.311 9.656L323.887 8.57601L324.991 8.864C325.887 9.216 326.535 9.616 326.935 10.064C327.351 10.512 327.591 11.08 327.655 11.768L325.759 11.84ZM334.519 8.072V9.77601H321.319V8.072H334.519Z" fill="#FFFFF0"/>
<path d="M342.829 8.072V9.77601H342.349C341.853 9.88801 341.317 10.136 340.741 10.52C340.165 10.888 339.621 11.376 339.109 11.984C338.597 12.576 338.173 13.272 337.837 14.072C337.517 14.872 337.357 15.752 337.357 16.712C337.357 17.864 337.525 18.784 337.861 19.472C338.213 20.144 338.645 20.624 339.157 20.912C339.669 21.2 340.181 21.344 340.693 21.344C341.093 21.344 341.429 21.304 341.701 21.224C341.973 21.144 342.285 21 342.637 20.792L343.477 22.256C343.061 22.576 342.605 22.8 342.109 22.928C341.613 23.056 341.117 23.12 340.621 23.12C339.613 23.12 338.717 22.856 337.933 22.328C337.165 21.8 336.557 21.064 336.109 20.12C335.677 19.16 335.461 18.04 335.461 16.76C335.461 15.448 335.709 14.264 336.205 13.208C336.701 12.136 337.365 11.232 338.197 10.496C339.045 9.76 339.981 9.22401 341.005 8.88801L339.469 9.68001C339.181 9.71201 338.869 9.736 338.533 9.752C338.197 9.76801 337.821 9.77601 337.405 9.77601H334.045V8.072H342.829Z" fill="#FFFFF0"/>
<path d="M357.342 15.56C357.342 16.44 357.174 17.192 356.838 17.816C356.502 18.424 356.062 18.928 355.518 19.328C354.974 19.728 354.366 20.04 353.694 20.264C353.038 20.472 352.374 20.608 351.702 20.672L351.198 20.12C352.078 20.248 352.926 20.424 353.742 20.648C354.574 20.856 355.422 21.136 356.286 21.488C357.15 21.824 358.054 22.24 358.998 22.736L358.158 24.176C356.91 23.504 355.63 22.944 354.318 22.496C353.022 22.032 351.678 21.664 350.286 21.392C348.91 21.104 347.486 20.888 346.014 20.744L346.23 19.016C346.694 19.112 347.182 19.192 347.694 19.256C348.222 19.32 348.838 19.352 349.542 19.352C350.966 19.352 352.11 19.168 352.974 18.8C353.854 18.432 354.494 17.96 354.894 17.384C355.294 16.792 355.494 16.184 355.494 15.56C355.494 14.712 355.222 14.064 354.678 13.616C354.15 13.168 353.414 12.944 352.47 12.944C352.358 12.944 352.238 12.952 352.11 12.968C351.998 12.968 351.878 12.984 351.75 13.016L351.51 11.456C351.67 11.44 351.87 11.432 352.11 11.432C352.366 11.416 352.574 11.408 352.734 11.408C353.662 11.408 354.422 11.552 355.014 11.84C355.622 12.112 356.094 12.464 356.43 12.896C356.766 13.328 356.998 13.784 357.126 14.264C357.27 14.744 357.342 15.176 357.342 15.56ZM348.03 17.792C347.486 17.792 347.006 17.728 346.59 17.6C346.174 17.472 345.838 17.28 345.582 17.024C345.342 16.784 345.142 16.472 344.982 16.088C344.838 15.704 344.766 15.136 344.766 14.384V9.58401H346.614V10.496L346.566 11.576C346.582 11.768 346.59 11.976 346.59 12.2C346.606 12.408 346.614 12.648 346.614 12.92V14.384C346.614 14.8 346.646 15.104 346.71 15.296C346.79 15.488 346.886 15.648 346.998 15.776C347.238 16.016 347.63 16.136 348.174 16.136C348.862 16.136 349.454 16.008 349.95 15.752C350.462 15.496 350.854 15.192 351.126 14.84C351.414 14.472 351.558 14.12 351.558 13.784C351.558 13.48 351.446 13.288 351.222 13.208C350.998 13.128 350.694 13.088 350.31 13.088H350.166C349.334 13.088 348.59 12.944 347.934 12.656C347.278 12.368 346.734 11.976 346.302 11.48L346.614 9.94401C346.886 10.248 347.174 10.52 347.478 10.76C347.782 10.984 348.158 11.16 348.606 11.288C349.054 11.4 349.63 11.456 350.334 11.456H351.51C351.686 11.456 351.798 11.504 351.846 11.6C351.91 11.696 352.038 11.792 352.23 11.888C352.55 12.048 352.822 12.272 353.046 12.56C353.27 12.848 353.382 13.224 353.382 13.688C353.382 14.472 353.142 15.176 352.662 15.8C352.198 16.408 351.558 16.896 350.742 17.264C349.942 17.616 349.038 17.792 348.03 17.792ZM342.342 9.77601V8.072H359.31V9.77601H342.342Z" fill="#FFFFF0"/>
<path d="M359.363 22.0859C359.363 22.0547 359.535 21.9844 359.879 21.875C360.238 21.75 360.715 21.6094 361.309 21.4531C361.918 21.2813 362.629 21.0938 363.441 20.8906C364.254 20.6719 365.137 20.4531 366.09 20.2344C367.059 20 368.059 19.7656 369.09 19.5313C370.137 19.2813 371.191 19.0391 372.254 18.8047C372.27 18.7891 372.316 18.7813 372.395 18.7813H372.582C372.848 18.7813 373.012 18.8594 373.074 19.0156C373.152 19.1563 373.191 19.3438 373.191 19.5781C373.191 19.7656 373.129 19.9219 373.004 20.0469C372.879 20.1563 372.645 20.2656 372.301 20.375C371.973 20.4844 371.512 20.6016 370.918 20.7266C370.34 20.8359 369.582 20.9922 368.645 21.1953C367.707 21.3828 366.574 21.625 365.246 21.9219C363.934 22.2031 362.379 22.5625 360.582 23H360.418C360.324 23 360.207 22.9844 360.066 22.9531C359.941 22.9063 359.816 22.8438 359.691 22.7656C359.582 22.6719 359.488 22.5703 359.41 22.4609C359.348 22.3359 359.332 22.2109 359.363 22.0859Z" fill="#FFFFF0"/>
<path d="M386.018 7.92801C386.674 7.92801 387.218 8 387.65 8.144C388.098 8.27201 388.474 8.47201 388.778 8.74401C389.082 9.00001 389.322 9.32001 389.498 9.70401C389.674 10.072 389.762 10.584 389.762 11.24V23H387.962C387.834 22.52 387.65 22.128 387.41 21.824C387.17 21.52 386.874 21.296 386.522 21.152C386.186 20.992 385.778 20.912 385.298 20.912C384.722 20.912 384.186 20.944 383.69 21.008C383.194 21.072 382.674 21.144 382.13 21.224C381.602 21.288 380.986 21.32 380.282 21.32C379.738 21.32 379.154 21.264 378.53 21.152C377.906 21.024 377.314 20.792 376.754 20.456C376.194 20.12 375.738 19.624 375.386 18.968C375.034 18.296 374.858 17.416 374.858 16.328C374.858 15.944 374.89 15.544 374.954 15.128C375.018 14.696 375.082 14.304 375.146 13.952L376.994 14.216C376.93 14.456 376.866 14.744 376.802 15.08C376.754 15.416 376.73 15.816 376.73 16.28C376.73 16.984 376.834 17.552 377.042 17.984C377.25 18.416 377.53 18.744 377.882 18.968C378.234 19.192 378.626 19.344 379.058 19.424C379.49 19.504 379.93 19.544 380.378 19.544C381.178 19.544 381.906 19.48 382.562 19.352C383.234 19.208 383.986 19.136 384.818 19.136C385.506 19.136 386.106 19.24 386.618 19.448C387.13 19.64 387.562 19.976 387.914 20.456V11.888C387.914 11.296 387.874 10.872 387.794 10.616C387.714 10.36 387.586 10.152 387.41 9.992C387.122 9.752 386.682 9.632 386.09 9.632C385.514 9.632 384.962 9.76 384.434 10.016C383.922 10.272 383.458 10.6 383.042 11C382.642 11.4 382.322 11.832 382.082 12.296C381.858 12.744 381.746 13.168 381.746 13.568C381.746 13.728 381.778 13.896 381.842 14.072C381.906 14.248 382.042 14.4 382.25 14.528C382.458 14.656 382.762 14.72 383.162 14.72C383.338 14.72 383.506 14.712 383.666 14.696C383.826 14.68 383.994 14.664 384.17 14.648L384.338 16.328C384.178 16.392 383.962 16.44 383.69 16.472C383.434 16.504 383.13 16.52 382.778 16.52C381.994 16.52 381.306 16.28 380.714 15.8C380.138 15.32 379.85 14.584 379.85 13.592C379.85 12.952 380.01 12.304 380.33 11.648C380.666 10.976 381.122 10.36 381.698 9.8C382.274 9.24 382.93 8.792 383.666 8.45601C384.418 8.104 385.202 7.92801 386.018 7.92801ZM393.698 9.2C393.698 10.064 393.506 10.808 393.122 11.432C392.738 12.04 392.226 12.56 391.586 12.992C390.962 13.424 390.274 13.8 389.522 14.12V12.224C389.906 12.048 390.274 11.832 390.626 11.576C390.978 11.32 391.266 11 391.49 10.616C391.714 10.232 391.826 9.776 391.826 9.248C391.826 8.848 391.754 8.504 391.61 8.216C391.482 7.912 391.29 7.648 391.034 7.424C390.73 7.168 390.33 6.96 389.834 6.8C389.354 6.624 388.682 6.48001 387.818 6.36801L385.322 6.03201C384.33 5.88801 383.522 5.656 382.898 5.336C382.274 5.016 381.81 4.584 381.506 4.04C381.218 3.496 381.074 2.816 381.074 2C381.074 1.856 381.082 1.688 381.098 1.49601C381.13 1.304 381.154 1.136 381.17 0.992004L382.946 1.088C382.93 1.20001 382.914 1.33601 382.898 1.49601C382.882 1.656 382.874 1.8 382.874 1.92801C382.874 2.248 382.914 2.536 382.994 2.792C383.074 3.032 383.194 3.25601 383.354 3.46401C383.53 3.656 383.754 3.816 384.026 3.94401C384.314 4.056 384.682 4.144 385.13 4.208L388.274 4.64001C388.978 4.736 389.586 4.856 390.098 5C390.626 5.128 391.082 5.288 391.466 5.48001C391.85 5.672 392.178 5.896 392.45 6.15201C392.85 6.52001 393.154 6.96801 393.362 7.49601C393.586 8.00801 393.698 8.576 393.698 9.2Z" fill="#FFFFF0"/>
<path d="M33.8281 70.9922C33.5625 71.1172 33.3281 71.2031 33.125 71.25C32.9375 71.2969 32.7031 71.3203 32.4219 71.3203C32.2188 71.3203 32.0469 71.2969 31.9062 71.25C31.7812 71.1875 31.7188 71 31.7188 70.6875C31.7188 70.5625 31.8047 70.4531 31.9766 70.3594C32.1484 70.25 32.3438 70.1563 32.5625 70.0781C32.7812 69.9844 32.9844 69.9141 33.1719 69.8672C33.3594 69.8203 33.4766 69.7891 33.5234 69.7734V66.1641C33.2578 66.1484 33.0234 66.1094 32.8203 66.0469C32.6328 66.0156 32.4609 65.9609 32.3047 65.8828C32.1484 65.8047 32.0625 65.7109 32.0469 65.6016C32.0156 65.5234 31.9922 65.4453 31.9766 65.3672C31.9766 65.2891 31.9688 65.2109 31.9531 65.1328C31.9375 65.0391 31.9297 64.9375 31.9297 64.8281H33.4766C33.4922 64.7031 33.5078 64.5703 33.5234 64.4297C33.5391 64.1797 33.5391 63.9609 33.5234 63.7734C33.5234 63.7422 33.5 63.6328 33.4531 63.4453C33.4219 63.2578 33.3906 63.0703 33.3594 62.8828C33.3281 62.6797 33.2969 62.4922 33.2656 62.3203C33.2344 62.1328 33.2188 62.0234 33.2188 61.9922V61.6406C33.2188 61.4844 33.25 61.3438 33.3125 61.2188C33.375 61.0938 33.5 61.0313 33.6875 61.0313C33.8594 61.0313 34.0078 61.1094 34.1328 61.2656C34.2578 61.4219 34.3594 61.6172 34.4375 61.8516C34.5156 62.0859 34.5703 62.3438 34.6016 62.625C34.6328 62.9063 34.6562 63.1719 34.6719 63.4219C34.7031 63.6563 34.7188 63.8672 34.7188 64.0547C34.7188 64.2422 34.7266 64.3438 34.7422 64.3594C34.8203 64.4063 34.9531 64.4219 35.1406 64.4063C35.3281 64.3906 35.5156 64.3594 35.7031 64.3125C35.9062 64.25 36.0859 64.1719 36.2422 64.0781C36.3984 63.9844 36.4922 63.8828 36.5234 63.7734V59.8828C36.5234 59.8359 36.5625 59.7734 36.6406 59.6953C36.7188 59.6172 36.7812 59.5781 36.8281 59.5781C36.875 59.5781 36.9766 59.6172 37.1328 59.6953C37.3047 59.7734 37.4062 59.8359 37.4375 59.8828C37.4531 60.1016 37.4766 60.3438 37.5078 60.6094C37.5391 60.875 37.5781 61.1484 37.625 61.4297C37.6719 61.7109 37.7266 61.9922 37.7891 62.2734C37.8672 62.5547 37.9453 62.8125 38.0234 63.0469H39.8516C39.8516 63.2344 39.7578 63.3828 39.5703 63.4922C39.3828 63.6016 39.1719 63.6953 38.9375 63.7734C38.7031 63.8359 38.4922 63.9141 38.3047 64.0078C38.1172 64.0859 38.0234 64.2031 38.0234 64.3594V67.0078C38.3359 67.0078 38.625 66.9531 38.8906 66.8438C39.1719 66.7188 39.4453 66.5859 39.7109 66.4453C39.9766 66.2891 40.2422 66.1484 40.5078 66.0234C40.7891 65.8984 41.0859 65.8359 41.3984 65.8359C41.3984 66.1016 41.3203 66.3203 41.1641 66.4922C41.0078 66.6641 40.8203 66.8125 40.6016 66.9375C40.3828 67.0469 40.1328 67.1641 39.8516 67.2891C39.5859 67.3984 39.3438 67.5234 39.125 67.6641C38.9062 67.7891 38.7188 67.9531 38.5625 68.1563C38.4062 68.3594 38.3281 68.6172 38.3281 68.9297C38.3281 69.4141 38.3438 69.8438 38.375 70.2188C38.4062 70.5938 38.4844 71.0391 38.6094 71.5547L37.8359 72.375L37.1094 69.1875C37.1094 69.1875 37.1016 69.1797 37.0859 69.1641C37.0703 69.1641 37.0547 69.1641 37.0391 69.1641C37.0234 69.1484 37.0078 69.1406 36.9922 69.1406C36.5703 69.1406 36.1953 69.25 35.8672 69.4688C35.5391 69.6719 35.2734 69.9375 35.0703 70.2656C34.8828 70.5938 34.7812 70.9609 34.7656 71.3672C34.75 71.7578 34.8359 72.125 35.0234 72.4688L34.7422 72.7969C34.6016 72.7188 34.4766 72.5859 34.3672 72.3984C34.2578 72.2109 34.1641 72.0078 34.0859 71.7891C33.9922 71.5391 33.9062 71.2734 33.8281 70.9922ZM34.7891 65.6719C34.7109 65.9063 34.6719 66.1719 34.6719 66.4688C34.6719 66.75 34.6875 67.0469 34.7188 67.3594C34.7656 67.6563 34.8125 67.9688 34.8594 68.2969C34.9219 68.6094 34.9766 68.9063 35.0234 69.1875L36.8281 67.9688V64.875C36.3281 64.875 35.875 64.9453 35.4688 65.0859C35.0781 65.2266 34.8516 65.4219 34.7891 65.6719Z" fill="#FFFFF0"/>
<path d="M55.9933 60.072V61.776H45.0972V68.928L44.7613 68.448C45.4013 67.728 46.1292 67.056 46.9452 66.432C47.7612 65.808 48.6492 65.24 49.6092 64.728C50.5692 64.2 51.5933 63.736 52.6813 63.336L54.2413 64.872C53.9373 65.432 53.6892 65.976 53.4972 66.504C53.3212 67.032 53.1853 67.584 53.0893 68.16C53.0093 68.736 52.9692 69.376 52.9692 70.08C52.9692 70.864 53.0333 71.616 53.1613 72.336C53.2893 73.056 53.5052 73.864 53.8092 74.76L52.0093 75.168C51.7213 74.24 51.4972 73.336 51.3372 72.456C51.1772 71.56 51.0972 70.632 51.0972 69.672C51.0972 69.016 51.1453 68.4 51.2413 67.824C51.3373 67.248 51.4653 66.736 51.6252 66.288C51.8012 65.824 51.9773 65.448 52.1532 65.16L52.4412 65.28C51.5292 65.648 50.6413 66.096 49.7773 66.624C48.9133 67.152 48.0652 67.76 47.2332 68.448C46.4012 69.136 45.5452 69.92 44.6652 70.8L43.2493 69.84V61.776H41.0413V60.072H55.9933Z" fill="#FFFFF0"/>
<path d="M72.2302 60.072V61.776H69.7102V75H67.8622V62.712L67.9822 62.232C67.9342 61.96 67.9022 61.68 67.8862 61.392C67.8702 61.104 67.8622 60.784 67.8622 60.432V58.488H69.1342L69.7102 60.072H72.2302ZM64.4062 59.904C65.0302 59.904 65.6062 60.024 66.1342 60.264C66.6622 60.504 67.1342 60.84 67.5502 61.272C67.9662 61.704 68.3022 62.208 68.5582 62.784L68.4622 65.304C67.9662 64.152 67.3822 63.256 66.7102 62.616C66.0382 61.976 65.2862 61.656 64.4542 61.656C63.8302 61.656 63.3262 61.832 62.9422 62.184C62.5582 62.52 62.3662 63.024 62.3662 63.696C62.3662 64.336 62.6222 64.864 63.1342 65.28C63.6622 65.68 64.5022 65.904 65.6542 65.952L65.4862 67.8C64.4302 67.736 63.5582 67.52 62.8702 67.152C62.1982 66.784 61.7022 66.304 61.3822 65.712C61.0622 65.104 60.9022 64.408 60.9022 63.624C60.9022 62.776 61.0702 62.08 61.4062 61.536C61.7422 60.976 62.1742 60.568 62.7022 60.312C63.2462 60.04 63.8142 59.904 64.4062 59.904ZM57.5902 59.904C58.2622 59.904 58.8942 60.04 59.4862 60.312C60.0942 60.584 60.5902 61.016 60.9742 61.608C61.3582 62.2 61.5502 62.976 61.5502 63.936C61.5502 64.592 61.3902 65.216 61.0702 65.808C60.7502 66.4 60.2542 66.88 59.5822 67.248C58.9262 67.616 58.0782 67.8 57.0382 67.8L56.8942 65.952C57.7102 65.936 58.3502 65.824 58.8142 65.616C59.2782 65.392 59.6062 65.112 59.7982 64.776C59.9902 64.44 60.0862 64.104 60.0862 63.768C60.0862 63.112 59.8782 62.6 59.4622 62.232C59.0462 61.848 58.4142 61.656 57.5662 61.656C57.2782 61.656 56.9902 61.68 56.7022 61.728C56.4302 61.76 56.1022 61.824 55.7182 61.92L55.5262 60.12C55.9262 60.04 56.2782 59.984 56.5822 59.952C56.9022 59.92 57.2382 59.904 57.5902 59.904Z" fill="#FFFFF0"/>
<path d="M91.5924 60.072V61.776H83.7924V63.264V63.648V75H81.9444C81.4804 74.056 80.8324 73.168 80.0004 72.336C79.1684 71.504 78.2164 70.808 77.1444 70.248C76.0884 69.672 74.9764 69.312 73.8084 69.168L72.8724 66.864C74.4244 65.968 75.9764 65.168 77.5284 64.464C79.0804 63.76 80.7284 63.136 82.4724 62.592L81.9444 63.6V61.776H71.7444V60.072H91.5924ZM81.9444 63.792L82.4484 64.488C81.6324 64.712 80.7844 65.008 79.9044 65.376C79.0404 65.744 78.1924 66.128 77.3604 66.528C76.5444 66.928 75.7924 67.32 75.1044 67.704C76.0004 67.88 76.9204 68.216 77.8644 68.712C78.8244 69.208 79.6964 69.816 80.4804 70.536C81.2804 71.24 81.8724 72.008 82.2564 72.84L82.0644 72.888C82.0324 72.52 82.0004 72.152 81.9684 71.784C81.9524 71.416 81.9444 70.976 81.9444 70.464V63.792ZM90.2484 68.088C90.2484 68.616 90.1444 69.12 89.9364 69.6C89.7284 70.064 89.3844 70.448 88.9044 70.752C88.4244 71.056 87.7844 71.208 86.9844 71.208C86.7284 71.208 86.4804 71.2 86.2404 71.184C86.0164 71.168 85.7924 71.136 85.5684 71.088L85.7124 69.36C85.8084 69.376 85.9204 69.392 86.0484 69.408C86.1924 69.408 86.3524 69.408 86.5284 69.408C87.2964 69.408 87.7924 69.264 88.0164 68.976C88.2564 68.672 88.3764 68.312 88.3764 67.896C88.3764 67.048 87.9604 66.328 87.1284 65.736C86.3124 65.128 85.0964 64.712 83.4804 64.488L83.5524 62.688C84.7844 62.816 85.9044 63.128 86.9124 63.624C87.9204 64.104 88.7284 64.728 89.3364 65.496C89.9444 66.248 90.2484 67.112 90.2484 68.088Z" fill="#FFFFF0"/>
<path d="M105.888 60.072V61.776H103.368V75H101.52C101.024 74.04 100.352 73.16 99.5038 72.36C98.6718 71.544 97.7117 70.856 96.6237 70.296C95.5517 69.736 94.3998 69.36 93.1678 69.168L92.2318 66.864C93.7678 65.936 95.3517 65.096 96.9837 64.344C98.6317 63.592 100.328 62.952 102.072 62.424L101.52 63.432V61.776H91.1037V60.072H105.888ZM101.52 63.648L102.024 64.296C101.208 64.536 100.36 64.84 99.4798 65.208C98.5998 65.56 97.7277 65.952 96.8637 66.384C95.9997 66.8 95.1837 67.24 94.4157 67.704C95.0717 67.848 95.7598 68.072 96.4798 68.376C97.1998 68.68 97.9038 69.048 98.5918 69.48C99.2958 69.912 99.9277 70.416 100.488 70.992C101.064 71.552 101.52 72.184 101.856 72.888L101.664 72.936C101.6 72.52 101.56 72.104 101.544 71.688C101.528 71.272 101.52 70.856 101.52 70.44V63.648ZM103.152 72C102.624 71.008 101.944 70.12 101.112 69.336C100.296 68.536 99.3517 67.88 98.2797 67.368C97.2237 66.84 96.0557 66.48 94.7757 66.288L95.9997 65.256C96.8957 65.432 97.7757 65.696 98.6397 66.048C99.5037 66.384 100.312 66.848 101.064 67.44C101.832 68.016 102.504 68.76 103.08 69.672L103.152 72Z" fill="#FFFFF0"/>
<path d="M105.945 74.0859C105.945 74.0547 106.117 73.9844 106.461 73.875C106.82 73.75 107.297 73.6094 107.891 73.4531C108.5 73.2813 109.211 73.0938 110.023 72.8906C110.836 72.6719 111.719 72.4531 112.672 72.2344C113.641 72 114.641 71.7656 115.672 71.5313C116.719 71.2813 117.773 71.0391 118.836 70.8047C118.852 70.7891 118.898 70.7813 118.977 70.7813H119.164C119.43 70.7813 119.594 70.8594 119.656 71.0156C119.734 71.1563 119.773 71.3438 119.773 71.5781C119.773 71.7656 119.711 71.9219 119.586 72.0469C119.461 72.1563 119.227 72.2656 118.883 72.375C118.555 72.4844 118.094 72.6016 117.5 72.7266C116.922 72.8359 116.164 72.9922 115.227 73.1953C114.289 73.3828 113.156 73.625 111.828 73.9219C110.516 74.2031 108.961 74.5625 107.164 75H107C106.906 75 106.789 74.9844 106.648 74.9531C106.523 74.9063 106.398 74.8438 106.273 74.7656C106.164 74.6719 106.07 74.5703 105.992 74.4609C105.93 74.3359 105.914 74.2109 105.945 74.0859Z" fill="#FFFFF0"/>
<path d="M137.76 60.072V61.776H135.24V75H133.392V65.496L133.92 67.032C133.264 66.072 132.664 65.256 132.12 64.584C131.576 63.896 131.056 63.336 130.56 62.904C130.08 62.472 129.592 62.16 129.096 61.968C128.6 61.76 128.064 61.656 127.488 61.656C126.848 61.656 126.264 61.776 125.736 62.016C125.224 62.256 124.752 62.576 124.32 62.976C123.888 63.376 123.488 63.808 123.12 64.272L122.928 64.32C123.184 64.16 123.432 64.04 123.672 63.96C123.928 63.88 124.208 63.84 124.512 63.84C125.44 63.84 126.12 64.096 126.552 64.608C126.984 65.104 127.2 65.72 127.2 66.456C127.2 66.632 127.192 66.8 127.176 66.96C127.16 67.12 127.136 67.24 127.104 67.32L126.696 67.176C126.888 66.968 127.072 66.768 127.248 66.576C127.424 66.384 127.608 66.192 127.8 66C128.008 65.808 128.216 65.608 128.424 65.4L131.4 62.616L132.576 63.888L125.76 70.32L124.344 69L126.312 67.128L125.448 68.16L124.728 68.712C124.968 68.44 125.168 68.152 125.328 67.848C125.504 67.528 125.592 67.168 125.592 66.768C125.592 66.368 125.472 66.048 125.232 65.808C124.992 65.568 124.64 65.448 124.176 65.448C123.92 65.448 123.672 65.48 123.432 65.544C123.192 65.608 122.944 65.72 122.688 65.88L120.864 64.152C121.504 63.304 122.16 62.568 122.832 61.944C123.504 61.304 124.208 60.808 124.944 60.456C125.68 60.088 126.472 59.904 127.32 59.904C128.216 59.904 129.024 60.072 129.744 60.408C130.464 60.744 131.16 61.248 131.832 61.92C132.504 62.576 133.208 63.408 133.944 64.416L133.512 64.296C133.464 63.912 133.432 63.496 133.416 63.048C133.4 62.6 133.392 62.12 133.392 61.608V58.488H134.664L135.216 60.072H137.76Z" fill="#FFFFF0"/>
<path d="M152.228 60.072V61.776H141.332V68.928L140.996 68.448C141.636 67.728 142.364 67.056 143.18 66.432C143.996 65.808 144.884 65.24 145.844 64.728C146.804 64.2 147.828 63.736 148.916 63.336L150.476 64.872C150.172 65.432 149.924 65.976 149.732 66.504C149.556 67.032 149.42 67.584 149.324 68.16C149.244 68.736 149.204 69.376 149.204 70.08C149.204 70.864 149.268 71.616 149.396 72.336C149.524 73.056 149.74 73.864 150.044 74.76L148.244 75.168C147.956 74.24 147.732 73.336 147.572 72.456C147.412 71.56 147.332 70.632 147.332 69.672C147.332 69.016 147.38 68.4 147.476 67.824C147.572 67.248 147.7 66.736 147.86 66.288C148.036 65.824 148.212 65.448 148.388 65.16L148.676 65.28C147.764 65.648 146.876 66.096 146.012 66.624C145.148 67.152 144.3 67.76 143.468 68.448C142.636 69.136 141.78 69.92 140.9 70.8L139.484 69.84V61.776H137.276V60.072H152.228Z" fill="#FFFFF0"/>
<path d="M148.033 80.784C147.553 80.784 147.073 80.696 146.593 80.52C146.097 80.36 145.689 80.096 145.369 79.728C145.049 79.36 144.889 78.88 144.889 78.288C144.889 77.488 145.209 76.888 145.849 76.488C146.489 76.088 147.257 75.88 148.153 75.864V74.808H150.001V76.344L149.209 77.448C149.097 77.432 148.969 77.416 148.825 77.4C148.665 77.4 148.497 77.4 148.321 77.4C147.777 77.4 147.361 77.48 147.073 77.64C146.785 77.8 146.641 78.04 146.641 78.36C146.641 78.664 146.769 78.896 147.025 79.056C147.281 79.216 147.601 79.296 147.985 79.296C148.657 79.296 149.265 79.136 149.809 78.816C150.353 78.496 150.873 78.04 151.369 77.448C152.089 77.768 152.889 78.184 153.769 78.696C154.665 79.208 155.473 79.72 156.193 80.232L155.185 81.504C154.593 81.056 153.993 80.648 153.385 80.28C152.777 79.912 152.233 79.616 151.753 79.392C151.433 79.68 151.081 79.928 150.697 80.136C150.313 80.344 149.905 80.504 149.473 80.616C149.025 80.728 148.545 80.784 148.033 80.784Z" fill="#FFFFF0"/>
<path d="M158.601 60.072V61.776H156.081V75H154.233V61.776H151.737V60.072H153.945C153.689 59.768 153.425 59.44 153.153 59.088C152.897 58.736 152.665 58.392 152.457 58.056C153.097 57.112 153.785 56.256 154.521 55.488C155.273 54.72 156.145 54.112 157.137 53.664C158.145 53.216 159.345 52.992 160.737 52.992C161.777 52.992 162.753 53.096 163.665 53.304C164.593 53.496 165.497 53.784 166.377 54.168C167.257 54.552 168.145 55.008 169.041 55.536C169.937 56.064 170.873 56.664 171.849 57.336L170.889 58.68C169.865 58.008 168.937 57.424 168.105 56.928C167.289 56.432 166.505 56.024 165.753 55.704C165.001 55.384 164.241 55.144 163.473 54.984C162.721 54.824 161.897 54.744 161.001 54.744C159.897 54.744 158.953 54.904 158.169 55.224C157.385 55.544 156.705 55.976 156.129 56.52C155.553 57.064 155.025 57.68 154.545 58.368C154.657 58.608 154.825 58.872 155.049 59.16C155.273 59.448 155.529 59.752 155.817 60.072H158.601Z" fill="#FFFFF0"/>
<path d="M176.136 60.072V61.776H173.616V75H171.768V66.96L171.912 67.584C171.56 67.072 171.184 66.664 170.784 66.36C170.4 66.056 169.976 65.904 169.512 65.904C169.272 65.904 169.024 65.952 168.768 66.048C168.528 66.128 168.32 66.288 168.144 66.528C167.984 66.768 167.904 67.136 167.904 67.632C167.904 67.808 167.904 67.968 167.904 68.112C167.92 68.24 167.936 68.368 167.952 68.496L166.392 68.616C166.328 67.96 166.152 67.408 165.864 66.96C165.576 66.496 165.224 66.144 164.808 65.904C164.392 65.664 163.944 65.544 163.464 65.544C163.032 65.544 162.664 65.632 162.36 65.808C162.056 65.968 161.824 66.192 161.664 66.48C161.504 66.752 161.424 67.064 161.424 67.416C161.424 68.056 161.656 68.6 162.12 69.048C162.6 69.496 163.272 69.872 164.136 70.176L163.488 71.952C162.72 71.712 162.032 71.384 161.424 70.968C160.816 70.552 160.336 70.04 159.984 69.432C159.632 68.824 159.456 68.12 159.456 67.32C159.456 66.6 159.632 65.984 159.984 65.472C160.336 64.944 160.808 64.536 161.4 64.248C161.992 63.96 162.64 63.816 163.344 63.816C164.192 63.816 164.92 63.976 165.528 64.296C166.136 64.6 166.696 65.096 167.208 65.784L166.848 65.808C167.008 65.28 167.312 64.88 167.76 64.608C168.224 64.32 168.704 64.176 169.2 64.176C169.776 64.176 170.272 64.288 170.688 64.512C171.104 64.736 171.56 65.056 172.056 65.472L171.84 65.832C171.824 65.496 171.808 65.16 171.792 64.824C171.776 64.488 171.768 64.144 171.768 63.792V61.776H158.112V60.072H176.136Z" fill="#FFFFF0"/>
<path d="M185.674 73.8C184.362 73.8 183.138 73.48 182.002 72.84C180.866 72.184 179.842 71.128 178.93 69.672C178.034 68.216 177.258 66.264 176.602 63.816L178.426 63.336C178.986 65.32 179.594 66.952 180.25 68.232C180.922 69.512 181.69 70.456 182.554 71.064C183.434 71.672 184.458 71.976 185.626 71.976C186.378 71.976 187.01 71.888 187.522 71.712C188.034 71.52 188.442 71.256 188.746 70.92C189.066 70.584 189.298 70.2 189.442 69.768C189.586 69.32 189.658 68.84 189.658 68.328C189.658 67.656 189.53 67.048 189.274 66.504C189.018 65.944 188.658 65.504 188.194 65.184C187.73 64.864 187.186 64.704 186.562 64.704C185.922 64.704 185.458 64.84 185.17 65.112C184.898 65.384 184.762 65.744 184.762 66.192C184.762 66.352 184.778 66.52 184.81 66.696C184.842 66.872 184.898 67.072 184.978 67.296L183.13 67.656C183.034 67.352 182.954 67.056 182.89 66.768C182.842 66.48 182.818 66.184 182.818 65.88C182.818 65.256 182.97 64.736 183.274 64.32C183.594 63.888 184.026 63.56 184.57 63.336C185.13 63.112 185.762 63 186.466 63C187.458 63 188.33 63.232 189.082 63.696C189.834 64.144 190.426 64.776 190.858 65.592C191.29 66.408 191.506 67.352 191.506 68.424C191.506 69.432 191.29 70.344 190.858 71.16C190.442 71.96 189.802 72.6 188.938 73.08C188.074 73.56 186.986 73.8 185.674 73.8ZM193.114 60.072V61.776H175.666V60.072H193.114Z" fill="#FFFFF0"/>
<path d="M193.18 74.0859C193.18 74.0547 193.352 73.9844 193.695 73.875C194.055 73.75 194.531 73.6094 195.125 73.4531C195.734 73.2813 196.445 73.0938 197.258 72.8906C198.07 72.6719 198.953 72.4531 199.906 72.2344C200.875 72 201.875 71.7656 202.906 71.5313C203.953 71.2813 205.008 71.0391 206.07 70.8047C206.086 70.7891 206.133 70.7813 206.211 70.7813H206.398C206.664 70.7813 206.828 70.8594 206.891 71.0156C206.969 71.1563 207.008 71.3438 207.008 71.5781C207.008 71.7656 206.945 71.9219 206.82 72.0469C206.695 72.1563 206.461 72.2656 206.117 72.375C205.789 72.4844 205.328 72.6016 204.734 72.7266C204.156 72.8359 203.398 72.9922 202.461 73.1953C201.523 73.3828 200.391 73.625 199.062 73.9219C197.75 74.2031 196.195 74.5625 194.398 75H194.234C194.141 75 194.023 74.9844 193.883 74.9531C193.758 74.9063 193.633 74.8438 193.508 74.7656C193.398 74.6719 193.305 74.5703 193.227 74.4609C193.164 74.3359 193.148 74.2109 193.18 74.0859Z" fill="#FFFFF0"/>
<path d="M224.994 60.072V61.776H222.474V75H220.626V65.496L221.154 67.032C220.498 66.072 219.898 65.256 219.354 64.584C218.81 63.896 218.29 63.336 217.794 62.904C217.314 62.472 216.826 62.16 216.33 61.968C215.834 61.76 215.298 61.656 214.722 61.656C214.082 61.656 213.498 61.776 212.97 62.016C212.458 62.256 211.986 62.576 211.554 62.976C211.122 63.376 210.722 63.808 210.354 64.272L210.162 64.32C210.418 64.16 210.666 64.04 210.906 63.96C211.162 63.88 211.442 63.84 211.746 63.84C212.674 63.84 213.354 64.096 213.786 64.608C214.218 65.104 214.434 65.72 214.434 66.456C214.434 66.632 214.426 66.8 214.41 66.96C214.394 67.12 214.37 67.24 214.338 67.32L213.93 67.176C214.122 66.968 214.306 66.768 214.482 66.576C214.658 66.384 214.842 66.192 215.034 66C215.242 65.808 215.45 65.608 215.658 65.4L218.634 62.616L219.81 63.888L212.994 70.32L211.578 69L213.546 67.128L212.682 68.16L211.962 68.712C212.202 68.44 212.402 68.152 212.562 67.848C212.738 67.528 212.826 67.168 212.826 66.768C212.826 66.368 212.706 66.048 212.466 65.808C212.226 65.568 211.874 65.448 211.41 65.448C211.154 65.448 210.906 65.48 210.666 65.544C210.426 65.608 210.178 65.72 209.922 65.88L208.098 64.152C208.738 63.304 209.394 62.568 210.066 61.944C210.738 61.304 211.442 60.808 212.178 60.456C212.914 60.088 213.706 59.904 214.554 59.904C215.45 59.904 216.258 60.072 216.978 60.408C217.698 60.744 218.394 61.248 219.066 61.92C219.738 62.576 220.442 63.408 221.178 64.416L220.746 64.296C220.698 63.912 220.666 63.496 220.65 63.048C220.634 62.6 220.626 62.12 220.626 61.608V58.488H221.898L222.45 60.072H224.994Z" fill="#FFFFF0"/>
<path d="M233.294 60.072V61.776H232.814C232.318 61.888 231.782 62.136 231.206 62.52C230.63 62.888 230.086 63.376 229.574 63.984C229.062 64.576 228.638 65.272 228.302 66.072C227.982 66.872 227.822 67.752 227.822 68.712C227.822 69.864 227.99 70.784 228.326 71.472C228.678 72.144 229.11 72.624 229.622 72.912C230.134 73.2 230.646 73.344 231.158 73.344C231.558 73.344 231.894 73.304 232.166 73.224C232.438 73.144 232.75 73 233.102 72.792L233.942 74.256C233.526 74.576 233.07 74.8 232.574 74.928C232.078 75.056 231.582 75.12 231.086 75.12C230.078 75.12 229.182 74.856 228.398 74.328C227.63 73.8 227.022 73.064 226.574 72.12C226.142 71.16 225.926 70.04 225.926 68.76C225.926 67.448 226.174 66.264 226.67 65.208C227.166 64.136 227.83 63.232 228.662 62.496C229.51 61.76 230.446 61.224 231.47 60.888L229.934 61.68C229.646 61.712 229.334 61.736 228.998 61.752C228.662 61.768 228.286 61.776 227.87 61.776H224.51V60.072H233.294Z" fill="#FFFFF0"/>
<path d="M247.807 67.56C247.807 68.44 247.639 69.192 247.303 69.816C246.967 70.424 246.527 70.928 245.983 71.328C245.439 71.728 244.831 72.04 244.159 72.264C243.503 72.472 242.839 72.608 242.167 72.672L241.663 72.12C242.543 72.248 243.391 72.424 244.207 72.648C245.039 72.856 245.887 73.136 246.751 73.488C247.615 73.824 248.519 74.24 249.463 74.736L248.623 76.176C247.375 75.504 246.095 74.944 244.783 74.496C243.487 74.032 242.143 73.664 240.751 73.392C239.375 73.104 237.951 72.888 236.479 72.744L236.695 71.016C237.159 71.112 237.647 71.192 238.159 71.256C238.687 71.32 239.303 71.352 240.007 71.352C241.431 71.352 242.575 71.168 243.439 70.8C244.319 70.432 244.959 69.96 245.359 69.384C245.759 68.792 245.959 68.184 245.959 67.56C245.959 66.712 245.687 66.064 245.143 65.616C244.615 65.168 243.879 64.944 242.935 64.944C242.823 64.944 242.703 64.952 242.575 64.968C242.463 64.968 242.343 64.984 242.215 65.016L241.975 63.456C242.135 63.44 242.335 63.432 242.575 63.432C242.831 63.416 243.039 63.408 243.199 63.408C244.127 63.408 244.887 63.552 245.479 63.84C246.087 64.112 246.559 64.464 246.895 64.896C247.231 65.328 247.463 65.784 247.591 66.264C247.735 66.744 247.807 67.176 247.807 67.56ZM238.495 69.792C237.951 69.792 237.471 69.728 237.055 69.6C236.639 69.472 236.303 69.28 236.047 69.024C235.807 68.784 235.607 68.472 235.447 68.088C235.303 67.704 235.231 67.136 235.231 66.384V61.584H237.079V62.496L237.031 63.576C237.047 63.768 237.055 63.976 237.055 64.2C237.071 64.408 237.079 64.648 237.079 64.92V66.384C237.079 66.8 237.111 67.104 237.175 67.296C237.255 67.488 237.351 67.648 237.463 67.776C237.703 68.016 238.095 68.136 238.639 68.136C239.327 68.136 239.919 68.008 240.415 67.752C240.927 67.496 241.319 67.192 241.591 66.84C241.879 66.472 242.023 66.12 242.023 65.784C242.023 65.48 241.911 65.288 241.687 65.208C241.463 65.128 241.159 65.088 240.775 65.088H240.631C239.799 65.088 239.055 64.944 238.399 64.656C237.743 64.368 237.199 63.976 236.767 63.48L237.079 61.944C237.351 62.248 237.639 62.52 237.943 62.76C238.247 62.984 238.623 63.16 239.071 63.288C239.519 63.4 240.095 63.456 240.799 63.456H241.975C242.151 63.456 242.263 63.504 242.311 63.6C242.375 63.696 242.503 63.792 242.695 63.888C243.015 64.048 243.287 64.272 243.511 64.56C243.735 64.848 243.847 65.224 243.847 65.688C243.847 66.472 243.607 67.176 243.127 67.8C242.663 68.408 242.023 68.896 241.207 69.264C240.407 69.616 239.503 69.792 238.495 69.792ZM232.807 61.776V60.072H249.775V61.776H232.807Z" fill="#FFFFF0"/>
<path d="M256.147 60.072V61.776H253.627V75H251.779V63.744C251.587 63.2 251.299 62.736 250.915 62.352C250.547 61.968 250.067 61.776 249.475 61.776H249.283V60.072H249.643C250.027 60.072 250.427 60.2 250.843 60.456C251.259 60.696 251.595 61.072 251.851 61.584C251.835 61.504 251.819 61.32 251.803 61.032C251.787 60.744 251.779 60.496 251.779 60.288V58.488H253.075L253.603 60.072H256.147Z" fill="#FFFFF0"/>
<path d="M270.442 60.072V61.776H267.922V75H266.074C265.594 74.04 264.93 73.16 264.082 72.36C263.25 71.544 262.29 70.856 261.202 70.296C260.114 69.736 258.954 69.36 257.722 69.168L256.786 66.864C258.322 65.936 259.906 65.096 261.538 64.344C263.186 63.592 264.882 62.952 266.626 62.424L266.074 63.432V61.776H255.658V60.072H270.442ZM266.074 63.624L266.578 64.296C265.362 64.696 264.082 65.192 262.738 65.784C261.394 66.36 260.154 67 259.018 67.704C259.882 67.896 260.802 68.224 261.778 68.688C262.754 69.152 263.658 69.736 264.49 70.44C265.322 71.144 265.962 71.96 266.41 72.888H266.194C266.162 72.52 266.13 72.152 266.098 71.784C266.082 71.416 266.074 70.976 266.074 70.464V63.624ZM257.962 70.536C258.89 70.712 259.73 70.984 260.482 71.352C261.234 71.72 261.89 72.136 262.45 72.6C263.026 73.064 263.498 73.536 263.866 74.016L262.762 75C262.09 74.296 261.33 73.72 260.482 73.272C259.634 72.808 258.666 72.472 257.578 72.264L257.962 70.536Z" fill="#FFFFF0"/>
<path d="M276.819 60.072V61.776H274.299V75H272.451V63.744C272.259 63.2 271.971 62.736 271.587 62.352C271.219 61.968 270.739 61.776 270.147 61.776H269.955V60.072H270.315C270.699 60.072 271.099 60.2 271.515 60.456C271.931 60.696 272.267 61.072 272.523 61.584C272.507 61.504 272.491 61.32 272.475 61.032C272.459 60.744 272.451 60.496 272.451 60.288V58.488H273.747L274.275 60.072H276.819Z" fill="#FFFFF0"/>
<path d="M291.114 60.072V61.776H288.594V75H286.746C286.25 74.04 285.578 73.16 284.73 72.36C283.898 71.544 282.938 70.856 281.85 70.296C280.778 69.736 279.626 69.36 278.394 69.168L277.458 66.864C278.994 65.936 280.578 65.096 282.21 64.344C283.858 63.592 285.554 62.952 287.298 62.424L286.746 63.432V61.776H276.33V60.072H291.114ZM286.746 63.648L287.25 64.296C286.434 64.536 285.586 64.84 284.706 65.208C283.826 65.56 282.954 65.952 282.09 66.384C281.226 66.8 280.41 67.24 279.642 67.704C280.298 67.848 280.986 68.072 281.706 68.376C282.426 68.68 283.13 69.048 283.818 69.48C284.522 69.912 285.154 70.416 285.714 70.992C286.29 71.552 286.746 72.184 287.082 72.888L286.89 72.936C286.826 72.52 286.786 72.104 286.77 71.688C286.754 71.272 286.746 70.856 286.746 70.44V63.648ZM288.378 72C287.85 71.008 287.17 70.12 286.338 69.336C285.522 68.536 284.578 67.88 283.506 67.368C282.45 66.84 281.282 66.48 280.002 66.288L281.226 65.256C282.122 65.432 283.002 65.696 283.866 66.048C284.73 66.384 285.538 66.848 286.29 67.44C287.058 68.016 287.73 68.76 288.306 69.672L288.378 72Z" fill="#FFFFF0"/>
<path d="M291.172 74.0859C291.172 74.0547 291.344 73.9844 291.688 73.875C292.047 73.75 292.523 73.6094 293.117 73.4531C293.727 73.2813 294.438 73.0938 295.25 72.8906C296.062 72.6719 296.945 72.4531 297.898 72.2344C298.867 72 299.867 71.7656 300.898 71.5313C301.945 71.2813 303 71.0391 304.062 70.8047C304.078 70.7891 304.125 70.7813 304.203 70.7813H304.391C304.656 70.7813 304.82 70.8594 304.883 71.0156C304.961 71.1563 305 71.3438 305 71.5781C305 71.7656 304.938 71.9219 304.812 72.0469C304.688 72.1563 304.453 72.2656 304.109 72.375C303.781 72.4844 303.32 72.6016 302.727 72.7266C302.148 72.8359 301.391 72.9922 300.453 73.1953C299.516 73.3828 298.383 73.625 297.055 73.9219C295.742 74.2031 294.188 74.5625 292.391 75H292.227C292.133 75 292.016 74.9844 291.875 74.9531C291.75 74.9063 291.625 74.8438 291.5 74.7656C291.391 74.6719 291.297 74.5703 291.219 74.4609C291.156 74.3359 291.141 74.2109 291.172 74.0859Z" fill="#FFFFF0"/>
<path d="M315.69 73.968C314.65 73.968 313.675 73.8 312.763 73.464C311.851 73.128 310.994 72.568 310.194 71.784C309.41 71 308.691 69.96 308.035 68.664C307.379 67.368 306.787 65.76 306.259 63.84L308.082 63.36C308.658 65.472 309.306 67.176 310.026 68.472C310.762 69.752 311.587 70.688 312.499 71.28C313.427 71.856 314.474 72.144 315.642 72.144C316.49 72.144 317.21 71.992 317.802 71.688C318.41 71.384 318.874 70.968 319.194 70.44C319.514 69.896 319.674 69.28 319.674 68.592C319.674 68.112 319.626 67.68 319.53 67.296C319.434 66.912 319.298 66.568 319.122 66.264C318.962 65.944 318.778 65.672 318.57 65.448L319.723 63.576C320.331 64.456 320.778 65.312 321.066 66.144C321.354 66.976 321.499 67.8 321.499 68.616C321.499 69.624 321.275 70.536 320.827 71.352C320.379 72.152 319.722 72.792 318.858 73.272C318.01 73.736 316.954 73.968 315.69 73.968ZM314.779 68.184C313.771 68.184 312.978 67.936 312.402 67.44C311.826 66.928 311.539 66.232 311.539 65.352C311.539 64.984 311.595 64.624 311.707 64.272C311.819 63.904 311.938 63.592 312.066 63.336L313.987 63.912C313.875 64.072 313.77 64.272 313.674 64.512C313.578 64.752 313.53 65 313.53 65.256C313.53 65.688 313.651 66 313.891 66.192C314.131 66.384 314.443 66.48 314.827 66.48C315.163 66.48 315.499 66.416 315.835 66.288C316.171 66.16 316.53 65.912 316.914 65.544C317.314 65.16 317.747 64.584 318.211 63.816L319.723 63.576L319.53 64.872C319.098 65.592 318.643 66.2 318.163 66.696C317.699 67.176 317.186 67.544 316.626 67.8C316.082 68.056 315.467 68.184 314.779 68.184ZM323.107 60.072V61.776H305.323V60.072H323.107Z" fill="#FFFFF0"/>
<path d="M313.253 81.384C312.821 81.384 312.349 81.288 311.837 81.096C311.325 80.92 310.893 80.632 310.541 80.232C310.173 79.832 309.989 79.296 309.989 78.624C309.989 77.808 310.301 77.152 310.925 76.656C311.549 76.176 312.421 75.936 313.541 75.936C314.533 75.936 315.493 76.112 316.421 76.464C317.333 76.832 318.269 77.336 319.229 77.976C320.173 78.616 321.181 79.36 322.253 80.208L321.173 81.504C320.101 80.608 319.125 79.864 318.245 79.272C317.365 78.68 316.533 78.232 315.749 77.928C314.965 77.624 314.189 77.472 313.421 77.472C312.845 77.472 312.413 77.584 312.125 77.808C311.837 78.032 311.693 78.32 311.693 78.672C311.693 79.12 311.853 79.432 312.173 79.608C312.477 79.8 312.837 79.896 313.253 79.896C313.845 79.896 314.325 79.768 314.693 79.512C315.045 79.272 315.317 78.968 315.509 78.6C315.701 78.232 315.829 77.848 315.893 77.448C315.957 77.064 315.989 76.72 315.989 76.416V73.056H317.693V76.128C317.693 76.56 317.645 77.072 317.549 77.664C317.453 78.256 317.261 78.832 316.973 79.392C316.669 79.968 316.221 80.44 315.629 80.808C315.037 81.192 314.245 81.384 313.253 81.384Z" fill="#FFFFF0"/>
<path d="M338.027 60.072V61.776H335.507V75H333.659V71.76L334.091 73.032C333.531 72.184 332.963 71.4 332.387 70.68C331.827 69.96 331.227 69.376 330.587 68.928C329.963 68.48 329.275 68.256 328.523 68.256C327.931 68.256 327.427 68.408 327.011 68.712C326.611 69.016 326.411 69.472 326.411 70.08C326.411 70.608 326.603 71.056 326.987 71.424C327.371 71.776 327.939 72.08 328.691 72.336L328.091 74.184C327.227 73.88 326.523 73.512 325.979 73.08C325.451 72.648 325.059 72.176 324.803 71.664C324.563 71.136 324.443 70.584 324.443 70.008C324.443 69.24 324.627 68.6 324.995 68.088C325.379 67.576 325.859 67.192 326.435 66.936C327.027 66.664 327.619 66.528 328.211 66.528C329.171 66.528 330.011 66.704 330.731 67.056C331.467 67.408 332.107 67.88 332.651 68.472C333.211 69.064 333.715 69.728 334.163 70.464L333.755 70.536C333.723 70.168 333.699 69.8 333.683 69.432C333.667 69.048 333.659 68.656 333.659 68.256V61.776H322.619V60.072H338.027ZM330.035 67.248C330.035 67.344 330.027 67.44 330.011 67.536C330.011 67.632 330.003 67.728 329.987 67.824L328.163 67.272C328.131 66.344 327.971 65.6 327.683 65.04C327.395 64.48 326.939 64.056 326.315 63.768C325.691 63.464 324.843 63.256 323.771 63.144L324.083 61.416L325.187 61.728C325.955 61.792 326.635 61.952 327.227 62.208C327.835 62.448 328.347 62.792 328.763 63.24C329.179 63.688 329.491 64.248 329.699 64.92C329.923 65.576 330.035 66.352 330.035 67.248Z" fill="#FFFFF0"/>
<path d="M330.925 81.384C330.493 81.384 330.021 81.288 329.509 81.096C328.997 80.92 328.565 80.632 328.213 80.232C327.845 79.832 327.661 79.296 327.661 78.624C327.661 77.808 327.973 77.152 328.597 76.656C329.221 76.176 330.093 75.936 331.213 75.936C332.205 75.936 333.165 76.112 334.093 76.464C335.005 76.832 335.941 77.336 336.901 77.976C337.845 78.616 338.853 79.36 339.925 80.208L338.845 81.504C337.773 80.608 336.797 79.864 335.917 79.272C335.037 78.68 334.205 78.232 333.421 77.928C332.637 77.624 331.861 77.472 331.093 77.472C330.517 77.472 330.085 77.584 329.797 77.808C329.509 78.032 329.365 78.32 329.365 78.672C329.365 79.12 329.525 79.432 329.845 79.608C330.149 79.8 330.509 79.896 330.925 79.896C331.517 79.896 331.997 79.768 332.365 79.512C332.717 79.272 332.989 78.968 333.181 78.6C333.373 78.232 333.501 77.848 333.565 77.448C333.629 77.064 333.661 76.72 333.661 76.416V74.808H335.509V76.08C335.509 76.528 335.461 77.048 335.365 77.64C335.253 78.248 335.045 78.832 334.741 79.392C334.421 79.968 333.957 80.44 333.349 80.808C332.741 81.192 331.933 81.384 330.925 81.384Z" fill="#FFFFF0"/>
<path d="M344.413 60.072V61.776H341.893V75H340.045V61.776H337.549V60.072H339.757C339.501 59.768 339.237 59.448 338.965 59.112C338.709 58.776 338.477 58.44 338.269 58.104C338.813 57.16 339.397 56.304 340.021 55.536C340.645 54.752 341.381 54.136 342.229 53.688C343.077 53.224 344.101 52.992 345.301 52.992C346.149 52.992 346.957 53.096 347.725 53.304C348.509 53.512 349.277 53.816 350.029 54.216C350.781 54.6 351.541 55.072 352.309 55.632C353.077 56.176 353.877 56.784 354.709 57.456L353.701 58.752C352.597 57.856 351.597 57.112 350.701 56.52C349.821 55.928 348.973 55.488 348.157 55.2C347.357 54.896 346.501 54.744 345.589 54.744C344.709 54.744 343.941 54.896 343.285 55.2C342.645 55.504 342.085 55.928 341.605 56.472C341.141 57.016 340.717 57.648 340.333 58.368C340.461 58.608 340.637 58.872 340.861 59.16C341.085 59.448 341.341 59.752 341.629 60.072H344.413Z" fill="#FFFFF0"/>
<path d="M363.772 60.072V61.776H355.972V63.264V63.648V75H354.124C353.66 74.056 353.012 73.168 352.18 72.336C351.348 71.504 350.396 70.808 349.324 70.248C348.268 69.672 347.156 69.312 345.988 69.168L345.052 66.864C346.604 65.968 348.156 65.168 349.708 64.464C351.26 63.76 352.908 63.136 354.652 62.592L354.124 63.6V61.776H343.924V60.072H363.772ZM354.124 63.792L354.628 64.488C353.812 64.712 352.964 65.008 352.084 65.376C351.22 65.744 350.372 66.128 349.54 66.528C348.724 66.928 347.972 67.32 347.284 67.704C348.18 67.88 349.1 68.216 350.044 68.712C351.004 69.208 351.876 69.816 352.66 70.536C353.46 71.24 354.052 72.008 354.436 72.84L354.244 72.888C354.212 72.52 354.18 72.152 354.148 71.784C354.132 71.416 354.124 70.976 354.124 70.464V63.792ZM362.428 68.088C362.428 68.616 362.324 69.12 362.116 69.6C361.908 70.064 361.564 70.448 361.084 70.752C360.604 71.056 359.964 71.208 359.164 71.208C358.908 71.208 358.66 71.2 358.42 71.184C358.196 71.168 357.972 71.136 357.748 71.088L357.892 69.36C357.988 69.376 358.1 69.392 358.228 69.408C358.372 69.408 358.532 69.408 358.708 69.408C359.476 69.408 359.972 69.264 360.196 68.976C360.436 68.672 360.556 68.312 360.556 67.896C360.556 67.048 360.14 66.328 359.308 65.736C358.492 65.128 357.276 64.712 355.66 64.488L355.732 62.688C356.964 62.816 358.084 63.128 359.092 63.624C360.1 64.104 360.908 64.728 361.516 65.496C362.124 66.248 362.428 67.112 362.428 68.088Z" fill="#FFFFF0"/>
</svg>
