<svg width="366" height="87" viewBox="0 0 366 87" fill="none" xmlns="http://www.w3.org/2000/svg">
<g clip-path="url(#clip0_294_18988)">
<path d="M178.059 73.5895C171.848 73.3379 165.632 73.9525 159.561 75.4185C153.395 77.1121 147.445 79.9572 141.202 81.4306C134.591 82.7203 127.87 83.2031 121.162 82.8701C102.907 82.7902 84.6649 83.9838 66.5469 86.4435C60.3948 87.0345 54.2104 87.1024 48.0488 86.6467L0 84.4282C2.451 78.1451 8.64785 74.6226 14.706 73.0476C20.7641 71.4726 27.1151 71.354 33.0345 69.1863C47.3089 64.1057 70.4777 57.3315 82.3627 46.967C85.6307 43.7662 87.7888 39.4816 90.4248 35.6372C104.021 15.8905 132.123 10.6575 150.898 24.3583C161.303 16.0938 171.94 7.71074 184.179 3.40915C196.419 -0.892447 210.709 -0.570674 221.052 7.81235C231.843 16.551 238.147 33.3848 251.42 35.3663C260.052 36.6534 269.008 30.7937 277.271 33.8421C284.192 36.3824 288.323 44.4098 294.983 47.6953C300.131 50.2356 306.051 49.609 311.693 49.6428C321.943 49.7607 332.061 52.2095 341.407 56.8352C350.754 61.4608 359.127 68.1629 366 76.5193C366 81.7693 204.589 75.1814 189.636 74.1822C185.782 73.9113 181.898 73.6572 178.059 73.5895Z" fill="#F2F2F2" fill-opacity="0.2"/>
</g>
<defs>
<clipPath id="clip0_294_18988">
<rect width="366" height="86.2859" fill="white" transform="translate(0 0.648682)"/>
</clipPath>
</defs>
</svg>
