<svg width="331" height="69" viewBox="0 0 331 69" fill="none" xmlns="http://www.w3.org/2000/svg">
<g clip-path="url(#clip0_587_7731)">
<path style="mix-blend-mode:screen" opacity="0.2" d="M160.998 58.1834C155.392 57.9889 149.783 58.4704 144.302 59.6165C138.677 60.9158 133.33 63.2278 127.685 64.3934C121.698 65.4091 115.612 65.7872 109.538 65.5208C93.0286 65.4627 76.5315 66.4072 60.1457 68.3487C54.5732 68.82 48.9708 68.8711 43.39 68.5016L0 66.7628C2.22615 61.7757 7.83126 59.005 13.2972 57.7821C18.7632 56.5593 24.5274 56.4064 29.8741 54.744C42.7738 50.7123 63.6638 45.3621 74.4964 37.1458C77.2249 34.3935 79.668 31.3921 81.791 28.1843C94.0745 12.5733 119.556 8.40778 136.471 19.2228C145.872 12.6879 155.492 6.03842 166.563 2.63725C177.634 -0.763926 190.554 -0.496418 199.896 6.19129C209.635 13.1083 215.38 26.4264 227.385 27.9932C235.176 29.0059 243.286 24.3818 250.759 26.7703C257.001 28.7957 260.698 35.1395 266.76 37.7381C271.431 39.7636 276.698 39.2477 281.886 39.2859C291.156 39.379 300.306 41.3166 308.759 44.9768C317.211 48.637 324.784 53.9403 331 60.5528C331 64.6991 185.028 59.5018 171.493 58.642C168.014 58.4318 164.516 58.2407 160.998 58.1834Z" fill="url(#paint0_linear_587_7731)"/>
</g>
<defs>
<linearGradient id="paint0_linear_587_7731" x1="161.376" y1="92.0041" x2="178.686" y2="-37.1026" gradientUnits="userSpaceOnUse">
<stop stop-color="white"/>
<stop offset="1" stop-color="#5A8CAA"/>
</linearGradient>
<clipPath id="clip0_587_7731">
<rect width="331" height="68.291" fill="white" transform="translate(0 0.458984)"/>
</clipPath>
</defs>
</svg>
