<svg width="366" height="77" viewBox="0 0 366 77" fill="none" xmlns="http://www.w3.org/2000/svg">
<g clip-path="url(#clip0_587_7736)">
<path d="M178.059 64.3267C171.848 64.1048 165.632 64.6468 159.561 65.9397C153.395 67.4332 147.445 69.9424 141.202 71.2418C134.591 72.3791 127.87 72.8049 121.162 72.5113C102.907 72.4408 84.6649 73.4934 66.5469 75.6626C60.3948 76.1838 54.2104 76.2438 48.0488 75.8418L0 73.8853C2.451 68.3443 8.64785 65.2377 14.706 63.8487C20.7641 62.4598 27.1151 62.3552 33.0345 60.4435C47.3088 55.9629 70.4777 49.9887 82.3627 40.8483C85.6307 38.0255 87.7888 34.2468 90.4248 30.8565C104.021 13.4419 132.123 8.82685 150.898 20.9096C161.303 13.6211 171.94 6.2281 184.179 2.43452C196.419 -1.35907 210.709 -1.07529 221.052 6.31771C231.843 14.0244 238.147 28.8701 251.42 30.6176C260.052 31.7526 269.008 26.585 277.271 29.2734C284.192 31.5137 288.323 38.593 294.983 41.4905C300.131 43.7308 306.051 43.1782 311.693 43.2081C321.943 43.312 332.061 45.4717 341.407 49.551C350.754 53.6304 359.127 59.541 366 66.9105C366 71.5405 204.589 65.7306 189.636 64.8494C185.782 64.6105 181.898 64.3864 178.059 64.3267Z" fill="#F2F2F2"/>
</g>
<defs>
<clipPath id="clip0_587_7736">
<rect width="366" height="76.0957" fill="white"/>
</clipPath>
</defs>
</svg>
