<svg width="218" height="192" viewBox="0 0 218 192" fill="none" xmlns="http://www.w3.org/2000/svg">
<path d="M11.5044 25.698C11.5044 24.6153 11.7335 23.5742 12.1915 22.5748C12.6912 21.5338 13.3575 20.4927 14.1903 19.4517L21.0612 22.4499C20.7697 22.8247 20.5407 23.1995 20.3742 23.5742C20.2492 23.9074 20.1868 24.2405 20.1868 24.5736C20.1868 24.9901 20.27 25.3648 20.4366 25.698C20.6448 25.9895 21.1653 26.281 21.9982 26.5724C22.8727 26.8639 24.2885 27.2179 26.2456 27.6343C30.2016 28.4255 32.95 29.7164 34.4907 31.507C36.0731 33.256 36.8643 35.4422 36.8643 38.0656C36.8643 41.4802 35.74 44.1036 33.4913 45.9359C31.2427 47.7265 28.1195 48.7883 24.1219 49.1215C23.8304 49.0382 23.5181 48.9757 23.185 48.9341C22.8518 48.8925 22.5187 48.8508 22.1856 48.8092L22.4354 46.498C24.9339 47.206 27.0785 47.9347 28.8691 48.6842C30.7013 49.3922 32.4503 50.2458 34.1159 51.2452C35.7816 52.203 37.6347 53.4314 39.6751 54.9305L35.1778 60.5522C33.179 58.9698 31.1594 57.5748 29.1189 56.3672C27.0785 55.1595 24.9339 54.1185 22.6853 53.244C20.4783 52.3279 18.1047 51.5367 15.5645 50.8704C13.066 50.1625 10.3801 49.5587 7.50684 49.059L8.75609 42.5004C10.1303 42.8752 11.6294 43.1667 13.2534 43.3749C14.9191 43.5831 16.668 43.6872 18.5003 43.6872C22.2064 43.6872 24.7882 43.25 26.2456 42.3755C27.7447 41.4594 28.4943 40.2934 28.4943 38.8776C28.4943 37.9615 28.2653 37.2119 27.8072 36.6289C27.3908 36.046 26.7245 35.5671 25.8084 35.1923C24.8923 34.8175 23.6639 34.4844 22.1231 34.1929C19.1249 33.5683 16.8554 32.8395 15.3147 32.0067C13.8156 31.1739 12.7953 30.2369 12.254 29.1959C11.7543 28.1132 11.5044 26.9472 11.5044 25.698Z" fill="#FF1658"/>
<path d="M66.2276 57.0542C63.6042 57.0542 61.189 56.7003 58.9819 55.9924C56.8166 55.2845 54.8386 54.0352 53.048 52.2446C51.2574 50.454 49.6334 47.9763 48.1759 44.8116C46.7601 41.6051 45.4692 37.5242 44.3032 32.5689L51.9861 30.4451C52.694 33.9847 53.4852 36.9829 54.3597 39.4398C55.2342 41.8966 56.2128 43.8954 57.2955 45.4362C58.3781 46.9769 59.5649 48.1013 60.8558 48.8092C62.1884 49.5171 63.6666 49.871 65.2907 49.871C67.5393 49.871 69.2467 49.1631 70.4126 47.7473C71.5786 46.2898 72.1616 44.1036 72.1616 41.1887C72.1616 39.5647 71.8909 38.1697 71.3496 37.0037C70.8082 35.8377 70.3502 34.9841 69.9754 34.4427L76.1592 34.6301C75.1181 36.5457 74.0771 38.1697 73.036 39.5022C71.995 40.7931 70.8707 41.7717 69.6631 42.438C68.4555 43.1042 67.1021 43.4374 65.603 43.4374C64.437 43.4374 63.396 43.3125 62.4799 43.0626C61.5637 42.7711 60.7517 42.3755 60.0438 41.8758C59.3775 41.3761 58.7737 40.6057 58.2324 39.5647C57.6911 38.482 57.4204 36.8163 57.4204 34.5677V32.5689C57.4204 31.6111 57.3163 30.8616 57.1081 30.3202C56.9415 29.7789 56.5875 29.4041 56.0462 29.1959C55.5465 28.946 54.7553 28.8003 53.6726 28.7586L54.6096 21.2007C56.8999 21.2423 58.7529 21.4713 60.1687 21.8877C61.6262 22.2625 62.7505 22.908 63.5417 23.8241C64.1247 24.4904 64.5411 25.3232 64.791 26.3226C65.0825 27.322 65.2282 28.6129 65.2282 30.1953V33.5058C65.2282 34.4219 65.3115 35.1715 65.4781 35.7545C65.6863 36.2958 66.1235 36.5665 66.7898 36.5665C67.1646 36.5665 67.5393 36.504 67.9141 36.3791C68.2889 36.2125 68.6845 35.8377 69.1009 35.2548C69.559 34.6301 69.9962 33.6516 70.4126 32.319L76.5964 30.8824C77.3043 31.8818 77.9081 33.0477 78.4078 34.3803C78.9075 35.6712 79.2823 37.0037 79.5322 38.3779C79.8237 39.7521 79.9694 41.1054 79.9694 42.438C79.9694 45.1447 79.5114 47.6224 78.5952 49.871C77.7208 52.078 76.2633 53.827 74.2228 55.1179C72.224 56.4088 69.559 57.0542 66.2276 57.0542Z" fill="#FF1658"/>
<path d="M134.657 20.0139V26.8848H128.661V58.8657H120.415V50.7455L121.477 54.056C119.937 51.9323 118.458 50.1209 117.042 48.6218C115.627 47.081 114.211 45.9151 112.795 45.1239C111.379 44.291 109.88 43.8746 108.298 43.8746C107.34 43.8746 106.507 44.1245 105.799 44.6242C105.091 45.1239 104.737 45.8734 104.737 46.8728C104.737 47.9555 105.133 48.8092 105.924 49.4338C106.757 50.0168 107.881 50.5581 109.297 51.0578L106.924 58.241C104.425 57.5331 102.385 56.5754 100.802 55.3678C99.2614 54.1185 98.1163 52.7443 97.3667 51.2452C96.6172 49.7461 96.2424 48.2054 96.2424 46.623C96.2424 44.416 96.7629 42.6045 97.804 41.1887C98.845 39.7729 100.178 38.7319 101.802 38.0656C103.467 37.3993 105.175 37.0662 106.924 37.0662C108.964 37.0662 110.838 37.3369 112.545 37.8782C114.294 38.4195 115.918 39.2732 117.417 40.4392C118.916 41.5635 120.374 43.0418 121.79 44.874L120.54 45.811C120.499 44.8116 120.457 43.8122 120.415 42.8128C120.415 41.7717 120.415 40.7515 120.415 39.7521V26.8848H93.1193V20.0139H134.657ZM113.794 38.8151C113.794 39.0233 113.774 39.3357 113.732 39.7521C113.732 40.1269 113.69 40.5016 113.607 40.8764L105.549 38.8151C105.466 36.858 105.112 35.3172 104.487 34.1929C103.863 33.0686 102.822 32.2149 101.364 31.6319C99.9069 31.0489 97.8248 30.6325 95.1181 30.3827L96.7421 24.0739L100.24 25.0733C102.739 25.3648 104.841 25.8645 106.549 26.5724C108.298 27.2804 109.693 28.1965 110.734 29.3208C111.816 30.4035 112.587 31.736 113.045 33.3184C113.545 34.9008 113.794 36.733 113.794 38.8151Z" fill="#FF1658"/>
<path d="M153.616 20.0139V26.8848H147.62V58.8657H139.375V31.1322C138.875 29.8413 138.167 28.8211 137.251 28.0716C136.335 27.2804 135.148 26.8848 133.691 26.8848H133.378V20.0139H134.628C135.585 20.0139 136.481 20.2637 137.314 20.7634C138.146 21.2631 138.917 22.325 139.625 23.949C139.583 23.7408 139.521 23.2619 139.437 22.5124C139.396 21.7628 139.375 21.1174 139.375 20.576V15.8913H146.121L147.557 20.0139H153.616Z" fill="#FF1658"/>
<path d="M190.639 20.0139V26.8848H166.278V28.4463L166.153 34.5052C166.195 35.0049 166.216 35.5046 166.216 36.0043C166.257 36.504 166.278 37.0037 166.278 37.5034V45.1863C166.278 46.6022 166.361 47.6432 166.528 48.3095C166.695 48.9757 166.944 49.4754 167.278 49.8086C167.861 50.4332 168.818 50.7455 170.151 50.7455C171.275 50.7455 172.358 50.5165 173.399 50.0584C174.44 49.5587 175.502 48.7883 176.585 47.7473C177.501 46.9145 178.209 46.0192 178.708 45.0614C179.208 44.1036 179.458 43.1251 179.458 42.1257C179.458 41.1679 179.166 40.5016 178.583 40.1269C178.042 39.7521 177.313 39.5647 176.397 39.5647H175.773C174.523 39.5647 173.399 39.4398 172.4 39.1899C171.442 38.9401 170.338 38.4612 169.089 37.7533C168.298 37.2952 167.59 36.7955 166.965 36.2542C166.341 35.6712 165.799 35.0882 165.341 34.5052L165.841 26.8223C166.632 28.0716 167.569 29.1126 168.652 29.9454C169.734 30.7783 170.942 31.4237 172.275 31.8818C173.607 32.2982 175.002 32.5064 176.46 32.5064H177.709C179.916 32.5064 181.623 32.7146 182.831 33.131C184.038 33.5474 185.038 34.2137 185.829 35.1298C186.412 35.7545 186.849 36.5457 187.141 37.5034C187.432 38.4195 187.578 39.3565 187.578 40.3142C187.578 42.8544 187.099 45.103 186.141 47.0602C185.184 49.0174 183.914 50.7872 182.331 52.3695C180.665 53.9936 178.75 55.2845 176.585 56.2422C174.419 57.1583 172.108 57.6164 169.651 57.6164C167.403 57.6164 165.654 57.4082 164.404 56.9918C163.155 56.5754 162.114 55.9924 161.281 55.2428C160.365 54.4516 159.595 53.3273 158.97 51.8698C158.345 50.4124 158.033 48.1637 158.033 45.1239V26.8848H152.349V20.0139H190.639Z" fill="#FF1658"/>
<path d="M163.206 12.3934L184.881 1.58737L188.129 7.45887L166.704 18.6397L163.206 12.3934Z" fill="#FF1658"/>
<path d="M12.065 90.8323C12.065 89.7496 12.294 88.7086 12.7521 87.7092C13.2518 86.6681 13.9181 85.6271 14.7509 84.586L21.6218 87.5843C21.3303 87.959 21.1013 88.3338 20.9347 88.7086C20.8098 89.0417 20.7473 89.3749 20.7473 89.708C20.7473 90.1244 20.8306 90.4992 20.9972 90.8323C21.2054 91.1238 21.7259 91.4153 22.5587 91.7068C23.4332 91.9983 24.849 92.3522 26.8062 92.7687C30.7622 93.5599 33.5105 94.8507 35.0513 96.6413C36.6337 98.3903 37.4248 100.576 37.4248 103.2C37.4248 106.615 36.3005 109.238 34.0519 111.07C31.8032 112.861 28.6801 113.923 24.6825 114.256C24.391 114.173 24.0787 114.11 23.7455 114.068C23.4124 114.027 23.0792 113.985 22.7461 113.944L22.996 111.632C25.4945 112.34 27.639 113.069 29.4296 113.819C31.2619 114.526 33.0108 115.38 34.6765 116.38C36.3422 117.337 38.1952 118.566 40.2357 120.065L35.7384 125.686C33.7395 124.104 31.7199 122.709 29.6795 121.501C27.639 120.294 25.4945 119.253 23.2458 118.378C21.0388 117.462 18.6652 116.671 16.1251 116.005C13.6266 115.297 10.9407 114.693 8.06738 114.193L9.31664 107.635C10.6908 108.01 12.1899 108.301 13.814 108.509C15.4796 108.717 17.2286 108.822 19.0608 108.822C22.7669 108.822 25.3487 108.384 26.8062 107.51C28.3053 106.594 29.0548 105.428 29.0548 104.012C29.0548 103.096 28.8258 102.346 28.3678 101.763C27.9513 101.18 27.2851 100.701 26.369 100.327C25.4528 99.9519 24.2244 99.6187 22.6837 99.3272C19.6854 98.7026 17.416 97.9739 15.8752 97.141C14.3761 96.3082 13.3559 95.3713 12.8145 94.3302C12.3148 93.2475 12.065 92.0816 12.065 90.8323Z" fill="black"/>
<path d="M62.7906 118.941C59.8756 118.941 57.2314 118.42 54.8578 117.379C52.5259 116.338 50.6728 114.714 49.2986 112.507C47.9661 110.3 47.2998 107.468 47.2998 104.012C47.2998 101.597 47.8412 99.2856 48.9238 97.0786C50.0065 94.8299 51.7138 92.9977 54.0458 91.5819C56.4194 90.1244 59.48 89.3957 63.2278 89.3957C66.809 89.3957 69.7447 90.0411 72.035 91.332C74.3253 92.6229 76.0118 94.4135 77.0945 96.7038C78.1772 98.9525 78.7185 101.513 78.7185 104.387C78.7185 107.01 78.1356 109.425 76.9696 111.632C75.8036 113.839 74.0338 115.609 71.6603 116.942C69.3283 118.274 66.3717 118.941 62.7906 118.941ZM63.4152 96.2666C61.8744 96.2666 60.5211 96.5789 59.3551 97.2035C58.2308 97.7865 57.3563 98.7026 56.7317 99.9519C56.107 101.159 55.7947 102.679 55.7947 104.512C55.7947 106.011 56.0238 107.322 56.4818 108.447C56.9399 109.571 57.6686 110.466 58.668 111.133C59.6674 111.757 60.9791 112.07 62.6032 112.07C64.2272 112.07 65.6014 111.757 66.7257 111.133C67.8917 110.466 68.7662 109.529 69.3491 108.322C69.9321 107.073 70.2236 105.574 70.2236 103.825C70.2236 102.159 69.9529 100.785 69.4116 99.702C68.9119 98.5777 68.1623 97.724 67.1629 97.141C66.1635 96.5581 64.9143 96.2666 63.4152 96.2666Z" fill="black"/>
<path d="M89.6554 90.8323C89.6554 89.7496 89.8844 88.7086 90.3425 87.7092C90.8422 86.6681 91.5084 85.6271 92.3413 84.586L99.2122 87.5843C98.9207 87.959 98.6916 88.3338 98.5251 88.7086C98.4001 89.0417 98.3377 89.3749 98.3377 89.708C98.3377 90.1244 98.421 90.4992 98.5875 90.8323C98.7957 91.1238 99.3163 91.4153 100.149 91.7068C101.024 91.9983 102.439 92.3522 104.397 92.7687C108.353 93.5599 111.101 94.8507 112.642 96.6413C114.224 98.3903 115.015 100.576 115.015 103.2C115.015 106.615 113.891 109.238 111.642 111.07C109.394 112.861 106.27 113.923 102.273 114.256C101.981 114.173 101.669 114.11 101.336 114.068C101.003 114.027 100.67 113.985 100.336 113.944L100.586 111.632C103.085 112.34 105.229 113.069 107.02 113.819C108.852 114.526 110.601 115.38 112.267 116.38C113.933 117.337 115.786 118.566 117.826 120.065L113.329 125.686C111.33 124.104 109.31 122.709 107.27 121.501C105.229 120.294 103.085 119.253 100.836 118.378C98.6292 117.462 96.2556 116.671 93.7154 116.005C91.2169 115.297 88.531 114.693 85.6578 114.193L86.907 107.635C88.2812 108.01 89.7803 108.301 91.4043 108.509C93.07 108.717 94.8189 108.822 96.6512 108.822C100.357 108.822 102.939 108.384 104.397 107.51C105.896 106.594 106.645 105.428 106.645 104.012C106.645 103.096 106.416 102.346 105.958 101.763C105.542 101.18 104.875 100.701 103.959 100.327C103.043 99.9519 101.815 99.6187 100.274 99.3272C97.2758 98.7026 95.0063 97.9739 93.4656 97.141C91.9665 96.3082 90.9463 95.3713 90.4049 94.3302C89.9052 93.2475 89.6554 92.0816 89.6554 90.8323Z" fill="black"/>
<path d="M128.451 90.8323C128.451 89.7496 128.68 88.7086 129.138 87.7092C129.637 86.6681 130.304 85.6271 131.136 84.586L138.007 87.5843C137.716 87.959 137.487 88.3338 137.32 88.7086C137.195 89.0417 137.133 89.3749 137.133 89.708C137.133 90.1244 137.216 90.4992 137.383 90.8323C137.591 91.1238 138.111 91.4153 138.944 91.7068C139.819 91.9983 141.235 92.3522 143.192 92.7687C147.148 93.5599 149.896 94.8507 151.437 96.6413C153.019 98.3903 153.81 100.576 153.81 103.2C153.81 106.615 152.686 109.238 150.437 111.07C148.189 112.861 145.066 113.923 141.068 114.256C140.777 114.173 140.464 114.11 140.131 114.068C139.798 114.027 139.465 113.985 139.132 113.944L139.382 111.632C141.88 112.34 144.025 113.069 145.815 113.819C147.647 114.526 149.396 115.38 151.062 116.38C152.728 117.337 154.581 118.566 156.621 120.065L152.124 125.686C150.125 124.104 148.105 122.709 146.065 121.501C144.025 120.294 141.88 119.253 139.631 118.378C137.424 117.462 135.051 116.671 132.511 116.005C130.012 115.297 127.326 114.693 124.453 114.193L125.702 107.635C127.076 108.01 128.575 108.301 130.2 108.509C131.865 108.717 133.614 108.822 135.446 108.822C139.152 108.822 141.734 108.384 143.192 107.51C144.691 106.594 145.44 105.428 145.44 104.012C145.44 103.096 145.211 102.346 144.753 101.763C144.337 101.18 143.671 100.701 142.755 100.327C141.838 99.9519 140.61 99.6187 139.069 99.3272C136.071 98.7026 133.802 97.9739 132.261 97.141C130.762 96.3082 129.741 95.3713 129.2 94.3302C128.7 93.2475 128.451 92.0816 128.451 90.8323Z" fill="black"/>
<path d="M0.77832 186.449C1.3203 185.907 1.7655 185.481 2.11392 185.171C3.52694 183.855 4.75608 182.635 5.80133 181.513C6.84658 180.39 7.76602 179.18 8.55963 177.883C9.35325 176.567 9.75006 175.338 9.75006 174.196C9.75006 172.783 9.44035 171.718 8.82095 171.002C8.20154 170.267 7.44663 169.899 6.55624 169.899C5.29806 169.899 4.26249 170.315 3.44952 171.147C2.63654 171.98 2.08488 173.257 1.79454 174.98H0.77832C0.77832 173.954 0.817033 173.122 0.894459 172.483C0.971885 171.844 1.16545 171.322 1.47515 170.915C2.01714 170.257 2.80107 169.705 3.82697 169.26C4.85286 168.815 5.95618 168.592 7.13693 168.592C8.89837 168.592 10.4469 168.999 11.7825 169.812C13.1374 170.625 13.8149 172.086 13.8149 174.196C13.8149 175.512 13.3504 176.858 12.4213 178.232C11.5115 179.606 10.4662 180.845 9.2855 181.948C8.12411 183.032 6.75948 184.194 5.1916 185.432C4.26249 186.168 3.6334 186.7 3.30434 187.029H9.31454C10.4759 187.029 11.3663 186.758 11.9857 186.216C12.6245 185.655 12.9439 184.861 12.9439 183.836H13.8149V186.013C13.8149 187.562 12.9923 188.336 11.347 188.336H0.77832V186.449Z" fill="black"/>
<path d="M23.7757 188.917C18.9365 188.917 16.517 185.529 16.517 178.754C16.517 175.29 17.1944 172.735 18.5494 171.089C19.9044 169.425 21.9368 168.592 24.6467 168.592C25.6532 168.592 26.7566 168.757 27.9567 169.086C28.4406 169.221 28.8858 169.386 29.2923 169.579L29.118 170.392L27.7824 170.16C26.6017 169.986 25.75 169.899 25.2274 169.899C23.7369 169.899 22.5659 170.509 21.7142 171.728C20.8625 172.928 20.4367 174.738 20.4367 177.158C20.7464 176.906 21.1141 176.674 21.54 176.461C22.4691 175.996 23.4563 175.764 24.5015 175.764C26.6695 175.764 28.2277 176.345 29.1761 177.506C30.1246 178.648 30.5988 180.274 30.5988 182.384C30.5988 183.545 30.3375 184.629 29.8149 185.636C29.2923 186.623 28.5083 187.417 27.4631 188.017C26.4372 188.617 25.208 188.917 23.7757 188.917ZM23.7757 187.61C24.6854 187.61 25.3919 187.116 25.8952 186.129C26.4178 185.123 26.6791 183.874 26.6791 182.384C26.6791 180.603 26.4372 179.277 25.9533 178.406C25.4887 177.516 24.7144 177.07 23.6305 177.07C23.1079 177.07 22.6046 177.177 22.1207 177.39C21.6368 177.603 21.2303 177.835 20.9012 178.087C20.5915 178.338 20.4367 178.493 20.4367 178.551C20.4367 181.668 20.727 183.961 21.3077 185.432C21.8884 186.884 22.711 187.61 23.7757 187.61Z" fill="black"/>
<path d="M63.3375 189.643C61.247 189.643 59.7372 189.159 58.8081 188.191C57.8984 187.204 57.4435 185.607 57.4435 183.4V173.122L51.0849 188.336H50.1267L42.3454 172.541V188.336H40.8937V169.173H44.4359L51.4623 183.429L57.4144 169.173H61.218V183.4C61.218 185.22 61.3729 186.555 61.6826 187.407C61.9923 188.259 62.5439 188.762 63.3375 188.917V189.643Z" fill="black"/>
<path d="M69.4748 188.626C67.9069 188.626 66.6874 188.278 65.8164 187.581C64.9647 186.865 64.5389 185.907 64.5389 184.707C64.5389 183.739 64.7615 182.935 65.2066 182.297C65.6712 181.658 66.4745 181.174 67.6165 180.845C68.7586 180.516 70.3458 180.351 72.3782 180.351H72.8138C72.8138 178.667 72.5815 177.477 72.1169 176.78C71.6524 176.064 70.9652 175.706 70.0555 175.706C69.3006 175.706 68.6811 175.89 68.1972 176.257C67.7133 176.625 67.3649 177.312 67.152 178.319H65.5551C65.5551 177.661 65.5938 177.099 65.6712 176.635C65.768 176.17 65.9712 175.764 66.2809 175.415C66.881 174.738 68.3327 174.399 70.6362 174.399C72.5718 174.399 74.0429 174.912 75.0494 175.938C76.0753 176.945 76.5883 178.464 76.5883 180.497V188.336H74.1203L73.1041 187.029H72.9589C72.7847 187.3 72.5137 187.571 72.146 187.842C71.4878 188.365 70.5974 188.626 69.4748 188.626ZM70.3458 187.175C70.7523 187.175 71.1007 187.097 71.3911 186.942C71.6814 186.768 71.9621 186.536 72.2331 186.245C72.4847 185.974 72.6783 185.655 72.8138 185.287V181.658H72.3782C71.0039 181.658 70.0071 181.91 69.3877 182.413C68.7682 182.897 68.4585 183.661 68.4585 184.707C68.4585 185.5 68.6231 186.11 68.9521 186.536C69.2812 186.962 69.7458 187.175 70.3458 187.175Z" fill="black"/>
<path d="M89.163 174.98C89.5115 175.232 89.7631 175.512 89.918 175.822C90.0728 176.112 90.1502 176.267 90.1502 176.287L88.6695 177.419C88.534 177.245 88.3597 177.061 88.1468 176.867C87.721 176.48 87.2274 176.287 86.6661 176.287C85.5434 176.287 84.682 176.587 84.082 177.187L84.14 177.622C84.1788 177.971 84.1981 178.29 84.1981 178.58V188.336H80.4236V178.464C80.4236 177.477 80.2881 176.751 80.0171 176.287C79.7655 175.803 79.2332 175.561 78.4202 175.561H78.1298V174.69H81.0043C81.6624 174.69 82.1753 174.777 82.5431 174.951C82.9303 175.106 83.2303 175.377 83.4432 175.764C84.4884 174.854 85.7079 174.399 87.1016 174.399C87.9339 174.399 88.6211 174.593 89.163 174.98Z" fill="black"/>
<path d="M97.9948 188.626C96.5044 188.626 95.2365 188.307 94.1913 187.668C93.146 187.029 92.3524 186.178 91.8104 185.113C91.2878 184.029 91.0265 182.829 91.0265 181.513C91.0265 180.197 91.2878 179.006 91.8104 177.942C92.3524 176.858 93.146 175.996 94.1913 175.357C95.2365 174.719 96.5044 174.399 97.9948 174.399C100.318 174.399 101.818 174.738 102.495 175.415C102.824 175.745 103.028 176.18 103.105 176.722C103.182 177.264 103.221 178.183 103.221 179.48H102.35C102.273 178.261 101.895 177.332 101.218 176.693C100.54 176.035 99.6111 175.706 98.4303 175.706C97.3657 175.706 96.514 176.199 95.8753 177.187C95.2559 178.154 94.9462 179.596 94.9462 181.513C94.9462 185.384 96.156 187.32 98.5755 187.32C99.5046 187.32 100.279 187.116 100.898 186.71C101.537 186.284 102.147 185.684 102.727 184.91L103.628 185.578C103.066 186.449 102.36 187.175 101.508 187.755C100.656 188.336 99.4853 188.626 97.9948 188.626Z" fill="black"/>
<path d="M106.127 172.948C106.127 171.96 105.992 171.234 105.721 170.77C105.45 170.286 104.908 170.044 104.095 170.044H103.804V169.173H107.289C107.985 169.173 108.518 169.289 108.886 169.521C109.253 169.754 109.515 170.141 109.67 170.683C109.824 171.205 109.902 171.96 109.902 172.948V175.503C110.076 175.367 110.376 175.183 110.802 174.951C111.576 174.583 112.341 174.399 113.096 174.399C114.663 174.399 115.97 174.806 117.015 175.619C118.08 176.412 118.612 177.777 118.612 179.713V188.336H114.838V179.858C114.838 178.464 114.586 177.448 114.083 176.809C113.599 176.17 112.979 175.851 112.225 175.851C111.702 175.851 111.15 176.025 110.57 176.374C110.337 176.509 110.115 176.674 109.902 176.867V188.336H106.127V172.948Z" fill="black"/>
<path d="M128.628 186.449C129.17 185.907 129.615 185.481 129.963 185.171C131.376 183.855 132.605 182.635 133.651 181.513C134.696 180.39 135.615 179.18 136.409 177.883C137.203 176.567 137.599 175.338 137.599 174.196C137.599 172.783 137.29 171.718 136.67 171.002C136.051 170.267 135.296 169.899 134.406 169.899C133.147 169.899 132.112 170.315 131.299 171.147C130.486 171.98 129.934 173.257 129.644 174.98H128.628C128.628 173.954 128.666 173.122 128.744 172.483C128.821 171.844 129.015 171.322 129.324 170.915C129.866 170.257 130.65 169.705 131.676 169.26C132.702 168.815 133.805 168.592 134.986 168.592C136.748 168.592 138.296 168.999 139.632 169.812C140.987 170.625 141.664 172.086 141.664 174.196C141.664 175.512 141.2 176.858 140.271 178.232C139.361 179.606 138.316 180.845 137.135 181.948C135.973 183.032 134.609 184.194 133.041 185.432C132.112 186.168 131.483 186.7 131.154 187.029H137.164C138.325 187.029 139.216 186.758 139.835 186.216C140.474 185.655 140.793 184.861 140.793 183.836H141.664V186.013C141.664 187.562 140.842 188.336 139.196 188.336H128.628V186.449Z" fill="black"/>
<path d="M151.886 188.917C146.854 188.917 144.337 185.529 144.337 178.754C144.337 171.98 146.854 168.592 151.886 168.592C156.919 168.592 159.435 171.98 159.435 178.754C159.435 185.529 156.919 188.917 151.886 188.917ZM151.886 187.61C153.106 187.61 153.986 186.904 154.528 185.491C155.09 184.078 155.37 181.832 155.37 178.754C155.37 175.677 155.09 173.431 154.528 172.018C153.986 170.605 153.106 169.899 151.886 169.899C150.667 169.899 149.776 170.605 149.215 172.018C148.673 173.431 148.402 175.677 148.402 178.754C148.402 181.832 148.673 184.078 149.215 185.491C149.776 186.904 150.667 187.61 151.886 187.61Z" fill="black"/>
<path d="M161.887 186.449C162.429 185.907 162.874 185.481 163.223 185.171C164.636 183.855 165.865 182.635 166.91 181.513C167.955 180.39 168.875 179.18 169.668 177.883C170.462 176.567 170.859 175.338 170.859 174.196C170.859 172.783 170.549 171.718 169.93 171.002C169.31 170.267 168.555 169.899 167.665 169.899C166.407 169.899 165.371 170.315 164.558 171.147C163.745 171.98 163.194 173.257 162.903 174.98H161.887C161.887 173.954 161.926 173.122 162.003 172.483C162.081 171.844 162.274 171.322 162.584 170.915C163.126 170.257 163.91 169.705 164.936 169.26C165.962 168.815 167.065 168.592 168.246 168.592C170.007 168.592 171.556 168.999 172.891 169.812C174.246 170.625 174.924 172.086 174.924 174.196C174.924 175.512 174.459 176.858 173.53 178.232C172.62 179.606 171.575 180.845 170.394 181.948C169.233 183.032 167.868 184.194 166.3 185.432C165.371 186.168 164.742 186.7 164.413 187.029H170.423C171.585 187.029 172.475 186.758 173.095 186.216C173.733 185.655 174.053 184.861 174.053 183.836H174.924V186.013C174.924 187.562 174.101 188.336 172.456 188.336H161.887V186.449Z" fill="black"/>
<path d="M177.539 186.449C178.081 185.907 178.526 185.481 178.874 185.171C180.287 183.855 181.516 182.635 182.562 181.513C183.607 180.39 184.526 179.18 185.32 177.883C186.114 176.567 186.51 175.338 186.51 174.196C186.51 172.783 186.201 171.718 185.581 171.002C184.962 170.267 184.207 169.899 183.317 169.899C182.058 169.899 181.023 170.315 180.21 171.147C179.397 171.98 178.845 173.257 178.555 174.98H177.539C177.539 173.954 177.577 173.122 177.655 172.483C177.732 171.844 177.926 171.322 178.236 170.915C178.778 170.257 179.561 169.705 180.587 169.26C181.613 168.815 182.717 168.592 183.897 168.592C185.659 168.592 187.207 168.999 188.543 169.812C189.898 170.625 190.575 172.086 190.575 174.196C190.575 175.512 190.111 176.858 189.182 178.232C188.272 179.606 187.227 180.845 186.046 181.948C184.884 183.032 183.52 184.194 181.952 185.432C181.023 186.168 180.394 186.7 180.065 187.029H186.075C187.236 187.029 188.127 186.758 188.746 186.216C189.385 185.655 189.704 184.861 189.704 183.836H190.575V186.013C190.575 187.562 189.753 188.336 188.107 188.336H177.539V186.449Z" fill="black"/>
<line x1="215.5" y1="2.5" x2="215.5" y2="189.5" stroke="black" stroke-width="5" stroke-linecap="round"/>
</svg>
