<svg width="261" height="51" viewBox="0 0 261 51" fill="none" xmlns="http://www.w3.org/2000/svg">
<path d="M5.84 10.84C5.84 8.392 5.504 6.592 4.832 5.44C4.16 4.24 2.816 3.64 0.8 3.64H0.08V1.48H31.832C35.912 1.48 37.952 3.4 37.952 7.24V13.36H35.792C35.792 10.384 35.024 8.2 33.488 6.808C32 5.416 29.768 4.72 26.792 4.72H15.2V22.72H33.92V25.96H15.2V45.76H27.512C30.248 45.76 32.528 45.16 34.352 43.96C36.176 42.712 37.688 40.576 38.888 37.552L40.832 38.272L38.744 43.96C38.12 45.688 37.376 46.96 36.512 47.776C35.648 48.592 34.304 49 32.48 49H5.84V10.84ZM46.9239 9.904C45.8199 7.264 44.7159 5.392 43.6119 4.288C42.5559 3.184 41.2839 2.536 39.7959 2.344V0.903997L42.8199 0.759999C45.9879 0.759999 48.7719 1.36 51.1719 2.56C53.5719 3.76 55.5399 6.208 57.0759 9.904L68.4519 36.832L83.6439 1.48H87.3159L66.5799 49.72H63.6999L46.9239 9.904ZM94.715 10.84C94.715 8.392 94.379 6.592 93.707 5.44C93.035 4.24 91.691 3.64 89.675 3.64H88.955V1.48H120.707C124.787 1.48 126.827 3.4 126.827 7.24V13.36H124.667C124.667 10.384 123.899 8.2 122.363 6.808C120.875 5.416 118.643 4.72 115.667 4.72H104.075V22.72H122.795V25.96H104.075V45.76H116.387C119.123 45.76 121.403 45.16 123.227 43.96C125.051 42.712 126.563 40.576 127.763 37.552L129.707 38.272L127.619 43.96C126.995 45.688 126.251 46.96 125.387 47.776C124.523 48.592 123.179 49 121.355 49H94.715V10.84ZM141.703 13.36V49H138.103V10.12C138.103 8.104 137.599 6.52 136.591 5.368C135.631 4.216 133.975 3.64 131.623 3.64H131.263V1.48H136.303C138.991 1.48 141.175 1.84 142.855 2.56C144.583 3.232 146.023 4.312 147.175 5.8L171.943 34.6V1.48H175.543V49.216H172.231L141.703 13.36ZM197.602 4.72H192.49C189.802 4.72 187.738 5.392 186.298 6.736C184.906 8.08 184.21 10.288 184.21 13.36H182.05V7.24C182.05 3.4 184.09 1.48 188.17 1.48H222.01V4.72H206.962V49H197.602V4.72ZM241.969 50.224C239.281 50.224 236.689 49.864 234.193 49.144C231.697 48.472 229.657 47.488 228.073 46.192C226.489 44.848 225.697 43.312 225.697 41.584V33.16H227.713C228.433 38.056 229.945 41.584 232.249 43.744C234.553 45.904 237.769 46.984 241.897 46.984C244.681 46.984 246.889 46.384 248.521 45.184C250.153 43.984 250.969 42.256 250.969 40C250.969 38.08 250.369 36.448 249.169 35.104C247.969 33.76 246.097 32.296 243.553 30.712L234.697 25.384C231.481 23.512 229.177 21.568 227.785 19.552C226.441 17.536 225.769 15.184 225.769 12.496C225.769 8.704 227.209 5.704 230.089 3.496C233.017 1.288 236.953 0.183998 241.897 0.183998C244.585 0.183998 247.177 0.543997 249.673 1.264C252.169 1.936 254.209 2.944 255.793 4.288C257.377 5.584 258.169 7.096 258.169 8.824V17.248H256.153C255.337 12.352 253.825 8.824 251.617 6.664C249.409 4.504 246.433 3.424 242.689 3.424C240.097 3.424 238.033 4.048 236.497 5.296C235.009 6.544 234.265 8.248 234.265 10.408C234.265 12.28 234.841 13.84 235.993 15.088C237.193 16.288 239.113 17.656 241.753 19.192L250.609 24.448C253.969 26.416 256.369 28.336 257.809 30.208C259.297 32.032 260.041 34.24 260.041 36.832C260.041 41.008 258.457 44.296 255.289 46.696C252.169 49.048 247.729 50.224 241.969 50.224Z" fill="url(#paint0_linear_182_7324)"/>
<defs>
<linearGradient id="paint0_linear_182_7324" x1="359" y1="15.5" x2="-0.999999" y2="15.5" gradientUnits="userSpaceOnUse">
<stop stop-color="#FFD9A8"/>
<stop offset="1" stop-color="#F41A01"/>
</linearGradient>
</defs>
</svg>
