<svg width="1440" height="505" viewBox="0 0 1440 505" fill="none" xmlns="http://www.w3.org/2000/svg">
<path d="M850.494 87.8337C415.919 -1.6076 150.11 -18.9224 62.5 21.5001L0 87.8337V360H1580.27C1580.82 310.432 1581.59 211.297 1580.27 211.297C1578.96 211.297 1162.16 151.979 850.494 87.8337Z" fill="#93C626"/>
<path d="M846.494 193.979C411.919 104.537 146.11 87.2227 58.5 127.645L-4 193.979V466.145H1576.27C1576.82 416.577 1577.59 317.442 1576.27 317.442C1574.96 317.442 1158.16 258.124 846.494 193.979Z" fill="#93C626"/>
<path d="M855.494 209.979C420.919 120.537 155.11 103.223 67.5 143.645L5 209.979V482.145H1585.27C1585.82 432.577 1586.59 333.442 1585.27 333.442C1583.96 333.442 1167.16 274.124 855.494 209.979Z" fill="#93C626"/>
<path d="M1573.12 429.768C1555.66 434.45 1541.5 441.483 1532.39 449.988L1531.06 429.708C1523.15 436.845 1517.75 444.557 1515.1 452.531C1513.42 442.47 1509.09 432.549 1502.22 423.002C1500.93 431.119 1499.65 439.236 1498.39 447.353C1495.76 440.262 1493.13 433.18 1490.5 426.109C1487.88 433.529 1485.25 440.952 1482.62 448.379C1476.01 440.275 1469.42 432.175 1462.85 424.078C1464.03 428.963 1462.93 433.914 1459.61 438.57C1456.29 443.227 1450.85 447.474 1443.66 451.003L1450.49 439.843L1404.54 448.429L1419.3 435.831C1405.4 439.136 1392.96 443.67 1382.62 449.193C1384.1 442.969 1388.98 437.04 1396.78 432L1356.12 451.053C1360.56 444.838 1367.3 439.05 1376 433.961L1342.8 450.842C1345.24 445.48 1347.69 440.088 1350.15 434.665C1330.9 439.801 1315.79 447.859 1307.23 457.559C1305.51 450.735 1303.77 443.901 1302.03 437.058C1294.32 437.63 1287.1 439.223 1281.2 441.657C1275.3 444.091 1270.96 447.267 1268.66 450.822C1261.49 447.079 1256.7 442.441 1254.85 437.45C1250.81 439.763 1248.71 442.707 1248.95 445.715L1244.02 427.285C1237.75 428.105 1232.07 429.717 1227.56 431.951C1223.06 434.184 1219.9 436.956 1218.42 439.974L1214.95 427.396C1208.47 428.753 1202.92 430.955 1198.95 433.75C1194.99 436.545 1192.75 439.818 1192.52 443.191C1183.4 433.35 1182.64 422.205 1190.41 412.103C1181.94 414.492 1174.82 417.833 1169.68 421.833C1164.54 425.834 1161.52 430.374 1160.9 435.057C1153.29 428.233 1145.7 421.4 1138.11 414.556L1147.83 435.53C1141.42 427.027 1128.93 419.874 1112.56 415.33C1119.05 421.059 1123.09 427.343 1124.45 433.82C1111.85 427.878 1097.11 423.066 1080.94 419.614C1083.61 423.414 1086.29 427.221 1088.99 431.035L1065.68 416.828C1062.46 420.1 1059.85 423.502 1057.9 426.993C1056.07 423.163 1053.68 418.95 1046.54 416.939C1039.39 414.928 1027.57 417.723 1029.97 421.464L1017.95 410.042L1016.06 426.31L997.906 409.569C1001.75 417.103 1002.54 424.919 1000.22 432.594L980.621 408.654C971.309 414.117 964.727 420.519 961.374 427.375C960.531 422.75 959.702 418.122 958.887 413.49C949.713 416.571 943.149 421.114 940.379 426.3C938.749 422.077 937.111 417.851 935.467 413.621L907.136 423.675C911.719 419.202 914.023 414.276 913.86 409.298C904.313 411.483 895.958 414.694 889.45 418.678C891.249 412.307 897.064 406.346 906.124 401.586C888.87 402.963 873.377 407.439 862.825 414.094C865.835 407.524 871.615 401.315 879.816 395.845C866.653 398.596 855.729 403.319 848.702 409.298C849.489 404.606 850.276 399.914 851.063 395.222C846.648 396.7 843.026 398.654 840.491 400.925C837.956 403.196 836.581 405.72 836.475 408.292C834.663 402.997 832.836 397.702 830.995 392.407C827.25 393.359 824.251 394.863 822.446 396.695C820.642 398.527 820.128 400.589 820.982 402.571L798.574 387.631L783.565 393.05C783.565 393.05 773.214 386.957 771.085 383.096C770.685 386.716 770.263 390.345 769.863 393.975L751.987 380.371C747.658 384.004 743.323 387.631 738.98 391.25C738.025 386.732 737.069 382.221 736.114 377.717L713.326 387.178V376.903C705.205 380.427 699.46 385.021 696.82 390.104C697.634 384.014 696.36 377.901 693.047 372.006C684.534 374.457 677.429 377.877 672.368 381.96C667.547 374.587 662.713 367.24 657.865 359.921C649.908 364.128 644.082 369.15 640.832 374.6L637.101 351.676C622.53 356.143 611.867 362.987 607.104 370.93C602.601 360.814 603.912 350.306 610.898 340.516C602.51 343.877 596.034 348.193 592.069 353.065C588.105 357.937 586.78 363.206 588.216 368.387C584.512 359.432 577.242 350.899 566.799 343.251C569.898 350.917 570.467 358.767 568.485 366.517L556.386 352.993L540.006 363.138C540.975 360.118 540.366 357.031 538.236 354.15C533.408 355.01 529 356.332 525.284 358.035C521.568 359.738 518.622 361.787 516.629 364.053C515.448 358.188 514.261 352.327 513.066 346.468C501.855 348.61 491.614 351.76 482.901 355.748C484.053 352.102 485.205 348.452 486.358 344.799L463.971 353.496C470.042 351.194 460.366 346.317 453.262 347.826C446.158 349.334 443.797 353.496 442.322 357.136L437.515 347.313C425.793 348.001 414.776 350.355 405.895 354.069C412.536 350.048 401.258 343.834 390.76 344.769C380.262 345.704 373.748 350.802 371.303 355.829C362.871 350.701 354.439 345.577 346.007 340.456C342.71 342.86 341.382 345.759 342.276 348.6C339.845 344.813 337.428 341.019 335.024 337.218C332.012 338.743 329.839 340.599 328.698 342.622C327.558 344.645 327.486 346.771 328.49 348.811C322.619 342.759 319.384 336.202 318.983 329.537C313.469 330.513 308.608 332.179 304.91 334.36C301.212 336.542 298.813 339.158 297.966 341.934C291.034 335.532 282.139 329.659 271.574 324.51C268.426 328.625 265.292 332.741 262.172 336.856C259.685 332.54 257.204 328.22 254.731 323.896C248.098 326.731 243.405 330.451 241.261 334.574L239.68 325.796C235.456 328.553 233.343 331.918 233.693 335.328L231.585 314.284C222.732 317.306 215.508 321.286 210.505 325.897C213.878 323.243 206.647 319.864 200.197 320.287C194.589 320.649 190.268 322.66 186.537 324.771C186.17 325.143 185.612 325.465 184.914 325.706C185.441 325.394 185.968 325.083 186.537 324.771C188.476 322.76 184.218 319.643 178.906 319.482C172.582 319.291 167.333 321.493 162.78 323.504C163.201 320.729 163.602 317.954 164.023 315.169C149.971 317.932 137.83 322.524 128.989 328.421C126.965 323.132 124.934 317.847 122.896 312.565C111.65 317.133 103.694 323.27 100.151 330.11L96.2302 321.061L85.8799 330.049C78.5792 322.173 73.8721 313.807 71.925 305.245C58.6671 311.958 51.4809 320.89 51.92 330.11L39.525 311.097C33.0981 317.207 30.7022 324.102 32.6529 330.874C23.6628 324.537 19.2247 316.98 20.0049 309.338C11.4616 315.729 4.73451 322.633 0 329.868L0 504.814H1581V435.731C1572.93 439.81 1565.82 444.298 1559.79 449.113C1560.64 442.223 1565.23 435.556 1573.12 429.768V429.768Z" fill="#FFF9ED"/>
</svg>
