<svg width="27" height="207" viewBox="0 0 27 207" fill="none" xmlns="http://www.w3.org/2000/svg">
<path d="M13.8047 183.514L13.3353 22.5746" stroke="#FF687C" stroke-width="5" stroke-linecap="round"/>
<path d="M25.5154 185.318C25.5276 184.521 24.938 183.924 24.2661 183.918C23.5942 183.912 22.9865 184.497 22.9742 185.295C22.962 186.092 23.5517 186.689 24.2235 186.695C24.8954 186.701 25.5032 186.116 25.5154 185.318Z" stroke="#910B16"/>
<path d="M1.81974 185.097C2.61631 184.475 4.79771 183.363 7.15074 183.888C10.092 184.545 15.3169 190.259 19.9033 199.115M23.676 184.042C20.7476 182.546 13.1784 183.441 6.32893 198.988" stroke="#910B16"/>
<path d="M11.0491 199.032C10.5384 201.546 12.3394 204.71 13.3037 205.978C15.1032 204.106 15.732 201.594 15.7706 199.076C15.8015 197.062 14.2483 195.705 13.4678 195.278C12.8744 195.482 11.5599 196.519 11.0491 199.032Z" stroke="#910B16"/>
<path d="M23.6134 19.8354C23.6078 20.6329 24.2024 21.2262 24.8744 21.2291C25.5463 21.232 26.1492 20.6437 26.1547 19.8462C26.1603 19.0486 25.5658 18.4553 24.8938 18.4524C24.2219 18.4496 23.619 19.0378 23.6134 19.8354Z" stroke="#910B16"/>
<path d="M1.17591 21.3651C1.17032 22.1627 1.7649 22.756 2.43685 22.7589C3.10881 22.7617 3.71166 22.1735 3.71725 21.3759C3.72283 20.5784 3.12825 19.9851 2.4563 19.9822C1.78435 19.9793 1.18149 20.5676 1.17591 21.3651Z" stroke="#910B16"/>
<path d="M24.4069 21.8311C23.6156 22.4572 21.4435 23.581 19.0861 23.0674C16.1394 22.4254 10.8671 16.7378 6.20702 7.90556M2.55989 22.9971C5.50072 24.4784 13.0623 23.5454 19.7821 7.96331" stroke="#910B16"/>
<path d="M15.53 7.94406C16.0198 5.42829 14.1925 2.27321 13.2176 1.01014C11.4337 2.89094 10.8259 5.4062 10.8082 7.92397C10.7941 9.93819 12.3587 11.2877 13.1427 11.7107C13.7344 11.5034 15.0402 10.4598 15.53 7.94406Z" stroke="#910B16"/>
<path d="M3.07011 186.368C3.08234 185.571 2.49268 184.974 1.82081 184.968C1.14893 184.962 0.54116 185.547 0.528931 186.344C0.516702 187.142 1.10635 187.738 1.77823 187.745C2.45011 187.751 3.05788 187.166 3.07011 186.368Z" stroke="#910B16"/>
</svg>
