<svg width="101" height="120" viewBox="0 0 101 120" fill="none" xmlns="http://www.w3.org/2000/svg">
<g clip-path="url(#clip0_409_8794)">
<path d="M47.547 2.19867C50.7502 2.11596 53.9695 2.12605 57.1344 2.65454C63.442 3.53804 69.5559 5.74478 75.0203 9.00648C82.1105 13.2646 88.1075 19.3463 92.17 26.5575C97.2874 35.4531 99.3267 46.0531 97.9692 56.2174C97.0736 63.2854 94.5038 70.1255 90.5926 76.0781C84.2588 85.7401 74.3789 93.0583 63.2201 96.1082C51.1738 99.5313 37.7921 97.9882 26.8734 91.842C14.8735 85.25 5.87912 73.3126 3.15398 59.8644C1.88924 54.3738 1.82873 48.6512 2.58112 43.0839C3.26089 39.2776 4.14439 35.4773 5.6996 31.9231C10.2886 20.6836 19.3515 11.3766 30.4256 6.41649C32.8522 5.28286 35.4139 4.47802 37.9757 3.71151C41.1184 2.93694 44.3196 2.41047 47.547 2.19867ZM45.546 4.28035C43.7568 4.50425 41.9616 4.72613 40.2087 5.16183C38.5728 5.57938 36.9066 5.90212 35.3373 6.54558C31.9041 7.69938 28.6243 9.2909 25.5825 11.2515C15.9426 17.2949 8.71521 27.0558 5.73591 38.037C5.2518 40.0905 4.65674 42.1318 4.50747 44.2458C3.95882 48.2558 4.01731 52.3405 4.53572 56.3526C5.8993 66.293 10.6295 75.7473 17.8185 82.7568C21.6712 86.664 26.3026 89.7623 31.2708 92.0699C38.0846 95.1561 45.6469 96.5479 53.1102 96.1485C54.1128 95.9388 55.1435 96.0295 56.146 95.8399C61.2917 95.1924 66.3386 93.7018 70.976 91.3679C81.931 85.9862 90.5603 76.0882 94.3646 64.4877C94.7801 63.1806 95.3207 61.9118 95.6455 60.5764C96.1114 58.5815 96.3958 56.5462 96.5451 54.5049C96.5592 53.3007 96.5693 52.0964 96.7105 50.8982C96.8154 49.3491 96.5027 47.81 96.5391 46.2568C96.1276 42.1963 95.3389 38.148 93.8704 34.3295C90.3565 24.6756 83.4681 16.3045 74.7198 10.9308C66.1006 5.54509 55.6437 3.19513 45.546 4.28035Z" fill="#FEFEFE"/>
<path d="M14.0808 40.5302C15.2447 40.0622 16.5679 41.7223 15.6219 42.6663C15.0268 43.4954 13.6068 43.3179 13.2255 42.3718C12.7556 41.6477 13.4555 40.861 14.0808 40.5302Z" fill="#FEFEFE"/>
<path d="M20.2915 41.2866C22.0363 40.4051 24.1947 40.4858 25.9314 41.3471C27.1639 41.8837 28.2531 42.9306 28.5617 44.2719C35.9041 44.3446 43.2505 44.3022 50.5928 44.3224C50.5767 44.871 50.5767 45.4217 50.5969 45.9704C50.2398 45.9905 49.8828 46.0047 49.5258 46.0228C49.5823 49.5367 49.4451 53.0444 49.429 56.5563C48.5858 56.5986 47.7426 56.5865 46.8995 56.5684C46.956 54.7106 46.9459 52.8528 46.9681 50.9971C46.1209 51.0051 45.2737 50.9749 44.4285 50.995C43.9242 51.5417 43.5389 52.2598 42.7744 52.4857C41.6449 52.9779 40.483 51.8059 40.5011 50.6965C40.3418 49.7323 41.314 48.9537 42.2056 48.9497C43.8516 48.9194 45.5117 49.0768 47.1516 48.8549C47.1375 47.9068 47.1678 46.9568 47.2242 46.0107C44.6403 46.0369 42.0543 46.0006 39.4704 46.0511C39.4623 49.5871 39.2788 53.1211 39.3574 56.6612C38.5042 56.6289 37.653 56.6329 36.7997 56.6591C36.7816 55.7171 36.7997 54.7751 36.8199 53.8331C35.5672 54.4726 33.9919 54.6299 32.7291 53.936C31.3071 53.113 30.2945 51.6667 29.9556 50.0631C30.9178 49.7666 31.9848 49.1453 32.1724 48.0642C32.3257 47.4509 31.9949 46.8478 31.5673 46.4303C30.8875 45.6557 29.7579 46.1096 28.8663 45.9946C28.9248 47.1201 28.9853 48.2538 28.8684 49.3793C27.8053 49.3289 26.7423 49.3975 25.6793 49.4015C25.0358 49.4318 24.3359 49.2946 23.7731 49.6879C23.8013 49.9421 23.8356 50.1963 23.8699 50.4504C25.5804 50.8902 27.4564 50.7187 29.0459 51.578C29.4412 51.7858 29.8446 52.0782 30.004 52.5139C30.1815 54.0651 29.2758 55.6929 27.8154 56.29C25.7378 57.1957 23.3031 56.5885 21.5119 55.3178C21.8911 54.8236 22.3268 54.3737 22.7201 53.8896C24.0918 54.4201 25.7317 54.9849 27.1034 54.1498C27.5814 53.9764 27.3737 53.4156 27.3737 53.0384C25.8043 52.5502 24.0252 52.6713 22.585 51.7716C21.8346 51.2956 21.1327 50.4141 21.4776 49.4822C21.4917 48.5906 22.1311 47.8584 22.9259 47.5236C23.878 47.0152 24.9854 47.1847 26.0202 47.1766C26.0282 46.7893 26.0343 46.4 26.0444 46.0147C24.0293 45.9885 22.0141 46.0127 20.001 46.0006C20.0353 49.5447 19.9849 53.0888 20.0091 56.6309C19.2487 56.6491 18.4882 56.641 17.7298 56.6773C17.645 53.1493 17.6854 49.6173 17.6692 46.0874C17.054 45.8473 16.3158 46.0652 15.6521 45.9764C15.644 47.0455 15.7187 48.1186 15.6077 49.1837C13.758 49.1736 11.872 49.0687 10.0465 49.4076C10.0142 49.7767 9.84681 50.402 10.3733 50.4827C11.8982 50.6521 13.5684 50.1277 14.9905 50.8861C16.0757 51.465 16.223 52.8347 16.2109 53.936C16.2492 54.7409 15.757 55.4347 15.287 56.0399C14.6476 56.7822 13.3586 56.4736 12.8483 57.3551C12.9189 57.8533 13.3929 58.1296 13.7459 58.4282C13.2739 58.9466 12.8725 59.5215 12.3864 60.0278C11.4182 59.3258 10.6032 58.408 10.0969 57.3187C9.11661 57.2522 8.07376 56.7398 7.65621 55.8119C7.51299 55.1483 7.39802 54.2789 8.00719 53.8069C8.54173 53.2542 9.42523 53.343 10.0909 53.577C10.7767 53.7908 11.1237 54.5048 11.7772 54.7731C12.7212 54.9042 13.4655 54.1337 13.754 53.3026C12.5941 52.1045 10.805 52.4756 9.33648 52.0883C8.39851 51.9169 7.71067 51.0334 7.66428 50.0974C7.64814 49.4197 7.56746 48.5785 8.18672 48.1267C9.41918 46.9144 11.2588 47.0052 12.8604 46.983C12.818 46.6582 12.9068 46.2951 12.7434 45.9986C11.0934 45.9966 9.44137 45.9784 7.79136 46.0107C7.79338 45.4399 7.79136 44.869 7.78531 44.3002C11.1055 44.2699 14.4277 44.3264 17.7459 44.2578C18.0888 42.9527 19.0792 41.8554 20.2915 41.2866ZM20.1705 44.3204C22.119 44.3688 24.0676 44.2982 26.0161 44.2962C25.7761 43.0395 24.4529 42.3678 23.2607 42.4303C21.9698 42.3032 20.4226 42.9043 20.1705 44.3204ZM34.3368 46.0269C34.5748 47.1484 34.7987 48.3788 34.3227 49.4701C34.0463 50.1821 33.3847 50.6199 32.8724 51.1463C33.1769 51.5921 33.5441 52.1549 34.1512 52.1509C35.1679 52.2981 36.1683 51.5639 36.4911 50.6158C36.949 49.1231 36.7614 47.5498 36.7916 46.0147C35.9727 46.0188 35.1557 46.0228 34.3368 46.0269Z" fill="#FEFEFE"/>
<path d="M66.2699 40.9094C66.7096 41.214 67.1756 41.4742 67.6557 41.7102C67.1292 42.7107 66.0904 43.3239 65.0374 43.6346C63.4278 44.1893 61.5155 43.213 60.9346 41.6316C61.3541 41.3935 61.8201 41.0849 62.3103 41.0829C62.7742 41.4016 63.218 41.8151 63.807 41.8676C64.7409 42.0552 65.6365 41.561 66.2699 40.9094Z" fill="#FEFEFE"/>
<path d="M53.3038 44.27C55.4863 43.4732 58.3446 45.0385 58.4576 47.4631C58.3749 48.5261 58.2478 49.7404 57.3885 50.4827C57.8201 50.9043 58.3849 51.3017 58.4757 51.9431C58.6451 52.8771 58.8569 53.9603 58.151 54.7369C56.6038 56.996 52.8519 56.9174 51.2483 54.7712C50.8852 54.3012 50.7864 53.696 50.6392 53.1353C51.1455 52.8145 51.6497 52.4898 52.1581 52.1691C52.4183 52.865 52.7309 53.6395 53.441 53.9885C54.0441 54.3556 54.9276 54.3597 55.3956 53.7707C56.0652 53.1615 55.8373 52.1852 55.8131 51.3884C55.4379 50.394 54.1913 50.8458 53.3885 50.7248C53.4087 50.2629 53.4309 49.803 53.449 49.3431C54.625 49.569 55.5932 48.51 55.8514 47.4611C55.799 46.8136 55.1434 46.3799 54.5221 46.4787C53.6628 46.2871 53.3179 47.4107 52.5353 47.4369C52.0915 47.219 51.7264 46.8701 51.331 46.5796C51.4198 45.4823 52.2448 44.5423 53.3038 44.27Z" fill="#FEFEFE"/>
<path d="M59.0002 44.2861C70.391 44.27 81.7817 44.2639 93.1704 44.2901C93.1462 44.8569 93.1462 45.4258 93.1644 45.9926C92.4987 46.0027 91.8351 45.9845 91.1714 45.9805C91.2057 49.5185 91.1533 53.0546 91.1956 56.5926C90.3727 56.6128 89.5456 56.6531 88.7287 56.5482C88.7771 54.753 88.6541 52.9577 88.6399 51.1625C88.3938 51.2169 88.1599 51.3037 87.94 51.4247C86.766 52.0702 85.4811 52.4958 84.3475 53.2159C83.9844 52.5987 83.706 51.9391 83.3672 51.3077C83.7827 51.0475 84.291 50.8821 84.6117 50.4968C84.3031 50.0571 83.7423 49.7283 83.1957 49.8856C82.3485 50.1459 81.6002 50.9769 81.7151 51.9068C81.7192 53.1655 82.8851 53.9017 83.6617 54.7207C83.3631 55.3541 83.0343 55.9713 82.7035 56.5886C81.2008 55.693 79.9239 54.3112 79.4237 52.6088C79.1957 51.4267 79.228 50.1015 79.9562 49.0869C80.6218 47.8968 82.0318 47.2714 83.3651 47.3723C84.7993 47.3824 86.0782 48.1287 87.2017 48.9517C87.6314 48.75 88.0711 48.5685 88.5189 48.4111C88.5108 47.6103 88.5028 46.8095 88.5613 46.0107C84.993 45.9643 81.4226 46.0047 77.8543 45.9946C77.9088 49.5266 77.7958 53.0606 77.8785 56.5906C77.0757 56.643 76.2689 56.6208 75.4661 56.6108C75.4681 55.6183 75.4943 54.6239 75.5225 53.6314C73.8665 54.0671 71.8937 54.4786 70.401 53.3753C69.213 52.6108 69.0677 51.0798 68.8741 49.809C70.4293 49.8413 71.5286 47.6507 70.401 46.5191C69.5962 45.6113 68.2831 46.1156 67.2342 45.9301C67.214 49.4802 67.22 53.0344 67.2483 56.5865C66.4576 56.5684 65.6668 56.5724 64.8781 56.52C64.9629 53.0102 64.866 49.4984 64.9266 45.9865C64.3133 45.9845 63.7001 45.9785 63.0869 45.9684C63.1535 49.5004 63.0627 53.0344 63.1353 56.5684C62.2841 56.637 61.4288 56.6128 60.5756 56.5966C60.6159 54.6541 60.6381 52.7096 60.5877 50.7671C59.9664 50.8034 59.3452 50.8176 58.7239 50.8095C58.7279 50.041 58.7279 49.2745 58.7642 48.5079C59.3855 48.51 60.0068 48.51 60.6301 48.5039C60.6159 47.6628 60.5958 46.8236 60.626 45.9825C60.0814 45.9926 59.5388 46.0067 58.9962 46.0087C59.0103 45.4338 59.0184 44.859 59.0002 44.2861ZM72.864 45.9724C73.1403 46.9003 73.0838 47.8907 73.0213 48.8448C72.8801 49.7767 72.2265 50.4585 71.4641 50.9426C72.039 52.405 74.5906 52.4877 75.1574 50.9668C75.7807 49.3793 75.4338 47.6386 75.5185 45.9785C74.633 45.9886 73.7495 45.9865 72.864 45.9724Z" fill="#FEFEFE"/>
<path d="M45.7438 0.223901C47.2526 0.110942 48.7735 0.131113 50.2843 0C52.1018 0.165405 53.9373 0.062531 55.7427 0.363083C62.7482 1.13161 69.5903 3.36861 75.6558 6.95507C78.8287 8.7846 81.7475 11.0398 84.4767 13.4744C85.6265 14.6827 86.9154 15.7619 87.9441 17.079C90.5301 19.8808 92.6441 23.0921 94.522 26.4022C95.0101 27.4693 95.6536 28.4577 96.0429 29.5711C97.3621 32.1853 98.1508 35.0154 98.9839 37.8091C99.6132 40.5262 100.065 43.2836 100.347 46.0571C100.46 48.7137 100.448 51.3723 100.347 54.0288C100.035 56.9093 99.5951 59.7837 98.8871 62.5976C98.3727 64.0015 98.1044 65.4841 97.5336 66.8679C94.8044 74.4724 90.163 81.3751 84.1741 86.7991C82.9518 87.9388 81.6446 88.9817 80.3456 90.0326C78.857 90.9625 77.5116 92.1244 75.9281 92.9009C73.1021 94.668 70.03 96.0033 66.9156 97.1692C65.5843 97.5625 64.2711 98.0103 62.9398 98.4017C59.8959 99.0613 56.8339 99.7471 53.7094 99.8177C51.771 100.05 49.8103 100.019 47.8638 99.9286C46.7745 99.7451 45.657 99.8762 44.5738 99.6523C43.8739 99.5292 43.1558 99.5756 42.4619 99.4122C40.2995 98.9241 38.0787 98.6518 35.9748 97.9317C33.6491 97.1591 31.283 96.443 29.1085 95.2933C27.2366 94.559 25.5503 93.4496 23.7853 92.5056C20.9068 90.6014 18.0808 88.5903 15.6199 86.1577C9.74606 80.6348 5.22769 73.6696 2.66795 66.0227C2.38757 65.3268 2.13543 64.6188 1.9902 63.8805C0.46323 58.7045 -0.19032 53.2684 0.0477014 47.8766C0.0900611 45.2462 0.582241 42.6502 0.989701 40.0602C2.09105 35.0678 3.81167 30.1904 6.35728 25.7446C6.87972 24.6211 7.6785 23.665 8.25339 22.5717C11.1964 18.3438 14.567 14.3519 18.6819 11.2213C20.5357 9.66407 22.5508 8.31864 24.6123 7.05996C25.5725 6.64241 26.3773 5.94247 27.3617 5.58342C30.5225 3.97173 33.8366 2.63034 37.2839 1.76902C40.0434 0.964188 42.9036 0.613208 45.7438 0.223901ZM47.5471 2.19867C44.3197 2.41047 41.1185 2.93694 37.9758 3.71152C35.414 4.47803 32.8523 5.28286 30.4257 6.41649C19.3516 11.3766 10.2887 20.6837 5.6997 31.9231C4.14449 35.4773 3.26099 39.2776 2.58122 43.0839C1.82883 48.6512 1.88934 54.3738 3.15408 59.8644C5.87922 73.3126 14.8736 85.25 26.8735 91.8419C37.7922 97.9881 51.1739 99.5312 63.2202 96.1082C74.3789 93.0583 84.2588 85.7401 90.5926 76.0781C94.5038 70.1255 97.0737 63.2854 97.9693 56.2174C99.3268 46.0531 97.2875 35.4531 92.17 26.5575C88.1075 19.3463 82.1106 13.2646 75.0204 9.00649C69.556 5.74479 63.4421 3.53805 57.1345 2.65454C53.9696 2.12606 50.7503 2.11597 47.5471 2.19867Z" fill="#02164F"/>
<path d="M45.5461 4.28033C55.6438 3.19511 66.1006 5.54507 74.7198 10.9308C83.4681 16.3044 90.3566 24.6755 93.8704 34.3295C95.3389 38.1479 96.1276 42.1963 96.5391 46.2568C96.5028 47.81 96.8155 49.3491 96.7106 50.8982C96.5694 52.0964 96.5593 53.3006 96.5452 54.5049C96.3959 56.5462 96.1115 58.5815 95.6455 60.5764C95.3208 61.9118 94.7802 63.1805 94.3646 64.4876C90.5603 76.0882 81.9311 85.9862 70.976 91.3679C66.3386 93.7017 61.2918 95.1924 56.1461 95.8399C55.1436 96.0295 54.1128 95.9387 53.1103 96.1485C45.6469 96.5479 38.0847 95.1561 31.2708 92.0699C26.3026 89.7623 21.6713 86.664 17.8186 82.7568C10.6295 75.7473 5.89936 66.293 4.53578 56.3525C4.01738 52.3405 3.95888 48.2558 4.50754 44.2457C4.65681 42.1318 5.25186 40.0904 5.73597 38.037C8.71527 27.0557 15.9426 17.2949 25.5825 11.2515C28.6243 9.29088 31.9042 7.69936 35.3374 6.54557C36.9067 5.9021 38.5728 5.57936 40.2087 5.16181C41.9616 4.72611 43.7569 4.50423 45.5461 4.28033ZM40.6142 6.16836C33.9294 7.67112 27.5795 10.6746 22.2381 14.9752C16.3884 19.6125 11.7067 25.7244 8.78385 32.5968C8.0597 34.1924 7.57358 35.8807 6.9402 37.5126C29.2557 37.5085 51.5712 37.4843 73.8827 37.3532C80.4827 37.3492 87.0828 37.3169 93.6849 37.331C91.5649 29.91 87.3289 23.1365 81.7878 17.783C76.1237 12.3448 69.0456 8.36905 61.4168 6.47295C54.6332 4.75435 47.4502 4.70393 40.6142 6.16836ZM14.0808 40.5302C13.4555 40.861 12.7556 41.6477 13.2256 42.3718C13.6068 43.3179 15.0269 43.4954 15.6219 42.6663C16.568 41.7223 15.2447 40.0622 14.0808 40.5302ZM20.2916 41.2866C19.0793 41.8554 18.0889 42.9528 17.746 44.2578C14.4278 44.3264 11.1056 44.2699 7.78537 44.3002C7.79143 44.869 7.79344 45.4399 7.79143 46.0107C9.44144 45.9785 11.0935 45.9966 12.7435 45.9986C12.9069 46.2951 12.8181 46.6582 12.8605 46.983C11.2589 47.0052 9.41925 46.9144 8.18678 48.1267C7.56752 48.5785 7.64821 49.4197 7.66435 50.0974C7.71074 51.0334 8.39858 51.9169 9.33655 52.0883C10.805 52.4756 12.5942 52.1045 13.7541 53.3027C13.4656 54.1337 12.7213 54.9042 11.7773 54.7731C11.1237 54.5049 10.7768 53.7908 10.091 53.577C9.4253 53.343 8.5418 53.2542 8.00726 53.8069C7.39809 54.2789 7.51306 55.1483 7.65628 55.812C8.07382 56.7398 9.11668 57.2522 10.097 57.3187C10.6033 58.408 11.4182 59.3258 12.3864 60.0278C12.8726 59.5215 13.274 58.9466 13.746 58.4282C13.393 58.1296 12.919 57.8533 12.8484 57.3551C13.3587 56.4736 14.6477 56.7822 15.2871 56.0399C15.7571 55.4347 16.2493 54.7409 16.2109 53.936C16.223 52.8347 16.0758 51.465 14.9906 50.8861C13.5685 50.1277 11.8983 50.6521 10.3734 50.4827C9.84688 50.402 10.0143 49.7767 10.0466 49.4076C11.8721 49.0687 13.7581 49.1736 15.6078 49.1837C15.7187 48.1186 15.6441 47.0455 15.6522 45.9764C16.3158 46.0652 17.0541 45.8473 17.6693 46.0874C17.6854 49.6174 17.6451 53.1493 17.7298 56.6773C18.4883 56.641 19.2487 56.6491 20.0092 56.6309C19.985 53.0888 20.0354 49.5447 20.0011 46.0006C22.0142 46.0127 24.0293 45.9885 26.0444 46.0148C26.0344 46.4 26.0283 46.7893 26.0202 47.1766C24.9854 47.1847 23.878 47.0153 22.926 47.5236C22.1312 47.8584 21.4918 48.5906 21.4777 49.4822C21.1327 50.4141 21.8347 51.2956 22.5851 51.7716C24.0253 52.6713 25.8044 52.5503 27.3737 53.0384C27.3737 53.4156 27.5815 53.9764 27.1034 54.1498C25.7318 54.9849 24.0919 54.4201 22.7202 53.8896C22.3269 54.3737 21.8912 54.8236 21.5119 55.3178C23.3032 56.5886 25.7378 57.1957 27.8155 56.29C29.2759 55.6929 30.1816 54.0651 30.0041 52.514C29.8447 52.0783 29.4413 51.7858 29.0459 51.578C27.4564 50.7187 25.5805 50.8902 23.87 50.4504C23.8357 50.1963 23.8014 49.9421 23.7731 49.688C24.3359 49.2946 25.0359 49.4318 25.6793 49.4015C26.7424 49.3975 27.8054 49.3289 28.8684 49.3793C28.9854 48.2538 28.9249 47.1201 28.8664 45.9946C29.758 46.1096 30.8876 45.6557 31.5673 46.4303C31.995 46.8478 32.3258 47.451 32.1725 48.0642C31.9849 49.1453 30.9178 49.7666 29.9557 50.0631C30.2945 51.6668 31.3071 53.113 32.7292 53.936C33.9919 54.6299 35.5673 54.4726 36.82 53.8332C36.7998 54.7752 36.7816 55.7172 36.7998 56.6591C37.653 56.6329 38.5043 56.6289 39.3575 56.6612C39.2788 53.1211 39.4624 49.5871 39.4705 46.0511C42.0544 46.0006 44.6404 46.0369 47.2243 46.0107C47.1678 46.9568 47.1376 47.9068 47.1517 48.8549C45.5118 49.0768 43.8517 48.9194 42.2057 48.9497C41.3141 48.9537 40.3419 49.7323 40.5012 50.6965C40.4831 51.8059 41.6449 52.9779 42.7745 52.4857C43.539 52.2598 43.9243 51.5417 44.4286 50.9951C45.2737 50.9749 46.1209 51.0051 46.9681 50.9971C46.9459 52.8528 46.956 54.7106 46.8996 56.5684C47.7427 56.5865 48.5859 56.5986 49.429 56.5563C49.4452 53.0444 49.5823 49.5367 49.5259 46.0228C49.8829 46.0047 50.2399 45.9906 50.597 45.9704C50.5768 45.4217 50.5768 44.871 50.5929 44.3224C43.2506 44.3022 35.9042 44.3446 28.5618 44.272C28.2532 42.9306 27.1639 41.8837 25.9315 41.3471C24.1947 40.4858 22.0364 40.4051 20.2916 41.2866ZM66.2701 40.9094C65.6367 41.5609 64.7411 42.0551 63.8071 41.8675C63.2181 41.8151 62.7744 41.4016 62.3104 41.0829C61.8203 41.0849 61.3543 41.3935 60.9347 41.6315C61.5157 43.213 63.4279 44.1893 65.0376 43.6345C66.0905 43.3239 67.1294 42.7107 67.6558 41.7102C67.1757 41.4742 66.7098 41.214 66.2701 40.9094ZM53.3039 44.2699C52.2449 44.5423 51.4199 45.4822 51.3312 46.5796C51.7265 46.87 52.0916 47.219 52.5354 47.4368C53.3181 47.4106 53.663 46.2871 54.5223 46.4787C55.1436 46.3799 55.7991 46.8135 55.8516 47.461C55.5934 48.5099 54.6252 49.5689 53.4492 49.343C53.431 49.8029 53.4088 50.2628 53.3887 50.7248C54.1915 50.8458 55.4381 50.3939 55.8133 51.3884C55.8375 52.1852 56.0654 53.1614 55.3957 53.7706C54.9277 54.3596 54.0442 54.3556 53.4411 53.9885C52.7311 53.6395 52.4184 52.8649 52.1582 52.169C51.6499 52.4897 51.1456 52.8145 50.6393 53.1352C50.7866 53.696 50.8854 54.3011 51.2485 54.7711C52.8521 56.9173 56.604 56.996 58.1511 54.7368C58.8571 53.9602 58.6453 52.877 58.4759 51.9431C58.3851 51.3017 57.8203 50.9043 57.3886 50.4827C58.2479 49.7404 58.375 48.5261 58.4577 47.4631C58.3447 45.0385 55.4865 43.4732 53.3039 44.2699ZM59.0003 44.2861C59.0185 44.8589 59.0104 45.4338 58.9963 46.0087C59.5389 46.0067 60.0815 45.9926 60.6261 45.9825C60.5959 46.8236 60.616 47.6628 60.6302 48.5039C60.0069 48.5099 59.3856 48.5099 58.7643 48.5079C58.728 49.2744 58.728 50.0409 58.724 50.8095C59.3452 50.8175 59.9665 50.8034 60.5878 50.7671C60.6382 52.7096 60.616 54.6541 60.5757 56.5966C61.4289 56.6128 62.2842 56.637 63.1354 56.5684C63.0628 53.0344 63.1536 49.5004 63.087 45.9684C63.7002 45.9784 64.3134 45.9845 64.9266 45.9865C64.8661 49.4983 64.963 53.0102 64.8782 56.52C65.6669 56.5724 66.4576 56.5684 67.2484 56.5865C67.2201 53.0344 67.2141 49.4802 67.2342 45.93C68.2831 46.1156 69.5963 45.6113 70.4011 46.519C71.5287 47.6506 70.4294 49.8413 68.8742 49.809C69.0678 51.0798 69.2131 52.6108 70.4011 53.3753C71.8938 54.4786 73.8666 54.0671 75.5226 53.6314C75.4944 54.6239 75.4682 55.6183 75.4661 56.6107C76.269 56.6208 77.0758 56.643 77.8786 56.5906C77.7959 53.0606 77.9089 49.5266 77.8544 45.9946C81.4227 46.0047 84.9931 45.9643 88.5614 46.0107C88.5029 46.8095 88.5109 47.6103 88.519 48.4111C88.0712 48.5684 87.6315 48.75 87.2018 48.9517C86.0783 48.1287 84.7994 47.3824 83.3652 47.3723C82.0319 47.2714 80.6219 47.8967 79.9563 49.0868C79.2281 50.1015 79.1958 51.4267 79.4238 52.6088C79.924 54.3112 81.2009 55.6929 82.7036 56.5886C83.0344 55.9713 83.3632 55.3541 83.6618 54.7207C82.8852 53.9017 81.7193 53.1655 81.7152 51.9068C81.6003 50.9769 82.3486 50.1458 83.1958 49.8856C83.7424 49.7283 84.3032 50.0571 84.6118 50.4968C84.2911 50.8821 83.7828 51.0475 83.3673 51.3077C83.7061 51.9391 83.9845 52.5987 84.3476 53.2159C85.4812 52.4958 86.7661 52.0702 87.9401 51.4247C88.16 51.3037 88.3939 51.2169 88.64 51.1625C88.6542 52.9577 88.7772 54.753 88.7288 56.5482C89.5457 56.6531 90.3727 56.6128 91.1957 56.5926C91.1534 53.0545 91.2058 49.5185 91.1715 45.9805C91.8352 45.9845 92.4988 46.0027 93.1645 45.9926C93.1463 45.4258 93.1463 44.8569 93.1705 44.2901C81.7818 44.2639 70.3911 44.2699 59.0003 44.2861ZM7.00878 62.6541C9.62096 71.7049 15.2326 79.8098 22.6617 85.5828C26.5386 88.6246 30.9461 90.9665 35.5814 92.6206C37.766 93.3689 40.0151 93.8954 42.2723 94.3795C44.3116 94.7869 46.3912 94.8959 48.4588 95.0734C50.2984 95.0694 52.1481 95.1642 53.9797 94.9362C57.8586 94.7264 61.673 93.8107 65.3442 92.5661C72.0169 90.2343 78.1086 86.2948 83.0143 81.2096C87.8715 76.1527 91.5427 69.9561 93.6223 63.2572C90.7419 63.2229 87.8614 63.2612 84.981 63.2289C83.5024 63.1422 82.0218 63.1704 80.5413 63.1604C73.3461 63.1604 66.1531 63.0877 58.958 63.0555C55.2585 63.1039 51.5632 62.9607 47.8658 62.9304C40.0655 62.7912 32.2653 62.8659 24.465 62.7711C18.6456 62.7226 12.8262 62.7448 7.00878 62.6541Z" fill="#02164F"/>
<path d="M20.1707 44.3204C20.4228 42.9044 21.9699 42.3033 23.2609 42.4303C24.453 42.3678 25.7763 43.0395 26.0163 44.2962C24.0678 44.2982 22.1192 44.3688 20.1707 44.3204Z" fill="#02164F"/>
<path d="M34.337 46.0269C35.156 46.0228 35.9729 46.0188 36.7918 46.0148C36.7616 47.5498 36.9492 49.1232 36.4913 50.6158C36.1686 51.5639 35.1681 52.2981 34.1514 52.1509C33.5443 52.1549 33.1771 51.5921 32.8726 51.1464C33.3849 50.6199 34.0465 50.1822 34.3229 49.4701C34.7989 48.3788 34.575 47.1484 34.337 46.0269Z" fill="#02164F"/>
<path d="M72.864 45.9724C73.7495 45.9865 74.633 45.9885 75.5185 45.9785C75.4338 47.6386 75.7808 49.3793 75.1575 50.9668C74.5907 52.4877 72.039 52.405 71.4641 50.9426C72.2266 50.4585 72.8801 49.7767 73.0213 48.8448C73.0839 47.8907 73.1403 46.9003 72.864 45.9724Z" fill="#02164F"/>
<path d="M78.2116 102.896C80.1702 102.638 82.266 102.724 84.0411 103.68C85.8949 104.635 87.2302 106.452 87.7143 108.467C88.2004 110.488 88.1904 112.645 87.6316 114.652C87.0507 116.747 85.4975 118.563 83.4743 119.382C81.9816 120.019 80.3195 120.07 78.724 119.941C76.497 119.729 74.3428 118.506 73.1849 116.564C71.7931 114.291 71.7003 111.463 72.1501 108.901C72.6746 105.907 75.1395 103.275 78.2116 102.896ZM78.6029 105.881C77.1607 106.281 76.0553 107.531 75.6962 108.967C75.2706 110.652 75.2626 112.477 75.8253 114.131C76.3922 115.761 77.9655 117.052 79.7265 117.062C81.2191 117.199 82.7502 116.497 83.5933 115.255C84.4324 114.016 84.6039 112.457 84.5736 110.997C84.5192 109.564 84.2428 108.005 83.1818 106.956C82.0401 105.72 80.1702 105.464 78.6029 105.881Z" fill="#02164F"/>
<path d="M5.05421 103.098C6.16162 103.085 7.267 103.087 8.37441 103.098C8.38449 108.624 8.37441 114.153 8.38046 119.68C7.26902 119.686 6.1596 119.684 5.05018 119.682C5.05421 114.153 5.04412 108.626 5.05421 103.098Z" fill="#02164F"/>
<path d="M33.292 103.096C34.3672 103.096 35.4443 103.073 36.5194 103.11C36.5215 108.631 36.5134 114.151 36.5235 119.67C35.531 119.69 34.5386 119.686 33.5462 119.684C33.5401 119.144 33.5381 118.603 33.5321 118.065C32.6123 119.208 31.2225 120.066 29.7136 119.995C27.9608 120.05 26.3491 118.908 25.5321 117.405C24.6829 115.858 24.6103 114.02 24.7838 112.302C24.9371 110.835 25.5543 109.361 26.7384 108.435C27.8599 107.483 29.4292 107.249 30.8412 107.509C31.8034 107.707 32.5881 108.336 33.3021 108.975C33.2779 107.015 33.292 105.054 33.292 103.096ZM29.7762 110.051C28.9996 110.379 28.4146 111.11 28.219 111.927C27.9648 112.941 28.0092 114.01 28.1625 115.039C28.3017 115.957 28.8503 116.85 29.7157 117.242C30.5568 117.579 31.6178 117.474 32.2714 116.802C33.2053 115.957 33.3727 114.607 33.3344 113.417C33.2819 112.413 33.1307 111.299 32.3763 110.563C31.7227 109.875 30.6435 109.726 29.7762 110.051Z" fill="#02164F"/>
<path d="M39.4605 103.089C40.5296 103.091 41.5986 103.089 42.6657 103.094C42.6718 104.068 42.6718 105.04 42.6657 106.014C41.5986 106.018 40.5296 106.014 39.4625 106.018C39.4282 105.042 39.4282 104.064 39.4605 103.089Z" fill="#02164F"/>
<path d="M90.4312 103.1C91.5023 103.087 92.5754 103.087 93.6485 103.1C93.6586 104.068 93.6586 105.038 93.6465 106.008C92.5754 106.018 91.5023 106.018 90.4292 106.008C90.4191 105.038 90.4191 104.068 90.4312 103.1Z" fill="#02164F"/>
<path d="M96.7266 103.112C97.8018 103.075 98.8769 103.089 99.952 103.098C99.9601 108.626 99.9581 114.153 99.954 119.68C98.8769 119.682 97.7997 119.692 96.7246 119.67C96.7347 114.151 96.7286 108.631 96.7266 103.112Z" fill="#02164F"/>
<path d="M16.9776 107.568C18.4602 107.225 20.1989 107.398 21.3507 108.479C22.2846 109.403 22.3633 110.789 22.3936 112.027C22.4057 114.575 22.3855 117.123 22.4016 119.672C21.3245 119.692 20.2473 119.684 19.1682 119.68C19.1117 116.929 19.3053 114.164 19.0371 111.422C18.8858 109.917 16.9493 109.468 15.8439 110.264C14.8616 110.799 14.678 111.997 14.6438 113.012C14.6115 115.233 14.6478 117.455 14.6256 119.678C13.5505 119.686 12.4733 119.69 11.3982 119.674C11.4123 115.66 11.3942 111.646 11.4063 107.632C12.4088 107.626 13.4113 107.632 14.4118 107.626C14.4299 108.154 14.4299 108.685 14.432 109.216C15.1682 108.52 15.9569 107.801 16.9776 107.568Z" fill="#02164F"/>
<path d="M47.4463 107.961C48.8825 107.297 50.5124 107.384 52.0514 107.477C53.3827 107.588 54.8936 108.201 55.3696 109.554C56.1926 112.873 54.8169 116.483 56.2834 119.68C55.1921 119.674 54.0988 119.717 53.0076 119.65C52.9047 119.263 52.7897 118.88 52.6747 118.498C51.8154 119.214 50.823 119.858 49.6793 119.963C48.471 120.076 47.1397 119.961 46.1775 119.148C44.703 117.98 44.5114 115.545 45.764 114.153C46.5225 113.298 47.6823 112.987 48.7575 112.745C49.9879 112.497 51.2224 112.259 52.4286 111.9C52.4831 111.301 52.473 110.565 51.9102 110.2C51.2486 109.806 50.4236 109.873 49.6853 109.93C48.9108 110.016 48.4912 110.746 48.1886 111.38C47.2123 111.233 46.2441 111.039 45.2678 110.884C45.6168 109.698 46.2945 108.52 47.4463 107.961ZM49.0802 114.863C48.2693 115.15 47.8941 116.209 48.4105 116.921C49.1004 118.075 50.819 117.881 51.7045 117.064C52.6445 116.35 52.4206 115.047 52.4589 114.016C51.3333 114.297 50.1735 114.468 49.0802 114.863Z" fill="#02164F"/>
<path d="M64.021 107.586C65.5379 107.204 67.3392 107.388 68.5051 108.522C69.3886 109.447 69.4814 110.807 69.4976 112.021C69.4955 114.573 69.5036 117.127 69.4915 119.678C68.4164 119.686 67.3392 119.69 66.2641 119.674C66.2076 116.901 66.4134 114.113 66.1289 111.352C65.9212 109.798 63.8314 109.466 62.7785 110.387C61.8647 111.019 61.784 112.225 61.7417 113.236C61.7175 115.38 61.7397 117.526 61.7336 119.672C60.6585 119.697 59.5813 119.682 58.5062 119.68C58.5143 115.662 58.478 111.644 58.5244 107.626C59.5249 107.63 60.5254 107.626 61.5259 107.63C61.5279 108.142 61.5279 108.657 61.5501 109.171C62.2843 108.52 63.0427 107.836 64.021 107.586Z" fill="#02164F"/>
<path d="M39.4443 107.63C40.5114 107.626 41.5805 107.63 42.6496 107.626C42.6939 111.644 42.6617 115.662 42.6657 119.68C41.5886 119.688 40.5114 119.69 39.4363 119.67C39.4484 115.658 39.4343 111.644 39.4443 107.63Z" fill="#02164F"/>
<path d="M90.4353 107.622C91.5044 107.632 92.5735 107.634 93.6426 107.62C93.6688 111.64 93.6526 115.66 93.6506 119.68C92.5755 119.686 91.5024 119.686 90.4273 119.68C90.4232 115.66 90.4111 111.64 90.4353 107.622Z" fill="#02164F"/>
<path d="M40.6142 6.16835C47.4502 4.70391 54.6332 4.75434 61.4168 6.47294C69.0456 8.36904 76.1237 12.3448 81.7878 17.783C87.3289 23.1364 91.5648 29.91 93.6849 37.331C87.0828 37.3169 80.4827 37.3491 73.8827 37.3532C51.5712 37.4843 29.2557 37.5085 6.94019 37.5125C7.57356 35.8807 8.05969 34.1923 8.78384 32.5968C11.7067 25.7244 16.3884 19.6125 22.2381 14.9751C27.5795 10.6746 33.9294 7.67111 40.6142 6.16835Z" fill="#F37022"/>
<path d="M7.00879 62.6541C12.8262 62.7448 18.6456 62.7226 24.465 62.771C32.2653 62.8658 40.0655 62.7912 47.8658 62.9304C51.5632 62.9607 55.2585 63.1039 58.958 63.0555C66.1531 63.0877 73.3462 63.1604 80.5413 63.1604C82.0218 63.1704 83.5024 63.1422 84.981 63.2289C87.8614 63.2612 90.7419 63.2229 93.6224 63.2572C91.5427 69.9561 87.8715 76.1527 83.0143 81.2096C78.1086 86.2948 72.0169 90.2343 65.3442 92.5661C61.673 93.8106 57.8586 94.7264 53.9797 94.9362C52.1481 95.1641 50.2984 95.0693 48.4588 95.0734C46.3912 94.8959 44.3116 94.7869 42.2723 94.3795C40.0151 93.8954 37.766 93.3689 35.5814 92.6205C30.9461 90.9665 26.5386 88.6246 22.6617 85.5828C15.2326 79.8097 9.62097 71.7049 7.00879 62.6541Z" fill="#F37022"/>
</g>
<defs>
<clipPath id="clip0_409_8794">
<rect width="100.428" height="120" fill="white"/>
</clipPath>
</defs>
</svg>
