<svg width="398" height="120" viewBox="0 0 398 120" fill="none" xmlns="http://www.w3.org/2000/svg">
<path fill-rule="evenodd" clip-rule="evenodd" d="M348.069 12.993V20.5947H341.612V12.993H348.069ZM111.856 20.3491L110.385 21.2473C112.633 25.9464 116.392 29.3383 119.783 29.3383C123.419 29.3383 125.913 27.01 125.913 24.2708C125.913 23.5776 125.789 22.719 125.462 21.9831L125.544 21.902C126.279 22.4328 128.609 23.2092 129.058 23.2092C129.548 23.2092 130.079 23.1686 130.53 23.0052L130.325 28.847L134.206 31.429V12.993H139.232L138.947 28.847L142.868 31.429V12.993H152.389C153.002 13.8932 153.247 14.9548 153.247 15.4461C153.247 15.8135 152.757 16.3453 152.349 16.5483C151.571 16.9573 148.997 17.8981 147.935 18.0605C148.957 23.2904 152.349 26.9684 155.904 26.9684C157.376 26.9684 159.581 26.1108 161.093 25.0888L160.888 28.847L164.77 31.429V12.993H186.059V17.6515C185.241 16.8355 183.525 16.0997 182.544 16.0997C181.4 16.0997 179.847 16.9979 178.662 18.5507C176.907 16.2225 175.394 15.2421 173.758 15.2421C171.144 15.241 168.692 17.7753 168.692 20.8393C168.692 23.4548 170.285 26.601 175.802 31.6746L177.641 30.1553C174.086 27.2942 171.962 25.171 171.962 22.5556C171.962 20.4303 173.309 18.6735 175.23 18.6735C176.293 18.6735 177.232 19.2043 177.723 19.9807C177.477 20.4303 177.027 21.4929 176.906 22.0654L179.971 24.1084C181.237 20.5937 183.198 19.2043 185.241 19.2043C185.486 19.2043 185.854 19.2469 186.139 19.3281L185.936 28.8481L189.816 31.429V12.993H193.862L191.819 9.56257H125.789L127.751 12.993H130.447V18.0605C130.447 19.1221 128.241 20.3491 126.483 20.3491C125.585 20.3491 124.277 19.7767 123.297 18.8369C124.686 17.8971 125.095 16.9573 125.095 15.9352C125.095 13.0346 120.927 9.07135 117.454 9.07135C116.392 9.07135 113.531 9.88836 112.019 10.5024L113.94 14.0972C116.554 12.993 119.252 12.3414 120.109 12.4226C121.131 12.4206 121.826 12.79 121.826 13.8942C121.826 15.7312 119.946 17.3247 116.063 17.8981C115.247 18.0199 115.043 18.2655 115.043 18.4289C115.043 18.7151 116.35 20.5125 117.29 21.5346C118.843 21.2067 120.763 20.4303 121.826 19.7767C122.275 20.4719 122.643 21.6147 122.643 22.72C122.643 24.5976 120.722 26.0692 118.271 26.0692C115.983 26.0692 113.693 24.1084 111.856 20.3491ZM135.792 0.981427L134.527 2.08363C136.366 5.6805 138.613 7.31452 141.392 7.31452C143.925 7.31452 146.179 5.6805 147.732 2.69664L145.191 0.613011C144.129 3.06404 142.086 4.45448 140.452 4.45448C138.696 4.45448 137.305 3.63747 135.793 0.981427H135.792ZM161.01 12.993V20.6353C159.376 22.106 155.779 23.6994 154.268 23.6994C152.307 23.6994 151.57 22.923 151.57 21.8197C151.57 20.9611 152.102 20.5125 153.246 20.2263C155.861 19.5727 156.556 19.0825 156.556 18.3061C156.556 17.5703 155.657 15.2004 154.717 12.994L161.01 12.993ZM211.226 38.0473L212.902 37.0263L209.796 32.041C213.516 31.6746 216.906 28.4796 216.906 26.6416C216.906 25.375 215.884 23.2904 214.659 21.494C214.25 20.9215 213.72 20.6759 212.534 20.6759C211.716 20.6759 207.591 21.7781 207.264 21.7781C206.856 21.7781 206.487 21.5346 206.487 20.5937C206.487 19.5321 207.264 18.6329 208.243 18.5913H214.945C215.354 18.5913 215.639 18.2655 215.639 17.6109V12.993H221.239L220.952 28.847L224.876 31.429V12.993H242.403V15.2827H236.519C234.068 15.2827 232.882 16.5899 232.882 18.4289C232.883 20.7571 236.315 25.2116 238.809 25.2116C240.28 25.2116 243.017 24.2708 244.161 24.2708C244.855 24.2708 245.101 24.6392 245.101 24.8838C245.101 26.0692 243.099 28.1539 239.952 28.1539C237.092 28.1539 234.192 26.6822 231.167 23.3736L229.778 24.5164C234.967 29.9097 238.073 31.429 242.444 31.429C245.509 31.429 247.961 28.9293 247.961 26.5188C247.961 25.6196 247.715 25.0472 246.53 23.2102C245.224 21.1255 244.652 20.8393 243.303 20.8393C242.241 20.8393 237.541 21.8197 237.091 21.7781C236.562 21.7386 235.988 21.2473 235.988 20.6343C235.988 19.2865 236.929 18.5507 238.359 18.5507H245.224C245.632 18.5507 245.918 18.1833 245.918 17.5703V12.993H255.766C256.378 13.8932 256.623 14.9548 256.623 15.4461C256.623 15.8135 256.133 16.3453 255.725 16.5483C254.949 16.9573 252.373 17.8981 251.311 18.0605C252.333 23.2904 255.725 26.9684 259.278 26.9684C260.751 26.9684 262.957 26.1108 264.469 25.0888L264.264 28.847L268.147 31.429V12.993H273.173L272.886 28.847L276.808 31.429V12.993H281.753L279.709 9.56257H223.731C223.609 9.15355 223.65 8.70395 223.65 8.29493C223.65 5.6805 224.998 3.88207 227.776 3.88207C230.678 3.88207 234.15 5.88552 236.848 8.29493L237.623 6.94712C235.335 4.57627 229.737 0.614026 226.182 0.614026C222.751 0.614026 220.462 2.41043 220.462 5.39429C220.462 6.90652 221.034 8.41672 221.728 9.56155H199.781L201.824 12.993H212.125V15.3232H206.407C205.141 15.241 203.874 16.4265 203.874 18.7141C203.874 21.3285 206.857 25.2116 208.939 25.2116C210.411 25.2116 212.657 24.1084 213.351 24.1084C213.842 24.1084 214.047 24.4352 214.047 24.762C214.047 25.8236 211.717 28.7253 207.714 28.8876C207.101 27.1724 206.448 26.6822 205.508 26.6822C204.814 26.6822 204.2 27.3358 204.2 28.031C204.2 28.9698 204.2 30.4009 204.405 30.8089C204.771 31.5508 205.998 32.1232 206.733 32.1648C207.469 32.2054 207.96 32.3272 208.367 32.8996C208.818 33.5126 210.247 36.2509 211.227 38.0473H211.226ZM216.858 4.16726L213.753 1.06262L210.688 4.12768L213.794 7.23333L216.858 4.16726ZM264.387 12.993V20.6353C262.753 22.106 259.156 23.6994 257.643 23.6994C255.683 23.6994 254.948 22.923 254.948 21.8197C254.948 20.9611 255.478 20.5125 256.622 20.2263C259.238 19.5727 259.931 19.0825 259.931 18.3061C259.931 17.5703 259.033 15.2004 258.094 12.994L264.387 12.993ZM290.005 12.993H292.661L292.376 28.847L296.298 31.429V12.993H318.526V17.6515C317.708 16.8355 315.993 16.0997 315.012 16.0997C313.868 16.0997 312.314 16.9979 311.131 18.5507C309.373 16.2225 307.862 15.2421 306.228 15.2421C303.612 15.241 301.16 17.7753 301.16 20.8393C301.16 23.4548 302.754 26.601 308.271 31.6746L310.109 30.1553C306.553 27.2942 304.429 25.171 304.429 22.5556C304.429 20.4303 305.777 18.6735 307.697 18.6735C308.76 18.6735 309.7 19.2043 310.189 19.9807C309.945 20.4303 309.496 21.4929 309.373 22.0654L312.438 24.1084C313.703 20.5937 315.665 19.2043 317.708 19.2043C317.953 19.2043 318.321 19.2469 318.608 19.3281L318.403 28.8481L322.286 31.429V12.993H327.147L326.862 28.847L330.784 31.429V12.993H337.852V20.5125H336.668C336.013 20.5125 335.646 20.9621 335.646 21.4117C335.646 22.8824 339.446 26.7644 340.549 26.7644C341.204 26.7644 341.611 26.4376 341.611 25.8652V24.0262H348.15L347.945 28.847L351.827 31.429V12.993H364.536V15.3638C364.536 16.0175 364.331 16.4265 361.266 16.9573C356.649 17.7753 355.751 19.7767 355.751 21.8614C355.751 26.0692 359.796 29.7879 365.026 29.7879C367.15 29.7879 370.133 28.3985 371.726 27.1724L369.886 23.5766C367.394 25.374 364.534 26.9258 362.205 26.9258C360.121 26.9258 358.854 25.988 358.854 24.3114C358.854 21.9009 360.161 21.1651 363.962 20.3075C368.089 19.3667 368.293 19.2459 368.293 17.9783V12.992H388.437V15.2816H382.554C380.103 15.2816 378.917 16.5889 378.917 18.4279C378.917 20.7561 382.35 25.2106 384.841 25.2106C386.313 25.2106 389.05 24.2708 390.195 24.2708C390.889 24.2708 391.134 24.6382 391.134 24.8838C391.134 26.0682 389.131 28.1518 385.986 28.1518C383.126 28.1518 380.224 26.6812 377.2 23.3716L375.812 24.5154C381.002 29.9086 384.106 31.428 388.479 31.428C391.544 31.428 393.994 28.9282 393.994 26.5178C393.995 25.6186 393.75 25.0462 392.565 23.2092C391.257 21.1245 390.685 20.8383 389.336 20.8383C388.275 20.8383 383.576 21.8187 383.125 21.7771C382.594 21.7375 382.022 21.2473 382.022 20.6333C382.022 19.2865 382.962 18.5497 384.393 18.5497H391.258C391.665 18.5497 391.952 18.1823 391.952 17.5693V12.992H397.508L395.465 9.56155H367.325C365.098 5.82665 363.516 3.08129 361.707 1.47062C360.197 0.12179 359.012 0 358.277 0C357.296 0 356.069 0.0811936 356.069 0.857607C356.069 1.34781 356.274 1.71521 357.827 4.49508C358.441 4.29006 359.38 4.08606 360.197 4.08606C361.014 4.08606 361.709 4.45346 362.282 5.02588C363.359 6.06719 364.28 7.23739 365.793 9.56155H329.642C329.518 9.15254 329.559 8.70293 329.559 8.29392C329.559 5.67949 330.906 3.88105 333.686 3.88105C336.587 3.88105 340.06 5.8845 342.757 8.29392L343.533 6.94611C341.244 4.57525 335.647 0.613011 332.092 0.613011C328.66 0.613011 326.371 2.40942 326.371 5.39328C326.372 6.90551 326.943 8.41571 327.637 9.56155H295.155C295.032 9.15254 295.073 8.70293 295.073 8.29392C295.073 5.67949 296.42 3.88105 299.199 3.88105C302.1 3.88105 305.574 5.8845 308.271 8.29392L309.048 6.94611C306.758 4.57525 301.161 0.613011 297.606 0.613011C294.174 0.613011 291.885 2.40942 291.885 5.39328C291.885 6.90551 292.457 8.41571 293.152 9.56155H287.956L290.006 12.992L290.005 12.993ZM119.117 82.7118C119.117 85.9312 119.326 88.1315 119.753 89.3098C120.173 90.4892 120.918 91.0819 121.974 91.0819C123.024 91.0819 123.754 90.4963 124.173 89.3322C124.587 88.167 124.796 85.9606 124.796 82.7129C124.796 79.4641 124.587 77.2516 124.173 76.0783C123.754 74.9061 123.024 74.3205 121.974 74.3205C120.918 74.3205 120.173 74.9132 119.753 76.0996C119.326 77.2851 119.117 79.4935 119.117 82.7118ZM110.385 82.923C110.385 77.8078 111.398 73.8496 113.423 71.0362C115.456 68.2218 118.306 66.8182 121.974 66.8182C125.636 66.8182 128.472 68.2218 130.489 71.0281C132.501 73.8293 133.507 77.7925 133.507 82.923C133.507 88.0371 132.501 91.9943 130.496 94.7945C128.493 97.5936 125.649 98.9901 121.974 98.9901C118.292 98.9901 115.435 97.5865 113.416 94.7782C111.397 91.9791 110.385 88.0219 110.385 82.923ZM135.292 69.2489C135.292 67.9255 135.74 66.8111 136.646 65.9139C137.55 65.0167 138.664 64.5681 139.974 64.5681C141.291 64.5681 142.389 65.0167 143.28 65.9139C144.17 66.8101 144.618 67.9255 144.618 69.2489C144.618 70.5511 144.17 71.6584 143.272 72.5698C142.375 73.4812 141.276 73.9379 139.974 73.9379C138.664 73.9369 137.55 73.4812 136.646 72.5769C135.74 71.6716 135.292 70.5653 135.292 69.2489ZM136.031 98.3751V76.6721H143.895V98.3751H136.031ZM147.411 98.3751V64.6118H155.275V98.3761L147.411 98.3751ZM169.808 98.3751V67.4312H178.455V98.3761L169.808 98.3751ZM181.977 98.3751V76.6721H189.522V79.8904C190.26 78.6603 191.122 77.757 192.106 77.1704C193.096 76.5848 194.262 76.2874 195.608 76.2874C197.242 76.2874 198.493 76.7736 199.347 77.7499C200.201 78.7263 200.627 80.1593 200.627 82.0552V98.3751H192.829V85.7363C192.829 85.0766 192.699 84.5793 192.446 84.2464C192.192 83.9125 191.809 83.7471 191.302 83.7471C191.083 83.741 190.867 83.7902 190.672 83.8903C190.477 83.9904 190.311 84.138 190.189 84.3195C189.914 84.7021 189.777 85.2146 189.777 85.8662V98.3751H181.977ZM211.095 87.5236C211.095 89.0652 211.253 90.2212 211.572 90.9956C211.892 91.771 212.369 92.1607 213.005 92.1607C213.671 92.1607 214.192 91.7548 214.56 90.9449C214.936 90.1329 215.125 88.9922 215.125 87.5246C215.125 86.055 214.937 84.9122 214.56 84.1023C214.192 83.2914 213.671 82.8864 213.005 82.8864C212.369 82.8864 211.891 83.2761 211.572 84.0505C211.253 84.8249 211.095 85.9819 211.095 87.5236ZM215.124 98.3751V95.9799C214.387 96.9938 213.606 97.7458 212.774 98.2228C211.942 98.708 211.023 98.9465 210.017 98.9465C207.826 98.9465 206.125 97.9488 204.917 95.9444C203.71 93.947 203.11 91.1407 203.11 87.5236C203.11 83.9206 203.718 81.1133 204.932 79.1099C206.146 77.1054 207.84 76.0996 210.016 76.0996C210.968 76.0905 211.904 76.3357 212.729 76.8101C213.548 77.2861 214.351 78.0392 215.124 79.0663V64.6118H222.989V98.3761L215.124 98.3751ZM225.435 69.2489C225.435 67.9255 225.882 66.8111 226.787 65.9139C227.69 65.0167 228.804 64.5681 230.114 64.5681C231.431 64.5681 232.53 65.0167 233.42 65.9139C234.31 66.8101 234.758 67.9255 234.758 69.2489C234.758 70.5511 234.309 71.6584 233.414 72.5698C232.516 73.4812 231.417 73.9379 230.114 73.9379C228.804 73.9369 227.691 73.4812 226.787 72.5769C225.883 71.6716 225.434 70.5653 225.435 69.2489ZM226.172 98.3751V76.6721H234.035V98.3751H226.172ZM244.88 87.5236C244.88 89.0652 245.039 90.2212 245.357 91.0027C245.675 91.7771 246.154 92.1668 246.789 92.1668C247.427 92.1668 247.911 91.771 248.243 90.9662C248.578 90.1705 248.743 89.0206 248.743 87.5236C248.743 85.9971 248.577 84.8401 248.243 84.0434C247.911 83.2406 247.426 82.8418 246.789 82.8418C246.168 82.8418 245.69 83.2416 245.365 84.0292C245.04 84.8178 244.88 85.99 244.88 87.5236ZM248.91 98.3751V95.9799C248.136 97.0293 247.333 97.7885 246.508 98.2665C245.688 98.7472 244.753 98.9972 243.802 98.9901C241.64 98.9901 239.945 97.9854 238.724 95.9738C237.5 93.9541 236.893 91.1407 236.893 87.5236C236.893 83.877 237.493 81.0555 238.701 79.0592C239.91 77.0547 241.61 76.057 243.802 76.057C244.753 76.0477 245.69 76.2923 246.515 76.7654C247.333 77.2424 248.136 77.9955 248.91 79.0236V76.6721H256.774V98.3751H248.91ZM270.721 98.3751V67.4312H279.41V90.6982H285.748V98.3741L270.721 98.3751ZM287.426 69.2489C287.426 67.9255 287.874 66.8111 288.777 65.9139C289.682 65.0167 290.797 64.5681 292.106 64.5681C293.423 64.5681 294.521 65.0167 295.412 65.9139C296.303 66.8101 296.75 67.9255 296.75 69.2489C296.75 70.5511 296.303 71.6584 295.404 72.5698C294.508 73.4812 293.408 73.9379 292.106 73.9379C290.797 73.9369 289.682 73.4812 288.777 72.5769C287.874 71.6716 287.425 70.5653 287.425 69.2489H287.426ZM288.163 98.3751V76.6721H296.028V98.3751H288.163ZM299.246 98.3751V76.6721H306.792V79.8904C307.53 78.6461 308.39 77.7286 309.39 77.1339C310.38 76.5401 311.545 76.2448 312.876 76.2448C314.113 76.2448 315.14 76.5493 315.959 77.1491C316.768 77.7499 317.361 78.6613 317.725 79.8914C318.33 78.6461 319.113 77.7276 320.053 77.1339C321.001 76.5401 322.144 76.2448 323.488 76.2448C325.139 76.2448 326.405 76.737 327.272 77.7276C328.142 78.7191 328.575 80.1593 328.575 82.0552V98.3751H320.71V85.7363C320.71 85.0634 320.588 84.557 320.349 84.2312C320.111 83.9064 319.741 83.7471 319.25 83.7471C319.04 83.7411 318.832 83.79 318.647 83.889C318.462 83.988 318.305 84.1335 318.193 84.3114C317.941 84.6808 317.81 85.2014 317.81 85.8662V98.3751H309.99V85.7363C309.99 85.0634 309.866 84.557 309.628 84.2312C309.389 83.9064 309.021 83.7471 308.527 83.7471C308.066 83.7471 307.696 83.9348 307.436 84.3114C307.175 84.6808 307.045 85.2014 307.045 85.8662V98.3751H299.246ZM330.977 69.2489C330.977 67.9255 331.424 66.8111 332.33 65.9139C333.234 65.0167 334.348 64.5681 335.657 64.5681C336.975 64.5681 338.074 65.0167 338.964 65.9139C339.853 66.8101 340.301 67.9255 340.301 69.2489C340.301 70.5511 339.853 71.6584 338.956 72.5698C338.059 73.4812 336.96 73.9379 335.657 73.9379C334.348 73.9369 333.234 73.4812 332.33 72.5769C331.426 71.6716 330.977 70.5653 330.977 69.2489ZM331.715 98.3751V76.6721H339.578V98.3751H331.715ZM344.093 98.3751V83.537H341.489V76.6721H344.093V70.2913H352V76.6721H354.822V83.537H352V98.3751H344.093ZM363.192 84.7884H367.83C367.83 83.5593 367.633 82.6327 367.251 82.0176C366.859 81.4036 366.273 81.1002 365.5 81.1002C364.892 81.1002 364.4 81.4036 364.03 82.0034C363.655 82.6043 363.373 83.5309 363.192 84.7884ZM374.399 90.7845C374.086 93.332 373.103 95.3354 371.439 96.7979C369.783 98.2594 367.656 98.9901 365.051 98.9901C361.997 98.9901 359.646 98.0057 357.998 96.0306C356.34 94.0617 355.516 91.2564 355.516 87.6109C355.516 83.949 356.348 81.1052 358.019 79.0876C359.683 77.0689 362.013 76.057 365.008 76.057C368.278 76.057 370.708 76.9552 372.321 78.7486C373.935 80.5419 374.737 83.2477 374.737 86.8649C374.738 87.2912 374.737 87.6109 374.733 87.827C374.728 88.0308 374.708 88.2339 374.675 88.435H363.194V88.7313C363.194 90.3298 363.375 91.4736 363.736 92.1618C364.091 92.8549 364.685 93.202 365.502 93.202C366.109 93.202 366.601 93.0072 366.97 92.6093C367.346 92.2115 367.621 91.6035 367.788 90.7855H374.401L374.399 90.7845ZM384.592 87.5236C384.592 89.0652 384.75 90.2212 385.069 90.9956C385.386 91.771 385.863 92.1607 386.501 92.1607C387.166 92.1607 387.688 91.7548 388.056 90.9449C388.433 90.1329 388.621 88.9922 388.621 87.5246C388.621 86.055 388.432 84.9122 388.056 84.1023C387.687 83.2914 387.166 82.8864 386.501 82.8864C385.863 82.8864 385.386 83.2761 385.069 84.0505C384.751 84.8249 384.592 85.9819 384.592 87.5236ZM388.621 98.3751V95.9799C387.882 96.9938 387.101 97.7458 386.269 98.2228C385.437 98.708 384.518 98.9465 383.513 98.9465C381.32 98.9465 379.62 97.9488 378.413 95.9444C377.205 93.947 376.604 91.1407 376.604 87.5236C376.604 83.9206 377.211 81.1133 378.428 79.1099C379.643 77.1054 381.336 76.0996 383.513 76.0996C384.464 76.0905 385.401 76.3357 386.226 76.8101C387.044 77.2861 387.846 78.0392 388.621 79.0663V64.6118H396.484V98.3761L388.621 98.3751Z" fill="#231F20"/>
<path fill-rule="evenodd" clip-rule="evenodd" d="M21.2246 70.5886H21.4012C26.6422 71.9791 32.2679 72.6185 37.6957 72.6185C43.1195 72.6185 48.7817 72.0653 54.1658 70.6698V120H21.2246V70.5886Z" fill="#ED1C24"/>
<path fill-rule="evenodd" clip-rule="evenodd" d="M37.6962 0C47.9946 0 59.5373 2.60124 66.3748 8.75875C73.124 15.0005 75.3436 24.7102 75.3436 34.0749C75.3436 43.5248 73.8344 52.8022 66.9969 58.9587C59.2724 65.9819 47.9956 68.235 37.6962 68.235C27.3968 68.235 16.2976 65.6348 9.46115 59.4793C2.71194 53.3228 0.0498047 43.5258 0.0498047 34.0749C0.0498047 23.9308 2.62465 15.0868 9.99398 8.41165C16.7412 2.16787 27.3968 0 37.6962 0ZM37.6515 20.3136C42.1994 20.3136 47.2243 21.4046 50.1756 23.9003C53.2062 26.394 54.1643 30.3704 54.1643 34.1114C54.1643 37.9316 53.4467 41.6726 50.4953 44.1693C47.1451 46.9745 42.1994 47.9103 37.6515 47.9103C33.1859 47.9103 28.3204 46.8953 25.369 44.4017C22.3374 41.908 21.221 37.9316 21.221 34.1124C21.221 29.9817 22.3374 26.4721 25.5283 23.744C28.4797 21.2483 33.1859 20.3136 37.6515 20.3136Z" fill="#231F20"/>
</svg>
