<svg width="185" height="120" viewBox="0 0 185 120" fill="none" xmlns="http://www.w3.org/2000/svg">
<path fill-rule="evenodd" clip-rule="evenodd" d="M41.1679 28.3247C35.6833 28.094 31.929 29.9501 28.9298 32.5194C26.5388 34.5643 24.0744 38.9792 22.6168 42.6811C20.4565 48.1656 16.7337 53.5978 12.172 56.9431C11.1233 57.7296 8.28139 59.4599 6.82373 59.8584C7.70462 60.6344 11.4379 61.3265 16.2199 66.9579C18.7262 69.8942 20.7711 73.0507 22.6378 77.1301C23.7808 79.6259 23.6235 79.9405 25.249 82.7615C28.6991 88.7179 33.3238 91.9269 41.1888 91.7381C41.4825 97.9778 45.436 103.662 51.4973 105.937C53.0494 106.524 54.486 106.965 56.1639 107.384C58.0411 107.856 59.2785 107.909 61.0717 108.611C63.8088 109.681 66.7556 112.061 67.7099 114.316L67.8567 114.159C67.8672 114.148 67.9091 114.106 67.9196 114.085L68.1608 113.687C68.5173 113.047 69.0626 112.491 69.6289 112.03C70.3106 111.453 71.3697 110.918 72.3555 110.509C78.0393 108.192 82.7479 109.324 86.8901 108.318C88.6624 107.888 90.529 107.091 91.5987 105.665C91.7036 105.518 91.7036 105.497 91.7979 105.371L92.0916 105.035C92.4691 105.444 92.6264 105.727 93.0144 106.115C97.702 110.793 107.664 107.049 114.397 112.072C114.732 112.324 115.183 112.754 115.509 113.089C115.844 113.446 116.169 114.022 116.431 114.243C117.281 112.775 117.082 112.282 119.053 110.782C121.811 108.674 124.611 108.15 127.851 107.342C132.34 106.21 137.017 104.144 139.607 100.757C141.264 98.5965 142.816 95.2722 142.9 91.7801C145.826 91.5703 146.77 92.0108 150.094 90.7733C162.08 86.2955 159.752 71.7923 172.053 62.931C173.186 62.113 176.017 60.4037 177.496 59.9842C177.475 59.9632 177.433 59.9003 177.422 59.9318L176.804 59.6486C175.052 59.0509 173.574 58.1595 172.137 57.0794C167.303 53.4719 164.303 48.6271 161.577 42.7964C160.36 40.1852 160.497 40.0279 158.819 37.3118C154.718 30.7157 152.013 28.5869 142.91 28.2932C142.795 24.9584 141.253 21.2461 139.701 19.2432C138.024 17.0829 135.748 15.426 132.581 14.1256C129.508 12.8567 126.195 12.5002 123.164 11.3047C121.046 10.4762 119.168 9.30171 117.679 7.68675C117.092 7.05754 116.924 6.48077 116.431 5.77816L116.222 6.08228C115.058 7.86502 114.04 8.57812 111.723 9.45901C105.829 11.6822 100.817 10.686 97.1252 11.7137C96.0136 12.0178 94.9859 12.4582 94.1679 13.0035C92.574 14.0627 92.6683 14.4822 91.9867 15.038C88.2324 9.36463 80.7973 12.605 72.4604 9.45901C71.3907 9.05003 70.5308 8.58861 69.6919 7.98038C68.0349 6.76391 68.4964 6.62759 67.7518 5.68378C66.9548 6.69051 66.9968 7.52945 65.0567 9.10246C59.4148 13.6852 50.1445 11.8919 44.4922 19.2432C42.8038 21.4559 41.2518 24.6334 41.1679 28.3247Z" fill="#ED1C24"/>
<path fill-rule="evenodd" clip-rule="evenodd" d="M41.1677 28.3247C41.2516 24.6334 42.8036 21.4559 44.492 19.2432C50.1443 11.892 59.4146 13.6852 65.0565 9.10251C66.9966 7.52949 66.9546 6.69055 67.7516 5.68382C68.4962 6.62763 68.0347 6.76396 69.6917 7.98042C70.5306 8.58865 71.3905 9.05007 72.4602 9.45906C80.7971 12.6051 88.2322 9.36468 91.9865 15.038C92.6681 14.4822 92.5738 14.0627 94.1677 13.0036C94.9857 12.4583 96.0134 12.0178 97.125 11.7137C100.816 10.686 105.829 11.6823 111.723 9.45906C114.04 8.57817 115.057 7.86507 116.221 6.08232L116.431 5.7782C116.924 6.48082 117.092 7.05759 117.679 7.68679C119.168 9.30175 121.045 10.4763 123.164 11.3047C126.194 12.5002 129.508 12.8568 132.581 14.1257C135.748 15.426 138.023 17.0829 139.701 19.2432C141.253 21.2462 142.795 24.9585 142.91 28.2933C152.013 28.5869 154.718 30.7157 158.819 37.3119C160.497 40.028 160.36 40.1853 161.577 42.7965C164.303 48.6271 167.302 53.472 172.137 57.0794C173.574 58.1596 175.052 59.0509 176.803 59.6487L177.422 59.9318C177.433 59.9004 177.475 59.9633 177.496 59.9843C176.017 60.4037 173.186 62.1131 172.053 62.931C159.752 71.7924 162.08 86.2955 150.094 90.7734C146.769 92.0108 145.826 91.5704 142.9 91.7801C142.816 95.2722 141.264 98.5965 139.607 100.757C137.017 104.144 132.34 106.21 127.851 107.342C124.611 108.15 121.811 108.674 119.053 110.782C117.081 112.282 117.281 112.775 116.431 114.243C116.169 114.023 115.844 113.446 115.508 113.089C115.183 112.754 114.732 112.324 114.397 112.072C107.664 107.049 97.7018 110.793 93.0142 106.116C92.6262 105.728 92.4689 105.444 92.0914 105.035L91.7977 105.371C91.7034 105.497 91.7034 105.518 91.5985 105.665C90.5288 107.091 88.6622 107.888 86.8899 108.318C82.7477 109.324 78.0391 108.192 72.3553 110.509C71.3695 110.918 70.3104 111.453 69.6287 112.03C69.0624 112.491 68.5171 113.047 68.1606 113.687L67.9194 114.085C67.9089 114.106 67.867 114.148 67.8565 114.159L67.7096 114.316C66.7554 112.062 63.8086 109.681 61.0715 108.611C59.2783 107.909 58.0409 107.856 56.1637 107.384C54.4858 106.965 53.0492 106.525 51.4971 105.937C45.4358 103.662 41.4823 97.9778 41.1886 91.7382C33.3236 91.9269 28.6989 88.718 25.2488 82.7615C23.6233 79.9406 23.7806 79.626 22.6376 77.1301C20.7709 73.0508 18.726 69.8943 16.2197 66.958C11.4377 61.3266 7.70441 60.6344 6.82352 59.8584C8.28118 59.4599 11.1231 57.7296 12.1718 56.9431C16.7335 53.5978 20.4563 48.1657 22.6166 42.6811C24.0742 38.9793 26.5386 34.5644 28.9296 32.5194C31.9288 29.9502 35.6831 28.094 41.1677 28.3247ZM0.5 59.9004C2.67076 61.1273 4.12842 61.5468 6.16285 63.403C7.66246 64.7872 9.04671 66.5385 10.2737 68.531C14.7096 75.7668 14.2377 79.9825 18.8204 87.6903C21.1904 91.6857 25.1124 94.2865 29.779 95.2093C31.2157 95.4924 32.5266 95.5868 34.0471 95.6183C36.2494 95.6497 37.4134 95.1778 38.1789 95.1778C37.728 103.316 41.6186 108.643 48.9069 111.663C55.3458 114.337 61.1659 113.026 64.9831 116.046C66.0947 116.917 66.6505 117.536 67.3112 118.836C67.4999 119.203 67.6153 119.738 67.7516 120C68.0243 119.822 68.3179 118.899 68.4857 118.637C71.9568 113.058 80.4091 115.658 86.7851 113.96C88.8615 113.404 91.1895 112.24 91.8921 110.719C92.3326 110.939 92.6157 111.506 93.0142 111.862C97.3767 115.784 107.78 113.939 112.32 115.774C115.54 117.085 115.781 119.046 116.431 119.99C116.777 119.476 116.62 118.794 117.553 117.64C121.465 112.806 127.977 114.62 135.265 111.642C141.295 109.178 146.822 103.62 146.025 95.1883C147.032 95.1464 149.15 95.4924 150.387 95.5554C151.971 95.6288 153.198 95.5344 154.697 95.2512C162.122 93.846 165.75 87.9944 168.54 81.3877C170.658 76.3646 170.941 72.9144 173.972 68.2164C176.478 64.3258 179.31 61.6412 184.05 59.9109C181.848 59.1978 179.687 57.7506 178.156 56.5551C174.958 54.0488 172.284 49.4136 170.868 45.3552C167.816 36.5988 164.681 26.5 154.53 24.7488C150.188 24.0042 149.286 24.7278 146.077 24.9061C146.392 20.5645 145.144 16.8732 143.151 14.1781C141.19 11.5249 138.988 9.8995 135.297 8.41038C129.707 6.15573 128.921 6.81639 124.055 5.92502C122.188 5.57896 120.49 4.88683 119.137 3.96399C116.83 2.37001 117.165 1.05916 116.431 0C116.284 0.199246 115.991 1.06965 115.802 1.4262C113.83 5.11754 108.692 5.21192 104.948 5.24338C102.777 5.26435 99.3482 5.64188 97.2194 6.06135C95.8037 6.34449 93.9475 7.21489 92.9827 8.20065C92.6786 8.51525 92.4165 8.99764 91.9655 9.21786C86.7326 2.59023 74.8826 7.8441 69.3036 2.50633C68.1396 1.39474 68.1606 0.597745 67.7516 0C67.1539 0.90186 67.1853 4.47784 60.0124 5.92502C56.0903 6.72201 52.3046 6.8898 48.823 8.34746C45.7818 9.62685 42.9714 11.3886 40.9894 14.1152C38.5669 17.429 38.1055 20.8267 38.158 24.8956C35.9243 25.0738 34.7498 23.8679 29.6427 24.8641C27.1364 25.357 24.9971 26.3113 23.2143 27.5487C19.1455 30.3487 15.9889 36.7141 14.4789 41.7583C12.7066 47.7043 10.5988 52.266 6.22577 56.4922C4.90444 57.7611 2.67076 58.967 0.5 59.9004Z" fill="#FFF200"/>
<path fill-rule="evenodd" clip-rule="evenodd" d="M125.806 46.1413C125.817 47.7562 125.66 73.7215 125.88 74.5394H130.284C130.525 72.7567 130.358 56.628 130.368 52.7794C130.903 53.3562 141.851 69.8099 143.099 71.687C143.644 72.526 144.536 73.69 144.913 74.508L150.681 74.5289V45.5226L146.182 45.5121V67.3665C145.689 66.926 134.5 50.1997 133.189 48.2701C132.738 47.6094 131.647 46.1413 131.364 45.4911L125.806 45.5226V46.1413ZM100.649 62.4482C100.722 61.8085 101.624 59.6692 101.907 58.9142L104.56 51.8251C105.022 50.5982 105.179 48.9937 106.836 49.2663C107.979 49.4551 108.346 51.133 108.797 52.1921C109.3 53.3667 109.751 54.4363 110.244 55.6108C110.705 56.7015 112.939 61.7875 113.086 62.4587L100.649 62.4482ZM91.3573 74.487L96.2546 74.4975L99.2853 66.1395H114.617C115.246 67.3979 115.823 68.971 116.389 70.3133C116.788 71.2256 117.773 73.9207 118.224 74.4765L123.038 74.508C122.807 73.5012 114.03 52.8004 113.191 50.7974C111.859 47.5989 111.534 45.4596 107.234 45.4806C103.428 45.5016 102.274 45.6589 100.659 50.0424C99.6733 52.6745 91.7034 73.1342 91.3573 74.487ZM67.7831 49.2873C71.3171 49.2768 74.8616 49.2873 78.4062 49.2873C84.0795 49.2873 83.8698 48.721 83.8698 54.3734C83.8698 59.7531 84.6458 59.4909 78.4062 59.4909C74.8616 59.4909 71.2752 59.5434 67.7411 59.4909L67.7831 49.2873ZM63.2738 74.5394C64.249 74.5394 66.9756 74.6653 67.7411 74.445V63.2662C69.9643 63.2557 80.1365 63.1613 81.4788 63.2976C84.3522 63.5913 83.8698 66.0452 83.8698 67.7335C83.8698 68.95 83.7125 73.7215 83.9432 74.5394H88.3371C88.5678 73.6795 88.3896 68.3103 88.3896 66.9785C88.3896 63.7486 88.5469 63.025 86.0405 61.777C87.7394 61.3261 88.3686 60.7598 88.3896 58.7464C88.4105 56.9217 88.3896 55.076 88.3896 53.2513C88.3896 50.2101 88.9349 46.8334 84.908 45.7533C82.9364 45.2289 76.7597 45.5121 74.2849 45.5121C70.6145 45.5121 66.9441 45.5121 63.2738 45.5121V74.5394ZM38.116 49.2978C41.5137 49.2034 45.0373 49.2873 48.4455 49.2873C53.7623 49.2873 53.6889 49.0042 53.6889 54.3734C53.6889 55.873 54.0454 58.243 53.0492 58.9771C52.0739 59.6902 49.8507 59.4909 48.4455 59.4909C45.0478 59.4909 41.4613 59.6063 38.0846 59.4804L38.116 49.2978ZM33.6487 74.445C34.2884 74.6443 37.2456 74.5604 38.0846 74.5185V63.2766C43.2336 63.1298 48.6342 63.5178 53.6889 63.2347C59.0371 62.9411 58.1562 59.1868 58.1562 56.1247C58.1562 54.7929 58.1562 53.461 58.1562 52.1292C58.1562 49.2034 58.324 47.6094 56.2162 46.351C54.2552 45.1975 51.6859 45.4806 49.19 45.4806C46.6418 45.4806 43.9991 45.4177 41.4508 45.5016C39.5317 45.554 35.2217 45.2604 33.6382 45.575L33.6487 74.445Z" fill="#FCFEFF"/>
<path d="M152.4 98.7642C153.093 98.7642 153.764 98.9319 154.403 99.2885C155.043 99.6346 155.546 100.127 155.903 100.778C156.27 101.428 156.459 102.109 156.459 102.812C156.459 103.525 156.281 104.196 155.924 104.836C155.557 105.476 155.064 105.969 154.424 106.336C153.785 106.692 153.114 106.87 152.4 106.87C151.698 106.87 151.027 106.692 150.387 106.336C149.747 105.969 149.244 105.476 148.887 104.836C148.531 104.196 148.353 103.525 148.353 102.812C148.353 102.109 148.531 101.428 148.898 100.778C149.265 100.127 149.768 99.6346 150.397 99.2885C151.037 98.9319 151.708 98.7642 152.4 98.7642ZM152.411 99.5612C151.845 99.5612 151.31 99.708 150.806 99.9806C150.293 100.264 149.884 100.662 149.59 101.176C149.296 101.7 149.15 102.246 149.15 102.812C149.15 103.389 149.296 103.924 149.579 104.437C149.873 104.951 150.272 105.36 150.785 105.643C151.299 105.937 151.845 106.073 152.411 106.073C152.977 106.073 153.512 105.937 154.026 105.643C154.54 105.36 154.938 104.951 155.232 104.437C155.525 103.924 155.662 103.389 155.662 102.812C155.662 102.246 155.515 101.7 155.221 101.176C154.928 100.662 154.529 100.264 154.015 99.9806C153.502 99.708 152.967 99.5612 152.411 99.5612ZM150.565 104.983V100.694H151.446C152.254 100.694 152.715 100.694 152.82 100.704C153.103 100.725 153.323 100.788 153.491 100.872C153.648 100.956 153.785 101.103 153.89 101.281C153.994 101.47 154.047 101.679 154.047 101.9C154.047 102.214 153.942 102.476 153.743 102.697C153.543 102.917 153.26 103.053 152.893 103.106C153.03 103.148 153.124 103.211 153.197 103.263C153.271 103.326 153.365 103.431 153.491 103.599C153.523 103.641 153.627 103.808 153.806 104.112L154.309 104.983H153.229L152.872 104.28C152.631 103.819 152.432 103.525 152.275 103.399C152.117 103.273 151.918 103.221 151.677 103.221H151.446V104.983H150.565ZM151.446 102.539H151.803C152.306 102.539 152.621 102.518 152.736 102.476C152.862 102.435 152.956 102.372 153.019 102.277C153.093 102.183 153.124 102.067 153.124 101.952C153.124 101.837 153.093 101.721 153.03 101.627C152.956 101.543 152.862 101.47 152.736 101.428C152.61 101.396 152.296 101.375 151.803 101.375H151.446V102.539Z" fill="#231F20"/>
</svg>
