<svg width="717" height="1006" viewBox="0 0 717 1006" fill="none" xmlns="http://www.w3.org/2000/svg">
<path d="M-86 -48.7582V284.395C-83.7241 285.683 -81.1274 286.064 -78.6337 285.478C-71.797 283.773 -68.5712 275.056 -66.9102 267.395C-62.8506 248.506 -61.7751 228.962 -63.7326 209.654C-61.3253 225.897 -35.3747 224.597 -29.0194 208.707C-22.6642 192.817 -29.3324 174.842 -36.2413 159.195C-36.6396 158.684 -36.9206 158.071 -37.0598 157.409L-36.2413 159.195C-35.5902 159.859 -34.8264 160.369 -33.996 160.692C-33.1655 161.016 -32.2855 161.148 -31.4086 161.079C-30.5318 161.011 -29.6762 160.744 -28.8933 160.295C-28.1105 159.846 -27.4164 159.223 -26.8529 158.465C-24.2289 154.675 -24.4456 149.342 -25.0715 144.578C-27.7364 120.62 -32.7582 97.0688 -40.0448 74.3573C-42.6765 71.2032 -44.1027 67.014 -44.0168 62.69C-42.6206 66.534 -41.3207 70.4321 -40.0448 74.3573C-31.7637 84.5086 -12.5295 85.1854 -3.02069 73.6535C9.35279 58.7648 9.18427 35.9717 8.29357 15.6148C10.0189 26.713 14.638 36.9844 21.5643 45.1249C28.4907 53.2655 37.4119 58.9082 47.1954 61.3365L56.0302 33.3729C53.5025 50.1023 69.4147 65.8572 84.364 63.3397C99.3132 60.8222 110.339 44.0386 110.844 27.0385C111.816 33.0458 114.606 38.4901 118.741 42.4474C122.876 46.4047 128.101 48.6312 133.53 48.7492C138.958 48.8671 144.256 46.8692 148.524 43.0945C152.792 39.3197 155.767 34.0007 156.944 28.0401C151.094 53.8651 177.622 77.8494 201.045 74.0595C220.833 70.6757 236.577 54.1087 247.482 34.4828C249.062 30.8621 250.838 27.3543 252.802 23.9795C251.189 27.5257 249.408 31.0449 247.482 34.4828C238.252 55.4326 235.45 79.2294 239.514 102.158C251.252 91.5884 260.957 78.446 268.04 63.5292C266.759 73.3919 267.3 83.4458 269.629 93.0628C275.349 86.8292 280.216 79.6772 284.073 71.8398L286.167 72.9226C284.158 89.1486 285.814 105.682 290.982 120.999C295.808 118.828 300.22 115.64 303.981 111.606C306.799 103.293 310.355 95.3209 314.597 87.8112L316.018 88.5421C314.031 97.3577 309.856 105.357 303.981 111.606C299.961 124.167 298.902 137.025 304.703 148.34C314.092 166.667 337.852 169.753 354.823 160.63C368.617 153.213 378.896 140.084 388.236 126.251L394.351 129.445C394.351 143.793 395.651 158.167 402.126 170.294C410.552 186.076 431.206 194.982 443.772 183.207C446.692 180.242 448.94 176.536 450.33 172.397C451.72 168.259 452.212 163.807 451.765 159.412C457.826 173.284 467.204 184.982 478.847 193.196C479.921 174.439 477.46 155.639 471.625 138.027C475.573 144.512 480.692 149.99 486.648 154.104C492.604 158.218 499.264 160.875 506.194 161.903C506.082 140.818 498.794 120.583 485.828 105.353C497.672 116.966 517.869 114.042 529.978 102.104C542.929 89.3001 548.441 69.62 551.523 50.5084C553.788 59.6574 559.026 67.5163 566.199 72.5294C573.372 77.5426 581.958 79.3446 590.256 77.5786C593.421 62.7158 591.951 47.0816 586.091 33.2917C593.987 55.5976 622.393 64.4767 639.389 49.967C634.186 36.7019 626.605 24.7863 617.121 14.9651C628.307 21.1489 640.897 23.3763 653.231 21.3537C645.947 5.23068 635.239 -8.62333 622.056 -18.981C619.649 -20.551 617.434 -22.1752 615.244 -23.9348C617.651 -22.4189 619.842 -20.7405 622.056 -18.981C641.002 -6.42036 664.232 -1.08752 684.646 -9.4793C692.372 -12.769 699.314 -18.028 704.928 -24.8433C710.541 -31.6586 714.674 -39.8445 717 -48.7582H-86Z" fill="#707508"/>
<path d="M393.946 963.004C380.577 948.052 374.25 930.601 355.594 921.135C339.266 912.802 319.733 914.839 306.384 898.846C299.302 890.328 296.179 878.617 291.076 868.433C285.022 856.427 276.175 846.539 265.501 839.848C260.686 837.294 256.041 834.346 251.602 831.03C230.068 812.514 221.475 759.974 214.862 732.362C186.114 610.642 174.527 484.531 180.531 358.705C181.613 336.138 183.389 313.109 191.451 292.44C213.76 235.248 275.564 213.422 311.038 165.534C332.387 136.719 343.471 99.4085 365.188 70.9398C380.414 50.9886 400.355 36.2219 414.786 15.3912C431.259 -8.47304 439.398 -38.3852 437.646 -68.6261L415.725 -70.038C417.255 -43.8375 405.662 -18.7712 391.048 1.71234C376.434 22.1959 358.574 39.2308 344.103 59.7606C320.957 92.6501 303.282 136.788 267.44 147.551C278.585 133.663 275.054 111.93 279.095 93.7147C282.463 78.5083 291.341 65.7321 298.546 52.4236C316.723 19.1239 326.272 -19.303 326.101 -58.4653L304.547 -67.492C303.057 -34.186 300.873 1.36517 282.993 27.8202C276.319 37.7032 267.665 45.9198 262.276 56.7518C253.949 73.5552 254.602 93.9925 250.418 112.671C243.703 142.551 168.775 247.075 140.465 209.094C133.974 200.368 132.464 188.263 132.301 176.853C130.26 75.9392 120.217 -24.5112 119.789 -125.864L85.0904 -122.717C97.4798 -42.9349 90.9688 38.7447 84.3965 119.429C83.0494 135.932 86.4376 172.663 79.8857 186.666C76.8037 193.124 68.7822 194.698 62.7611 191.99C56.7399 189.282 52.2903 183.472 48.2082 177.778C31.2672 154.031 18.0615 128.178 -0.14495 106.097C-40.8236 56.7981 -52.6823 -14.0496 -59.8465 -81.0782C-75.1954 -81.6106 -79.2163 -57.1229 -76.8895 -39.9491C-66.8237 33.9637 -39.4062 103.444 2.48803 161.206C-6.59477 169.492 -18.9841 157.318 -25.5564 146.416C-56.0093 95.821 -92.1568 43.1886 -112.568 -13.8181C-118.518 -8.79664 -125.141 -4.88952 -132.182 -2.24549C-112.731 28.7692 -93.0752 60.131 -80.9921 95.5664C-74.9709 113.226 -70.7867 131.835 -63.0918 148.615C-33.9452 211.478 31.0223 243.511 47.7183 316.21C52.0454 335.004 52.7598 354.747 53.3313 374.351C57.4134 498.34 54.4743 621.681 32.7164 743.472C30.512 755.785 27.7974 768.607 20.4699 778.004C11.9382 788.651 -1.22672 793.118 -10.5136 802.932C-19.8005 812.745 -24.495 827.165 -30.1896 840.242C-40.395 863.827 -58.2544 867.623 -72.9094 884.843C-79.2367 892.249 -80.4614 903.567 -85.6865 912.015C-92.4629 923.009 -104.669 927.453 -115.813 932.036C-126.957 936.619 -138.918 943.238 -143 955.852C-135.223 949.557 -124.63 950.483 -115.343 952.774C-106.056 955.066 -96.4634 958.491 -87.1153 956.292C-80.0736 954.649 -73.9299 949.95 -67.276 946.849C-58.2136 942.59 -48.2328 941.248 -39.1908 936.943C-27.5566 931.388 -22.0253 920.394 -17.4329 907.757C-13.065 895.744 -0.981799 875.353 0.549009 863.457C-1.7262 881.64 1.25271 900.171 9.0399 916.274C7.24119 898.466 10.7783 880.49 19.082 865.239C19.7896 881.626 20.5107 898.005 21.2455 914.376C33.1751 899.971 43.6431 884.094 52.4536 867.044C51.2236 882.157 52.7877 897.395 57.046 911.784C59.645 905.704 62.2508 899.617 64.8634 893.522C68.7882 902.843 71.5827 912.723 73.1706 922.894L87.0499 889.102C87.467 899.227 89.3281 909.208 92.5608 918.658C89.989 911.136 98.684 894.518 102.542 889.264C106.624 905.974 112.033 922.176 121.891 935.855C117.521 923.534 115.712 910.236 116.605 896.994L134.178 938.1C132.815 925.671 133.215 913.075 135.362 900.79C137.594 911.838 139.812 922.878 142.016 933.911C142.301 936.334 143.178 938.619 144.547 940.507C146.294 942.071 148.3 943.22 150.446 943.886C164.733 950.436 168.244 973.327 182.205 980.433C189.124 983.951 197.084 982.747 204.657 983.928C210.54 984.896 216.166 987.305 221.146 990.986C226.127 994.667 230.341 999.532 233.497 1005.24C232.05 994.598 227.034 984.997 219.495 978.442C216.311 975.665 212.658 973.466 210.086 969.948C205.718 964 205.269 955.667 203.575 948.168C200.064 932.568 190.655 919.607 184.797 904.933C179.175 890.779 176.923 875.202 178.266 859.753L190.512 893.545C188.284 884.724 187.454 875.523 188.063 866.373C190.594 876.279 192.676 887.088 198.554 894.795C204.983 903.22 218.638 906.669 224.006 915.904C219.197 904.78 216.897 892.478 217.311 880.098C220.707 894.298 226.803 907.483 235.171 918.728C234.518 911.136 233.844 903.567 233.13 895.976C240.702 929.259 277.319 940.391 307.629 940.854C337.939 941.317 372.372 938.864 393.946 963.004Z" fill="#BC821F"/>
<path d="M110.012 482.601C108.318 489.059 105.256 494.961 103.501 501.395C99.4188 515.884 102.358 531.484 105.215 546.297C109.298 566.943 113.196 587.658 119.707 607.47C120.525 610.82 122.176 613.833 124.463 616.149C129.239 620.154 136.546 616.96 139.832 611.335C143.118 605.711 143.486 598.582 143.731 591.847C144.506 572.05 145.268 552.253 146.017 532.456C146.364 523.73 146.67 514.82 144.567 506.418C142.873 499.613 139.669 493.433 137.75 486.721C133.668 472.302 135.709 456.632 133.668 441.634C131.627 427.238 121.013 417.332 112.992 431.821C105.93 444.389 113.992 468.043 110.012 482.601Z" fill="#543503"/>
<path d="M15.3059 247.052C41.2888 267.744 58.4951 300.286 68.0882 334.611C77.6813 368.935 80.3347 405.204 81.8859 441.079C85.6809 526.243 84.2009 611.604 77.4567 696.533C75.2116 726.159 71.5989 757.104 56.0458 780.99C38.3293 808.186 7.85598 821.402 -11.1669 847.371C-24.0053 864.845 -31.5777 887.944 -48.539 900.304C-65.5004 912.663 -89.1769 911.877 -104.097 927.453" stroke="#3D0303" stroke-width="0.5" stroke-linecap="round" stroke-linejoin="round"/>
<path d="M98.8677 581.732C105.379 637.767 95.6428 696.718 112.625 749.86C120.789 775.505 134.913 798.604 140.689 825.059C145.323 846.213 144.486 869.035 152.446 888.847C157.814 902.202 166.734 913.196 174.102 925.324C184.136 942.054 190.983 960.973 194.206 980.872" stroke="#3D0303" stroke-width="0.5" stroke-linecap="round" stroke-linejoin="round"/>
<path d="M182.634 314.868C171.632 333.847 170.693 357.872 170.163 380.577C168.965 432.299 168.081 484.044 167.509 535.812C166.693 611.868 166.611 688.432 178.511 763.307C181.838 784.138 186.675 806.172 200.371 820.661C211.76 832.743 227.599 837.788 240.294 848.065C249.949 855.903 257.547 866.567 262.277 878.917C265.257 886.787 267.134 895.42 271.951 902.063C276.033 907.548 281.544 911.112 287.035 914.561L322.754 936.943" stroke="#3D0303" stroke-width="0.5" stroke-linecap="round" stroke-linejoin="round"/>
<path d="M167.836 570.877C163.917 608.558 144.139 642.905 143.343 680.84C142.894 700.514 147.609 719.794 152.262 738.704C163.801 785.457 175.326 832.218 186.838 878.987" stroke="#3D0303" stroke-width="0.5" stroke-linecap="round" stroke-linejoin="round"/>
<path d="M170.081 453.045C170.203 443.602 165.713 434.992 161.917 426.544C149.998 399.787 145.38 369.611 148.65 339.865C152.071 310.077 164.363 282.508 183.491 261.726C192.478 252.533 202.312 244.463 212.821 237.655C230.984 225.378 250.018 214.841 269.726 206.154" stroke="#3D0303" stroke-width="0.5" stroke-linecap="round" stroke-linejoin="round"/>
<path d="M175.225 272.188C214.459 233.341 240.224 179.93 247.907 121.512" stroke="#3D0303" stroke-width="0.5" stroke-linecap="round" stroke-linejoin="round"/>
<path d="M286.484 191.989C282.279 175.788 292.015 159.424 301.2 146.046L358.044 63.2324C368.249 48.4426 378.659 33.3288 392.844 23.7466C395.232 22.1496 398.029 20.6683 400.662 21.6173C403.294 22.5662 404.744 27.2184 402.315 28.8617" stroke="#3D0303" stroke-width="0.5" stroke-linecap="round" stroke-linejoin="round"/>
<path d="M78.1304 383.794C90.8871 372.546 98.0309 354.654 100.705 336.601C103.379 318.548 102.093 300.032 100.705 281.77C95.9422 215.25 91.1797 148.723 86.4171 82.1884" stroke="#3D0303" stroke-width="0.5" stroke-linecap="round" stroke-linejoin="round"/>
<path d="M59.3933 309.66C67.4147 290.149 66.0064 266.957 59.3933 246.797C52.7802 226.638 41.2685 209.071 29.3078 192.36C18.5309 177.331 7.29819 162.803 -4.39038 148.777" stroke="#3D0303" stroke-width="0.5" stroke-linecap="round" stroke-linejoin="round"/>
<path d="M99.3984 434.853C100.439 419.577 101.766 403.445 109.604 391.039C112.563 386.41 117.176 382.174 122.136 383.1C125.22 383.948 127.952 385.975 129.872 388.84C139.036 400.667 141.547 417.147 143.669 432.816C145.792 448.485 147.996 464.455 150.18 480.264" stroke="#3D0303" stroke-width="0.5" stroke-linecap="round" stroke-linejoin="round"/>
<path d="M132.362 276.724C132.212 278.812 132.308 280.914 132.648 282.973" stroke="#3D0303" stroke-width="0.5" stroke-linecap="round" stroke-linejoin="round"/>
<path d="M64.7818 440.963C64.6317 443.044 64.7279 445.137 65.0676 447.189" stroke="#3D0303" stroke-width="0.5" stroke-linecap="round" stroke-linejoin="round"/>
<path d="M68.6394 449.828C68.4895 451.916 68.5856 454.017 68.9252 456.077" stroke="#3D0303" stroke-width="0.5" stroke-linecap="round" stroke-linejoin="round"/>
<path d="M123.789 674.637C123.649 676.718 123.746 678.811 124.075 680.864" stroke="#3D0303" stroke-width="0.5" stroke-linecap="round" stroke-linejoin="round"/>
<path d="M65.0062 819.851C64.8666 821.939 64.9626 824.039 65.292 826.1" stroke="#3D0303" stroke-width="0.5" stroke-linecap="round" stroke-linejoin="round"/>
<path d="M68.8027 809.644C68.6625 811.724 68.7585 813.817 69.0885 815.87" stroke="#3D0303" stroke-width="0.5" stroke-linecap="round" stroke-linejoin="round"/>
<path d="M134.913 868.271C134.773 870.351 134.869 872.444 135.199 874.497" stroke="#3D0303" stroke-width="0.5" stroke-linecap="round" stroke-linejoin="round"/>
<path d="M224.353 806.589C224.505 808.674 224.896 810.728 225.517 812.699" stroke="#3D0303" stroke-width="0.5" stroke-linecap="round" stroke-linejoin="round"/>
<path d="M277.054 923.032C278.562 924.221 280.202 925.179 281.932 925.879" stroke="#3D0303" stroke-width="0.5" stroke-linecap="round" stroke-linejoin="round"/>
<path d="M183.654 641.47C183.515 643.559 183.611 645.659 183.94 647.719" stroke="#3D0303" stroke-width="0.5" stroke-linecap="round" stroke-linejoin="round"/>
<path d="M186.675 634.11C186.518 636.19 186.607 638.284 186.94 640.336" stroke="#3D0303" stroke-width="0.5" stroke-linecap="round" stroke-linejoin="round"/>
<path d="M135.689 269.086C135.532 271.166 135.622 273.26 135.954 275.312" stroke="#3D0303" stroke-width="0.5" stroke-linecap="round" stroke-linejoin="round"/>
<path d="M223.557 183.588C222.581 185.336 221.806 187.218 221.251 189.189" stroke="#3D0303" stroke-width="0.5" stroke-linecap="round" stroke-linejoin="round"/>
<path d="M116.85 79.1101C116.297 81.0988 115.974 83.1606 115.89 85.2436" stroke="#3D0303" stroke-width="0.5" stroke-linecap="round" stroke-linejoin="round"/>
</svg>
