<svg width="94" height="10" viewBox="0 0 94 10" fill="none" xmlns="http://www.w3.org/2000/svg">
<path fill-rule="evenodd" clip-rule="evenodd" d="M3.03516 6.42721L2.51465 7.06308L3.30109 6.82483C3.69301 6.70609 4.3119 6.48402 4.90436 6.20054C5.01041 6.1498 5.11714 6.09639 5.22267 6.04051C4.81116 6.38447 4.36308 6.7439 4.09232 6.95708L4.30412 7.39688C4.57674 7.33287 5.01429 7.22122 5.44469 7.09342C5.86825 6.96764 6.30814 6.81959 6.57068 6.68014C6.73187 6.59453 6.97706 6.44711 7.25347 6.27446C6.73772 6.73872 6.22335 7.42535 6.37621 8.39156C6.45682 8.90103 6.72433 9.18942 7.05922 9.30504C7.3688 9.41192 7.69424 9.35685 7.89835 9.28097L7.93683 9.26666L7.96872 9.24079C8.05938 9.16725 8.15783 9.07085 8.23809 8.96124C8.31577 8.85514 8.39231 8.71506 8.4061 8.55725C8.42144 8.38164 8.35602 8.21139 8.19977 8.08314C8.14763 8.04033 8.08707 8.00351 8.01866 7.97202C8.04453 7.96179 8.07351 7.95169 8.10595 7.94193C8.38907 7.85684 8.88964 7.81952 9.71916 7.96756C10.784 8.15759 11.4513 8.16872 11.895 8.03124C12.1256 7.9598 12.2969 7.8482 12.4292 7.70443C12.5578 7.56479 12.64 7.40491 12.7068 7.25577C12.8599 6.91431 12.9064 6.40481 12.7345 5.93893C12.5561 5.45571 12.1467 5.03222 11.4241 4.88894C10.7237 4.75005 9.9311 4.90798 9.25664 5.14257C9.01902 5.22522 8.79142 5.31903 8.5822 5.41628C8.69561 5.34127 8.79789 5.27319 8.88377 5.21572L9.56777 4.75795H8.74472C8.39596 4.75795 7.84843 4.78371 7.33255 4.86173C7.07477 4.90072 6.81839 4.95371 6.59602 5.02567C6.55205 5.0399 6.50819 5.05525 6.46499 5.07188L6.73594 4.71929L6.18116 4.75858C4.66053 4.86627 3.45463 5.91476 3.03516 6.42721ZM4.52189 5.82729C4.71183 5.71275 4.91899 5.60587 5.14 5.51595C4.99776 5.59599 4.84597 5.6742 4.68855 5.74951C4.6332 5.776 4.57756 5.80194 4.52189 5.82729ZM6.33614 6.23857C6.12659 6.34987 5.74046 6.48345 5.32122 6.60849C5.73215 6.26968 6.14878 5.91445 6.37484 5.69032C6.43424 5.63143 6.55616 5.56411 6.74998 5.50138C6.93707 5.44083 7.16441 5.39285 7.40732 5.35611C7.55164 5.33428 7.69915 5.31676 7.84389 5.30291C7.27939 5.67083 6.63968 6.07735 6.33614 6.23857ZM6.87007 8.31342C6.72515 7.39745 7.36664 6.78597 7.9604 6.34445C8.23392 6.14106 8.7833 5.83658 9.42089 5.61482C10.0618 5.3919 10.7543 5.26586 11.3269 5.37939C11.8772 5.48853 12.1468 5.79073 12.2654 6.11209C12.3904 6.4508 12.3521 6.82476 12.2506 7.05124C12.1901 7.18607 12.1344 7.2865 12.0614 7.36575C11.9922 7.44087 11.8984 7.50675 11.747 7.55364C11.427 7.6528 10.8637 7.66392 9.807 7.47533C8.93925 7.32047 8.35075 7.34626 7.96203 7.4631C7.58085 7.57767 7.33838 7.80284 7.30819 8.07223L7.28161 8.3094L7.5173 8.34696C7.52879 8.34879 7.53997 8.35067 7.55083 8.35259C7.36694 8.35566 7.21915 8.46747 7.21915 8.60495C7.21915 8.73998 7.36174 8.85025 7.54107 8.85703C7.43695 8.87085 7.32318 8.86721 7.22239 8.83241C7.08205 8.78396 6.92524 8.66217 6.87007 8.31342ZM7.8938 8.56487C7.90267 8.54343 7.9069 8.52624 7.90799 8.51373L7.90816 8.51195C7.90913 8.50206 7.9101 8.49223 7.88253 8.46961C7.86274 8.45336 7.83028 8.43355 7.77984 8.4135C7.83932 8.45155 7.88088 8.50466 7.8938 8.56487ZM7.60964 6.94253L7.92665 7.31216C8.13394 7.20426 8.98514 7.00065 10.3738 7.39404L10.4016 7.4019L10.4304 7.40323C10.999 7.42966 11.3852 7.33926 11.6335 7.17639C11.877 7.01669 11.9809 6.78827 11.966 6.58369C11.9789 6.39194 11.9272 6.12987 11.7364 5.90931C11.5301 5.67068 11.1916 5.51521 10.6966 5.51521C10.1007 5.51521 9.47028 5.68462 8.92471 5.94128C8.3818 6.19669 7.89698 6.55081 7.60964 6.94253ZM10.4817 6.90498C9.74135 6.6983 9.12257 6.64507 8.64705 6.66719C8.79636 6.56902 8.96126 6.47665 9.13756 6.39372C9.63156 6.16131 10.1892 6.01521 10.6966 6.01521C11.0841 6.01521 11.269 6.13319 11.3582 6.23637C11.4538 6.34685 11.4745 6.48003 11.4663 6.55984L11.4632 6.58942L11.4672 6.61888C11.4674 6.62032 11.4685 6.63522 11.4566 6.65934C11.4453 6.68232 11.4192 6.71904 11.3593 6.75831C11.2379 6.83795 10.9808 6.9246 10.4817 6.90498ZM7.5586 8.85253C7.55561 8.85253 7.53334 8.85228 7.50027 8.82769C7.46721 8.8031 7.39805 8.72976 7.39805 8.60495C7.39805 8.48013 7.46721 8.40679 7.50027 8.3822C7.53334 8.35761 7.55561 8.35736 7.5586 8.35736C7.56159 8.35736 7.58386 8.35761 7.61692 8.3822C7.64999 8.40679 7.71915 8.48013 7.71915 8.60495C7.71915 8.72976 7.64999 8.8031 7.61692 8.82769C7.58386 8.85228 7.56159 8.85253 7.5586 8.85253Z" fill="#FF2632"/>
<path fill-rule="evenodd" clip-rule="evenodd" d="M2.98438 3.18766L2.46387 2.55179L3.25031 2.79004C3.64223 2.90877 4.26112 3.13084 4.85358 3.41433C4.95963 3.46507 5.06636 3.51848 5.17189 3.57435C4.76038 3.2304 4.3123 2.87097 4.04153 2.65779L4.25334 2.21798C4.52596 2.282 4.96351 2.39365 5.39391 2.52145C5.81747 2.64723 6.25736 2.79528 6.5199 2.93472C6.68109 3.02034 6.92627 3.16776 7.20269 3.34041C6.68694 2.87615 6.17256 2.18952 6.32543 1.22331C6.40604 0.713836 6.67355 0.425447 7.00844 0.309829C7.31802 0.202949 7.64346 0.258013 7.84757 0.333901L7.88605 0.34821L7.91794 0.374077C8.0086 0.447619 8.10705 0.544017 8.18731 0.653632C8.26499 0.759731 8.34153 0.899811 8.35531 1.05761C8.37066 1.23323 8.30524 1.40348 8.14899 1.53173C8.09685 1.57454 8.03629 1.61136 7.96787 1.64284C7.99375 1.65308 8.02273 1.66318 8.05517 1.67293C8.33829 1.75803 8.83886 1.79535 9.66838 1.64731C10.7332 1.45727 11.4005 1.44615 11.8442 1.58363C12.0748 1.65507 12.2461 1.76667 12.3785 1.91044C12.507 2.05008 12.5892 2.20996 12.6561 2.3591C12.8091 2.70056 12.8557 3.21006 12.6837 3.67593C12.5053 4.15916 12.0959 4.58265 11.3733 4.72593C10.6729 4.86482 9.88032 4.70689 9.20586 4.4723C8.96824 4.38965 8.74064 4.29584 8.53142 4.19858C8.64483 4.2736 8.74711 4.34168 8.83299 4.39915L9.51699 4.85692H8.69394C8.34518 4.85692 7.79765 4.83116 7.28177 4.75314C7.02399 4.71415 6.7676 4.66116 6.54524 4.5892C6.50127 4.57497 6.45741 4.55962 6.41421 4.54299L6.68516 4.89558L6.13038 4.85629C4.60975 4.7486 3.40385 3.7001 2.98438 3.18766ZM4.47111 3.78758C4.66105 3.90211 4.86821 4.009 5.08922 4.09892C4.94698 4.01888 4.79519 3.94067 4.63777 3.86535C4.58241 3.83887 4.52678 3.81293 4.47111 3.78758ZM6.28536 3.3763C6.07581 3.265 5.68968 3.13142 5.27044 3.00638C5.68136 3.34519 6.098 3.70042 6.32406 3.92455C6.38346 3.98344 6.50538 4.05076 6.69919 4.11349C6.88629 4.17404 7.11363 4.22202 7.35654 4.25876C7.50086 4.28059 7.64837 4.29811 7.79311 4.31196C7.2286 3.94404 6.5889 3.53752 6.28536 3.3763ZM6.81929 1.30144C6.67437 2.21741 7.31586 2.8289 7.90962 3.27042C8.18314 3.47381 8.73252 3.77829 9.37011 4.00005C10.011 4.22297 10.7035 4.34901 11.2761 4.23548C11.8265 4.12634 12.096 3.82413 12.2146 3.50278C12.3396 3.16407 12.3013 2.79011 12.1998 2.56363C12.1394 2.4288 12.0836 2.32837 12.0106 2.24912C11.9415 2.174 11.8476 2.10812 11.6962 2.06123C11.3762 1.96207 10.813 1.95094 9.75622 2.13953C8.88847 2.2944 8.29997 2.26861 7.91125 2.15177C7.53007 2.0372 7.2876 1.81203 7.25741 1.54264L7.23083 1.30546L7.46652 1.26791C7.47801 1.26608 7.48918 1.2642 7.50005 1.26228C7.31616 1.2592 7.16837 1.1474 7.16837 1.00992C7.16837 0.874887 7.31096 0.764617 7.49029 0.757835C7.38617 0.744017 7.2724 0.747658 7.17161 0.782455C7.03126 0.830909 6.87446 0.952699 6.81929 1.30144ZM7.84302 1.05C7.85189 1.07144 7.85612 1.08862 7.85721 1.10114L7.85738 1.10292C7.85835 1.11281 7.85932 1.12264 7.83175 1.14526C7.81196 1.16151 7.7795 1.18132 7.72906 1.20137C7.78854 1.16332 7.8301 1.11021 7.84302 1.05ZM7.55886 2.67233L7.87587 2.30271C8.08316 2.41061 8.93436 2.61422 10.3231 2.22083L10.3508 2.21297L10.3796 2.21163C10.9483 2.18521 11.3344 2.2756 11.5828 2.43848C11.8262 2.59818 11.9301 2.8266 11.9152 3.03117C11.9281 3.22293 11.8764 3.48499 11.6856 3.70556C11.4793 3.94419 11.1408 4.09966 10.6458 4.09966C10.0499 4.09966 9.4195 3.93025 8.87393 3.67359C8.33102 3.41818 7.8462 3.06406 7.55886 2.67233ZM10.4309 2.70989C9.69057 2.91657 9.07178 2.9698 8.59627 2.94768C8.74558 3.04585 8.91048 3.13822 9.08678 3.22115C9.58078 3.45355 10.1385 3.59966 10.6458 3.59966C11.0333 3.59966 11.2182 3.48168 11.3075 3.37849C11.403 3.26802 11.4237 3.13484 11.4155 3.05503L11.4124 3.02545L11.4164 2.99598C11.4166 2.99455 11.4178 2.97964 11.4058 2.95552C11.3945 2.93255 11.3684 2.89583 11.3085 2.85656C11.1871 2.77692 10.93 2.69027 10.4309 2.70989ZM7.50782 0.76234C7.50483 0.76234 7.48256 0.76259 7.44949 0.78718C7.41643 0.811766 7.34727 0.885108 7.34727 1.00992C7.34727 1.13474 7.41643 1.20808 7.44949 1.23267C7.48256 1.25726 7.50483 1.2575 7.50782 1.2575C7.51081 1.2575 7.53307 1.25726 7.56614 1.23267C7.59921 1.20808 7.66837 1.13474 7.66837 1.00992C7.66837 0.885108 7.59921 0.811766 7.56614 0.78718C7.53307 0.76259 7.51081 0.76234 7.50782 0.76234Z" fill="#FF2632"/>
<path fill-rule="evenodd" clip-rule="evenodd" d="M90.6055 6.45944L91.126 7.0953L90.3395 6.85705C89.9476 6.73832 89.3287 6.51625 88.7363 6.23277C88.6302 6.18203 88.5235 6.12862 88.418 6.07274C88.8295 6.41669 89.2775 6.77612 89.5483 6.98931L89.3365 7.42911C89.0639 7.36509 88.6263 7.25345 88.1959 7.12564C87.7724 6.99987 87.3325 6.85182 87.0699 6.71237C86.9088 6.62676 86.6636 6.47933 86.3872 6.30669C86.9029 6.77095 87.4173 7.45758 87.2644 8.42378C87.1838 8.93326 86.9163 9.22165 86.5814 9.33727C86.2718 9.44415 85.9464 9.38908 85.7423 9.31319L85.7038 9.29888L85.6719 9.27302C85.5812 9.19948 85.4828 9.10308 85.4025 8.99346C85.3249 8.88736 85.2483 8.74728 85.2345 8.58948C85.2192 8.41387 85.2846 8.24362 85.4409 8.11536C85.493 8.07256 85.5536 8.03574 85.622 8.00425C85.5961 7.99402 85.5671 7.98391 85.5347 7.97416C85.2516 7.88906 84.751 7.85175 83.9215 7.99978C82.8566 8.18982 82.1893 8.20095 81.7456 8.06346C81.5151 7.99203 81.3438 7.88043 81.2114 7.73666C81.0828 7.59701 81.0006 7.43714 80.9338 7.28799C80.7807 6.94654 80.7342 6.43704 80.9062 5.97116C81.0846 5.48794 81.494 5.06444 82.2165 4.92116C82.9169 4.78228 83.7095 4.94021 84.384 5.1748C84.6216 5.25744 84.8492 5.35125 85.0584 5.44851C84.945 5.37349 84.8427 5.30542 84.7569 5.24794L84.0729 4.79018H84.8959C85.2447 4.79018 85.7922 4.81594 86.3081 4.89396C86.5659 4.93294 86.8222 4.98593 87.0446 5.0579C87.0886 5.07213 87.1324 5.08748 87.1756 5.10411L86.9047 4.75151L87.4595 4.7908C88.9801 4.89849 90.186 5.94699 90.6055 6.45944ZM89.1187 5.85951C88.9288 5.74498 88.7216 5.6381 88.5006 5.54818C88.6429 5.62821 88.7947 5.70642 88.9521 5.78174C89.0074 5.80823 89.0631 5.83417 89.1187 5.85951ZM87.3045 6.27079C87.514 6.3821 87.9002 6.51568 88.3194 6.64072C87.9085 6.30191 87.4918 5.94668 87.2658 5.72255C87.2064 5.66366 87.0845 5.59633 86.8906 5.53361C86.7036 5.47305 86.4762 5.42507 86.2333 5.38834C86.089 5.36651 85.9415 5.34899 85.7967 5.33514C86.3612 5.70305 87.0009 6.10957 87.3045 6.27079ZM86.7706 8.34565C86.9155 7.42968 86.274 6.8182 85.6802 6.37668C85.4067 6.17329 84.8573 5.86881 84.2197 5.64705C83.5788 5.42413 82.8863 5.29808 82.3138 5.41162C81.7634 5.52075 81.4939 5.82296 81.3752 6.14432C81.2502 6.48302 81.2885 6.85699 81.39 7.08347C81.4505 7.21829 81.5062 7.31873 81.5792 7.39798C81.6484 7.4731 81.7423 7.53898 81.8936 7.58586C82.2136 7.68503 82.7769 7.69615 83.8336 7.50756C84.7014 7.3527 85.2899 7.37848 85.6786 7.49532C86.0598 7.60989 86.3022 7.83507 86.3324 8.10446L86.359 8.34163L86.1233 8.37918C86.1118 8.38102 86.1007 8.3829 86.0898 8.38482C86.2737 8.38789 86.4215 8.4997 86.4215 8.63717C86.4215 8.77221 86.2789 8.88248 86.0996 8.88926C86.2037 8.90308 86.3174 8.89944 86.4182 8.86464C86.5586 8.81619 86.7154 8.6944 86.7706 8.34565ZM85.7468 8.59709C85.738 8.57566 85.7337 8.55847 85.7326 8.54596L85.7325 8.54418C85.7315 8.53428 85.7305 8.52446 85.7581 8.50183C85.7779 8.48559 85.8103 8.46578 85.8608 8.44573C85.8013 8.48377 85.7597 8.53688 85.7468 8.59709ZM86.031 6.97476L85.714 7.34438C85.5067 7.23649 84.6555 7.03288 83.2668 7.42627L83.239 7.43412L83.2102 7.43546C82.6416 7.46189 82.2554 7.37149 82.0071 7.20861C81.7636 7.04892 81.6597 6.8205 81.6747 6.61592C81.6617 6.42417 81.7134 6.1621 81.9042 5.94154C82.1106 5.7029 82.449 5.54744 82.944 5.54744C83.5399 5.54744 84.1703 5.71685 84.7159 5.97351C85.2588 6.22891 85.7436 6.58304 86.031 6.97476ZM83.1589 6.93721C83.8993 6.73053 84.5181 6.67729 84.9936 6.69942C84.8443 6.60124 84.6794 6.50888 84.5031 6.42594C84.0091 6.19354 83.4514 6.04744 82.944 6.04744C82.5565 6.04744 82.3716 6.16542 82.2824 6.2686C82.1869 6.37907 82.1661 6.51225 82.1744 6.59207L82.1774 6.62164L82.1735 6.65111C82.1733 6.65254 82.1721 6.66745 82.184 6.69157C82.1954 6.71455 82.2215 6.75127 82.2813 6.79053C82.4027 6.87018 82.6598 6.95683 83.1589 6.93721ZM86.082 8.88475C86.085 8.88475 86.1073 8.88451 86.1404 8.85991C86.1734 8.83533 86.2426 8.76199 86.2426 8.63717C86.2426 8.51236 86.1734 8.43902 86.1404 8.41443C86.1073 8.38984 86.085 8.38959 86.082 8.38959C86.079 8.38959 86.0568 8.38984 86.0237 8.41443C85.9906 8.43902 85.9215 8.51236 85.9215 8.63717C85.9215 8.76199 85.9906 8.83533 86.0237 8.85991C86.0568 8.88451 86.079 8.88475 86.082 8.88475Z" fill="#FF2632"/>
<path fill-rule="evenodd" clip-rule="evenodd" d="M90.6567 3.21989L91.1772 2.58402L90.3908 2.82227C89.9989 2.941 89.38 3.16307 88.7875 3.44655C88.6815 3.49729 88.5748 3.5507 88.4692 3.60658C88.8807 3.26263 89.3288 2.9032 89.5996 2.69001L89.3878 2.25021C89.1152 2.31423 88.6776 2.42587 88.2472 2.55368C87.8236 2.67945 87.3838 2.8275 87.1212 2.96695C86.96 3.05256 86.7148 3.19999 86.4384 3.37263C86.9542 2.90837 87.4685 2.22174 87.3157 1.25554C87.2351 0.746062 86.9676 0.457674 86.6327 0.342056C86.3231 0.235176 85.9977 0.29024 85.7935 0.366128L85.7551 0.380437L85.7232 0.406304C85.6325 0.479846 85.5341 0.576244 85.4538 0.685859C85.3761 0.791958 85.2996 0.932037 85.2858 1.08984C85.2705 1.26545 85.3359 1.4357 85.4921 1.56396C85.5443 1.60676 85.6048 1.64358 85.6732 1.67507C85.6474 1.6853 85.6184 1.69541 85.5859 1.70516C85.3028 1.79026 84.8023 1.82758 83.9727 1.67954C82.9079 1.4895 82.2406 1.47838 81.7969 1.61586C81.5663 1.68729 81.395 1.7989 81.2627 1.94267C81.1341 2.08231 81.0519 2.24218 80.9851 2.39133C80.832 2.73278 80.7855 3.24229 80.9574 3.70816C81.1358 4.19138 81.5452 4.61488 82.2678 4.75816C82.9682 4.89704 83.7608 4.73911 84.4353 4.50453C84.6729 4.42188 84.9005 4.32807 85.1097 4.23081C84.9963 4.30583 84.894 4.3739 84.8081 4.43138L84.1241 4.88914H84.9472C85.2959 4.88914 85.8435 4.86339 86.3593 4.78536C86.6171 4.74638 86.8735 4.69339 87.0959 4.62142C87.1398 4.60719 87.1837 4.59185 87.2269 4.57521L86.956 4.92781L87.5107 4.88852C89.0314 4.78083 90.2373 3.73233 90.6567 3.21989ZM89.17 3.81981C88.9801 3.93434 88.7729 4.04123 88.5519 4.13114C88.6941 4.05111 88.8459 3.9729 89.0033 3.89758C89.0587 3.87109 89.1143 3.84515 89.17 3.81981ZM87.3558 3.40853C87.5653 3.29722 87.9514 3.16364 88.3707 3.0386C87.9597 3.37741 87.5431 3.73264 87.3171 3.95677C87.2577 4.01566 87.1357 4.08299 86.9419 4.14572C86.7548 4.20627 86.5275 4.25425 86.2846 4.29099C86.1403 4.31281 85.9927 4.33034 85.848 4.34419C86.4125 3.97627 87.0522 3.56975 87.3558 3.40853ZM86.8218 1.33367C86.9667 2.24964 86.3253 2.86113 85.7315 3.30264C85.458 3.50603 84.9086 3.81051 84.271 4.03228C83.6301 4.2552 82.9376 4.38124 82.365 4.26771C81.8146 4.15857 81.5451 3.85636 81.4265 3.535C81.3015 3.1963 81.3398 2.82234 81.4413 2.59585C81.5018 2.46103 81.5575 2.3606 81.6305 2.28135C81.6996 2.20622 81.7935 2.14034 81.9449 2.09346C82.2649 1.9943 82.8282 1.98317 83.8849 2.17176C84.7526 2.32662 85.3411 2.30084 85.7299 2.184C86.111 2.06943 86.3535 1.84425 86.3837 1.57486L86.4103 1.33769L86.1746 1.30014C86.1631 1.29831 86.1519 1.29643 86.1411 1.2945C86.325 1.29143 86.4727 1.17962 86.4727 1.04215C86.4727 0.907113 86.3302 0.796844 86.1508 0.790062C86.2549 0.776244 86.3687 0.779885 86.4695 0.814682C86.6098 0.863135 86.7667 0.984926 86.8218 1.33367ZM85.7981 1.08223C85.7892 1.10366 85.785 1.12085 85.7839 1.13336L85.7837 1.13515C85.7828 1.14504 85.7818 1.15486 85.8094 1.17749C85.8292 1.19373 85.8616 1.21354 85.9121 1.23359C85.8526 1.19555 85.811 1.14244 85.7981 1.08223ZM86.0823 2.70456L85.7652 2.33494C85.558 2.44283 84.7068 2.64644 83.318 2.25306L83.2903 2.2452L83.2615 2.24386C82.6929 2.21743 82.3067 2.30783 82.0584 2.47071C81.8149 2.63041 81.711 2.85882 81.7259 3.0634C81.713 3.25516 81.7647 3.51722 81.9555 3.73779C82.1618 3.97642 82.5003 4.13189 82.9953 4.13189C83.5912 4.13189 84.2216 3.96247 84.7672 3.70581C85.3101 3.45041 85.7949 3.09628 86.0823 2.70456ZM83.2102 2.74211C83.9505 2.94879 84.5693 3.00203 85.0448 2.97991C84.8955 3.07808 84.7306 3.17044 84.5543 3.25338C84.0603 3.48578 83.5027 3.63189 82.9953 3.63189C82.6078 3.63189 82.4229 3.5139 82.3337 3.41072C82.2381 3.30025 82.2174 3.16707 82.2256 3.08726L82.2287 3.05768L82.2247 3.02821C82.2245 3.02678 82.2233 3.01187 82.2353 2.98775C82.2466 2.96478 82.2727 2.92805 82.3326 2.88879C82.454 2.80914 82.7111 2.72249 83.2102 2.74211ZM86.1333 0.794567C86.1363 0.794567 86.1586 0.794816 86.1916 0.819407C86.2247 0.843993 86.2938 0.917334 86.2938 1.04215C86.2938 1.16696 86.2247 1.24031 86.1916 1.26489C86.1586 1.28948 86.1363 1.28973 86.1333 1.28973C86.1303 1.28973 86.108 1.28948 86.075 1.26489C86.0419 1.24031 85.9727 1.16696 85.9727 1.04215C85.9727 0.917334 86.0419 0.843993 86.075 0.819407C86.108 0.794816 86.1303 0.794567 86.1333 0.794567Z" fill="#FF2632"/>
<path d="M0 4.8236L93.6042 4.82355" stroke="#FF2632" stroke-width="0.5"/>
</svg>
