<svg width="190" height="219" viewBox="0 0 190 219" fill="none" xmlns="http://www.w3.org/2000/svg">
<path d="M95.0005 1.15417L189 55.3279V163.672L95.0005 217.846L1.00049 163.672L1.00049 55.3279L95.0005 1.15417Z" stroke="#554F39" stroke-opacity="0.7" stroke-width="2"/>
<path d="M95.0005 1.15417L189 55.3279V163.672L95.0005 217.846L1.00049 163.672L1.00049 55.3279L95.0005 1.15417Z" stroke="url(#paint0_linear_922_8378)" stroke-width="2"/>
<path d="M43.748 93.2849C41.9246 93.2849 40.481 92.981 39.4173 92.3732C38.3536 91.7464 37.5938 90.8251 37.1379 89.6095C36.7011 88.3938 36.4826 86.8173 36.4826 84.8798V77.6144C36.4826 76.6457 36.3497 75.9334 36.0837 75.4775C35.8178 75.0027 35.286 74.7652 34.4882 74.7652H33.9184V74.1954H36.4826C37.1854 74.1954 37.7078 74.2904 38.0497 74.4803C38.4106 74.6513 38.667 74.9742 38.8189 75.449C38.9709 75.9239 39.0469 76.6457 39.0469 77.6144V85.7346C39.0469 87.843 39.4363 89.4385 40.215 90.5212C40.9938 91.6039 42.2855 92.1452 44.0899 92.1452C45.5335 92.1452 46.6732 91.8888 47.5089 91.376C48.3637 90.8631 48.9715 90.0843 49.3324 89.0396C49.6933 87.9949 49.8738 86.6083 49.8738 84.8798V74.1954H51.0134V84.8798C51.0134 86.8553 50.8045 88.4508 50.3866 89.6665C49.9687 90.8631 49.228 91.7654 48.1643 92.3732C47.1196 92.981 45.6475 93.2849 43.748 93.2849ZM55.701 83.0279C55.701 82.0591 55.568 81.3469 55.3021 80.891C55.0362 80.4161 54.5044 80.1787 53.7066 80.1787H53.1367V79.6089H55.701C56.4228 79.6089 56.9641 79.7133 57.325 79.9223C57.7049 80.1122 57.9709 80.4351 58.1228 80.891H58.2653C58.6072 80.4541 59.0915 80.0837 59.7184 79.7798C60.3452 79.4759 61.1429 79.3239 62.1117 79.3239C63.7452 79.3239 65.0083 79.9887 65.9011 81.3184C66.7938 82.629 67.2402 84.291 67.2402 86.3044C67.2402 88.3368 66.7748 90.0084 65.8441 91.319C64.9324 92.6296 63.5932 93.2849 61.8267 93.2849C61.105 93.2849 60.4686 93.2089 59.9178 93.057C59.367 92.905 58.8161 92.6961 58.2653 92.4302V98.4134H55.701V83.0279ZM60.972 92.1452C62.1876 92.1452 63.0804 91.6134 63.6502 90.5497C64.2391 89.486 64.5335 88.0709 64.5335 86.3044C64.5335 84.5569 64.258 83.1513 63.7072 82.0876C63.1564 81.0049 62.3396 80.4636 61.2569 80.4636C59.9843 80.4636 58.9871 81.0334 58.2653 82.1731V91.2905C58.8351 91.5564 59.329 91.7654 59.7468 91.9173C60.1647 92.0693 60.5731 92.1452 60.972 92.1452ZM76.1036 93.2849C74.736 93.2849 73.5773 92.981 72.6276 92.3732C71.6969 91.7464 70.9941 90.9106 70.5192 89.8659C70.0633 88.8022 69.8354 87.615 69.8354 86.3044C69.8354 84.9938 70.0633 83.8161 70.5192 82.7714C70.9941 81.7077 71.6969 80.872 72.6276 80.2642C73.5773 79.6373 74.736 79.3239 76.1036 79.3239C78.193 79.3239 79.5701 79.6563 80.2349 80.3211C80.5578 80.6441 80.7573 81.0429 80.8332 81.5178C80.9092 81.9737 80.9472 82.8094 80.9472 84.0251H80.3774C80.3014 82.8474 79.931 81.9642 79.2662 81.3753C78.6014 80.7675 77.7371 80.4636 76.6734 80.4636C75.3058 80.4636 74.2706 81.0049 73.5678 82.0876C72.884 83.1703 72.5421 84.5759 72.5421 86.3044C72.5421 88.0329 72.884 89.4385 73.5678 90.5212C74.2706 91.6039 75.3058 92.1452 76.6734 92.1452C77.6421 92.1452 78.4399 91.9648 79.0667 91.6039C79.6936 91.224 80.2729 90.6447 80.8047 89.8659L81.3746 90.2933C80.7478 91.357 80.007 92.1263 79.1522 92.6011C78.2975 93.057 77.2813 93.2849 76.1036 93.2849ZM89.8765 93.2849C88.5849 93.2849 87.4642 92.981 86.5145 92.3732C85.5647 91.7464 84.8429 90.9011 84.3491 89.8374C83.8552 88.7737 83.6083 87.5961 83.6083 86.3044C83.6083 85.0128 83.8552 83.8351 84.3491 82.7714C84.8429 81.7077 85.5647 80.872 86.5145 80.2642C87.4642 79.6373 88.5849 79.3239 89.8765 79.3239C91.1681 79.3239 92.2888 79.6373 93.2385 80.2642C94.1882 80.872 94.91 81.7077 95.4039 82.7714C95.8978 83.8351 96.1447 85.0128 96.1447 86.3044C96.1447 87.5961 95.8978 88.7737 95.4039 89.8374C94.91 90.9011 94.1882 91.7464 93.2385 92.3732C92.2888 92.981 91.1681 93.2849 89.8765 93.2849ZM89.8765 92.1452C90.5793 92.1452 91.1966 91.8888 91.7285 91.376C92.2793 90.8631 92.6972 90.1603 92.9821 89.2676C93.286 88.3748 93.438 87.3871 93.438 86.3044C93.438 85.2217 93.286 84.234 92.9821 83.3413C92.6972 82.4485 92.2793 81.7457 91.7285 81.2329C91.1966 80.72 90.5793 80.4636 89.8765 80.4636C89.1737 80.4636 88.5469 80.72 87.996 81.2329C87.4642 81.7457 87.0463 82.4485 86.7424 83.3413C86.4575 84.234 86.315 85.2217 86.315 86.3044C86.315 87.3871 86.4575 88.3748 86.7424 89.2676C87.0463 90.1603 87.4642 90.8631 87.996 91.376C88.5469 91.8888 89.1737 92.1452 89.8765 92.1452ZM99.9134 83.0279C99.9134 82.0591 99.7804 81.3469 99.5145 80.891C99.2486 80.4161 98.7167 80.1787 97.919 80.1787H97.3491V79.6089H99.9134C100.616 79.6089 101.148 79.7038 101.509 79.8938C101.889 80.0837 102.164 80.3686 102.335 80.7485H102.478C102.877 80.3496 103.389 80.0172 104.016 79.7513C104.662 79.4664 105.384 79.3239 106.182 79.3239C106.979 79.3239 107.663 79.4759 108.233 79.7798C108.803 80.0647 109.259 80.5776 109.601 81.3184C110.094 80.6915 110.721 80.2072 111.481 79.8653C112.26 79.5044 113.058 79.3239 113.874 79.3239C115.09 79.3239 116.059 79.7038 116.781 80.4636C117.502 81.2234 117.863 82.553 117.863 84.4525V93H115.299V84.4525C115.299 83.0849 115.109 82.1066 114.729 81.5178C114.349 80.91 113.779 80.6061 113.02 80.6061C112.488 80.6061 111.927 80.8055 111.339 81.2044C110.75 81.5843 110.313 82.0022 110.028 82.458C110.123 82.743 110.17 83.4078 110.17 84.4525V93H107.606V84.4525C107.606 83.0849 107.416 82.1066 107.036 81.5178C106.656 80.91 106.087 80.6061 105.327 80.6061C104.32 80.6061 103.37 81.1094 102.478 82.1161V93H99.9134V83.0279ZM123.367 77.8993C122.93 77.8993 122.55 77.7189 122.227 77.358C121.923 76.9971 121.771 76.5697 121.771 76.0759C121.771 75.677 121.885 75.3636 122.113 75.1356C122.36 74.9077 122.683 74.7937 123.082 74.7937C123.519 74.7937 123.889 74.9742 124.193 75.3351C124.516 75.696 124.677 76.1234 124.677 76.6172C124.677 77.0161 124.554 77.3295 124.307 77.5574C124.079 77.7854 123.765 77.8993 123.367 77.8993ZM122.284 83.0279C122.284 82.0591 122.151 81.3469 121.885 80.891C121.619 80.4161 121.087 80.1787 120.289 80.1787H119.72V79.6089H122.284C122.987 79.6089 123.509 79.7038 123.851 79.8938C124.212 80.0647 124.468 80.3876 124.62 80.8625C124.772 81.3374 124.848 82.0591 124.848 83.0279V93H122.284V83.0279ZM129.296 83.0279C129.296 82.0591 129.163 81.3469 128.897 80.891C128.631 80.4161 128.099 80.1787 127.301 80.1787H126.731V79.6089H129.296C129.998 79.6089 130.53 79.7038 130.891 79.8938C131.271 80.0837 131.546 80.3686 131.717 80.7485H131.86C132.259 80.3496 132.772 80.0172 133.398 79.7513C134.044 79.4664 134.766 79.3239 135.564 79.3239C136.988 79.3239 138.147 79.7038 139.04 80.4636C139.951 81.2234 140.407 82.553 140.407 84.4525V93H137.843V84.4525C137.843 83.1228 137.539 82.1541 136.931 81.5463C136.343 80.9195 135.602 80.6061 134.709 80.6061C133.702 80.6061 132.753 81.1094 131.86 82.1161V93H129.296V83.0279ZM149.324 98.6984C147.405 98.6984 145.876 98.347 144.737 97.6442C143.616 96.9414 143.056 95.8207 143.056 94.2821C143.056 93.4084 143.35 92.6486 143.939 92.0028C144.528 91.357 145.278 90.8821 146.19 90.5782C145.43 90.1603 145.05 89.5905 145.05 88.8687C145.05 88.4888 145.135 88.1944 145.306 87.9854C145.477 87.7765 145.724 87.5486 146.047 87.3016C145.439 86.9977 144.927 86.5229 144.509 85.877C144.11 85.2312 143.91 84.4715 143.91 83.5977C143.91 80.7485 145.715 79.3239 149.324 79.3239H154.595V80.0362L152.743 80.3211V80.4636C153.332 80.7675 153.806 81.1949 154.167 81.7457C154.547 82.2776 154.737 82.8949 154.737 83.5977C154.737 86.4469 152.933 87.8715 149.324 87.8715C147.329 87.8715 146.332 88.2039 146.332 88.8687C146.332 89.5335 147.329 89.8659 149.324 89.8659C151.166 89.8659 152.667 90.2363 153.825 90.9771C155.003 91.6989 155.592 92.8006 155.592 94.2821C155.592 95.8207 155.022 96.9414 153.882 97.6442C152.762 98.347 151.242 98.6984 149.324 98.6984ZM149.324 86.8743C150.178 86.8743 150.862 86.6178 151.375 86.105C151.907 85.5731 152.173 84.7374 152.173 83.5977C152.173 82.515 151.907 81.6983 151.375 81.1474C150.862 80.5966 150.178 80.3211 149.324 80.3211C148.469 80.3211 147.776 80.5871 147.244 81.1189C146.731 81.6318 146.475 82.458 146.475 83.5977C146.475 84.7374 146.731 85.5731 147.244 86.105C147.776 86.6178 148.469 86.8743 149.324 86.8743ZM149.324 97.5587C150.463 97.5587 151.366 97.2833 152.03 96.7324C152.695 96.2006 153.028 95.3838 153.028 94.2821C153.028 92.3827 151.888 91.2905 149.609 91.0056L148.042 90.8631C147.263 91.167 146.665 91.5944 146.247 92.1452C145.829 92.6961 145.62 93.4084 145.62 94.2821C145.62 95.3838 145.952 96.2006 146.617 96.7324C147.282 97.2833 148.184 97.5587 149.324 97.5587ZM20.5163 102.614C20.5163 101.646 20.3833 100.933 20.1174 100.478C19.8515 100.003 19.3196 99.7652 18.5219 99.7652H17.952V99.1954H25.3599C27.4303 99.1954 29.2253 99.5373 30.7449 100.221C32.2834 100.905 33.0527 102.225 33.0527 104.181C33.0527 105.074 32.7488 105.881 32.141 106.603C31.5331 107.325 30.6024 107.895 29.3488 108.313C31.0963 108.598 32.3119 109.12 32.9957 109.88C33.6985 110.621 34.0499 111.618 34.0499 112.871C34.0499 114.79 33.2901 116.129 31.7706 116.889C30.27 117.63 28.418 118 26.2147 118H20.5163V102.614ZM25.7873 107.885C26.5661 107.885 27.2974 107.743 27.9812 107.458C28.684 107.154 29.2538 106.717 29.6907 106.147C30.1275 105.559 30.346 104.856 30.346 104.039C30.346 103.184 30.0895 102.472 29.5767 101.902C29.0638 101.313 28.4085 100.886 27.6108 100.62C26.832 100.335 26.0342 100.193 25.2174 100.193C24.5526 100.193 23.8403 100.288 23.0806 100.478V107.885H25.7873ZM25.7873 117.003C27.5158 117.003 28.8454 116.661 29.7761 115.977C30.7259 115.293 31.2007 114.306 31.2007 113.014C31.2007 111.722 30.7354 110.735 29.8046 110.051C28.8929 109.367 27.5538 109.025 25.7873 109.025H23.0806V116.604C23.9923 116.87 24.8945 117.003 25.7873 117.003ZM42.7704 118.285C41.4788 118.285 40.3581 117.981 39.4084 117.373C38.4586 116.746 37.7369 115.901 37.243 114.837C36.7491 113.774 36.5022 112.596 36.5022 111.304C36.5022 110.013 36.7491 108.835 37.243 107.771C37.7369 106.708 38.4586 105.872 39.4084 105.264C40.3581 104.637 41.4788 104.324 42.7704 104.324C44.062 104.324 45.1827 104.637 46.1324 105.264C47.0822 105.872 47.804 106.708 48.2978 107.771C48.7917 108.835 49.0386 110.013 49.0386 111.304C49.0386 112.596 48.7917 113.774 48.2978 114.837C47.804 115.901 47.0822 116.746 46.1324 117.373C45.1827 117.981 44.062 118.285 42.7704 118.285ZM42.7704 117.145C43.4732 117.145 44.0905 116.889 44.6224 116.376C45.1732 115.863 45.5911 115.16 45.876 114.268C46.1799 113.375 46.3319 112.387 46.3319 111.304C46.3319 110.222 46.1799 109.234 45.876 108.341C45.5911 107.449 45.1732 106.746 44.6224 106.233C44.0905 105.72 43.4732 105.464 42.7704 105.464C42.0676 105.464 41.4408 105.72 40.8899 106.233C40.3581 106.746 39.9402 107.449 39.6363 108.341C39.3514 109.234 39.2089 110.222 39.2089 111.304C39.2089 112.387 39.3514 113.375 39.6363 114.268C39.9402 115.16 40.3581 115.863 40.8899 116.376C41.4408 116.889 42.0676 117.145 42.7704 117.145ZM52.6079 108.028C52.6079 107.059 52.4749 106.347 52.209 105.891C51.9431 105.416 51.4112 105.179 50.6134 105.179H50.3285V104.609H52.6079C53.3297 104.609 53.871 104.713 54.2319 104.922C54.6118 105.112 54.8777 105.435 55.0297 105.891H55.1721C55.514 105.454 55.9699 105.084 56.5397 104.78C57.1286 104.476 57.8124 104.324 58.5911 104.324C59.3509 104.324 59.9208 104.466 60.3007 104.751C60.6236 104.998 60.956 105.426 61.2979 106.033L60.1582 106.888C59.9493 106.603 59.6453 106.394 59.2465 106.261C58.8476 106.109 58.3917 106.033 57.8789 106.033C57.309 106.033 56.7867 106.166 56.3118 106.432C55.8369 106.679 55.457 107.021 55.1721 107.458V118H52.6079V108.028ZM63.7043 102.614C63.7043 101.646 63.5713 100.933 63.3054 100.478C63.0395 100.003 62.5077 99.7652 61.7099 99.7652H61.14V99.1954H63.7043C64.4071 99.1954 64.9295 99.2904 65.2714 99.4803C65.6323 99.6513 65.8887 99.9742 66.0406 100.449C66.1926 100.924 66.2686 101.646 66.2686 102.614V105.749C66.6675 105.35 67.1803 105.017 67.8071 104.751C68.4529 104.466 69.1747 104.324 69.9725 104.324C71.3971 104.324 72.5558 104.704 73.4485 105.464C74.3602 106.223 74.8161 107.553 74.8161 109.452V118H72.2519V109.452C72.2519 108.123 71.9479 107.154 71.3401 106.546C70.7513 105.919 70.0105 105.606 69.1178 105.606C68.111 105.606 67.1613 106.109 66.2686 107.116V118H63.7043V102.614ZM84.2839 118.285C82.9922 118.285 81.8715 117.981 80.9218 117.373C79.9721 116.746 79.2503 115.901 78.7564 114.837C78.2626 113.774 78.0157 112.596 78.0157 111.304C78.0157 110.013 78.2626 108.835 78.7564 107.771C79.2503 106.708 79.9721 105.872 80.9218 105.264C81.8715 104.637 82.9922 104.324 84.2839 104.324C85.5755 104.324 86.6962 104.637 87.6459 105.264C88.5956 105.872 89.3174 106.708 89.8113 107.771C90.3051 108.835 90.552 110.013 90.552 111.304C90.552 112.596 90.3051 113.774 89.8113 114.837C89.3174 115.901 88.5956 116.746 87.6459 117.373C86.6962 117.981 85.5755 118.285 84.2839 118.285ZM84.2839 117.145C84.9867 117.145 85.604 116.889 86.1358 116.376C86.6867 115.863 87.1045 115.16 87.3895 114.268C87.6934 113.375 87.8453 112.387 87.8453 111.304C87.8453 110.222 87.6934 109.234 87.3895 108.341C87.1045 107.449 86.6867 106.746 86.1358 106.233C85.604 105.72 84.9867 105.464 84.2839 105.464C83.5811 105.464 82.9542 105.72 82.4034 106.233C81.8715 106.746 81.4537 107.449 81.1498 108.341C80.8648 109.234 80.7224 110.222 80.7224 111.304C80.7224 112.387 80.8648 113.375 81.1498 114.268C81.4537 115.16 81.8715 115.863 82.4034 116.376C82.9542 116.889 83.5811 117.145 84.2839 117.145ZM94.3208 108.028C94.3208 107.059 94.1878 106.347 93.9219 105.891C93.656 105.416 93.1241 105.179 92.3263 105.179H91.7565V104.609H94.3208C95.0236 104.609 95.5554 104.704 95.9163 104.894C96.2962 105.084 96.5716 105.369 96.7426 105.749H96.885C97.2839 105.35 97.7968 105.017 98.4236 104.751C99.0694 104.466 99.7912 104.324 100.589 104.324C101.387 104.324 102.071 104.476 102.64 104.78C103.21 105.065 103.666 105.578 104.008 106.318C104.502 105.692 105.129 105.207 105.888 104.865C106.667 104.504 107.465 104.324 108.282 104.324C109.497 104.324 110.466 104.704 111.188 105.464C111.91 106.223 112.271 107.553 112.271 109.452V118H109.706V109.452C109.706 108.085 109.516 107.107 109.136 106.518C108.757 105.91 108.187 105.606 107.427 105.606C106.895 105.606 106.335 105.806 105.746 106.204C105.157 106.584 104.72 107.002 104.435 107.458C104.53 107.743 104.578 108.408 104.578 109.452V118H102.014V109.452C102.014 108.085 101.824 107.107 101.444 106.518C101.064 105.91 100.494 105.606 99.7342 105.606C98.7275 105.606 97.7778 106.109 96.885 107.116V118H94.3208V108.028ZM120.224 118.285C119.161 118.285 118.325 117.981 117.717 117.373C117.109 116.765 116.805 115.835 116.805 114.581V105.749H114.811V104.609H116.805V102.045L118.23 100.335H119.37V104.609H122.789V105.749H119.37V114.581C119.37 116.29 120.034 117.145 121.364 117.145C121.82 117.145 122.2 117.098 122.504 117.003C122.827 116.908 123.159 116.765 123.501 116.575L123.786 117.145C123.349 117.468 122.864 117.744 122.333 117.972C121.801 118.18 121.098 118.285 120.224 118.285ZM125.891 102.614C125.891 101.646 125.758 100.933 125.492 100.478C125.226 100.003 124.694 99.7652 123.897 99.7652H123.327V99.1954H125.891C126.594 99.1954 127.116 99.2904 127.458 99.4803C127.819 99.6513 128.075 99.9742 128.227 100.449C128.379 100.924 128.455 101.646 128.455 102.614V105.749C128.854 105.35 129.367 105.017 129.994 104.751C130.64 104.466 131.361 104.324 132.159 104.324C133.584 104.324 134.742 104.704 135.635 105.464C136.547 106.223 137.003 107.553 137.003 109.452V118H134.439V109.452C134.439 108.123 134.135 107.154 133.527 106.546C132.938 105.919 132.197 105.606 131.304 105.606C130.298 105.606 129.348 106.109 128.455 107.116V118H125.891V102.614ZM145.844 118.285C144.419 118.285 143.251 117.905 142.339 117.145C141.447 116.385 141 115.056 141 113.156V108.028C141 107.059 140.867 106.347 140.601 105.891C140.335 105.416 139.803 105.179 139.006 105.179H138.721V104.609H141C141.703 104.609 142.225 104.704 142.567 104.894C142.928 105.065 143.185 105.388 143.336 105.862C143.488 106.337 143.564 107.059 143.564 108.028V113.156C143.564 114.486 143.859 115.464 144.448 116.091C145.055 116.699 145.806 117.003 146.698 117.003C147.705 117.003 148.655 116.499 149.548 115.493V104.609H152.112V118H150.687L149.69 116.86H149.548C149.149 117.259 148.626 117.601 147.981 117.886C147.354 118.152 146.642 118.285 145.844 118.285ZM156.447 108.028C156.447 107.059 156.314 106.347 156.048 105.891C155.782 105.416 155.25 105.179 154.453 105.179H154.168V104.609H156.447C157.169 104.609 157.71 104.713 158.071 104.922C158.451 105.112 158.717 105.435 158.869 105.891H159.011C159.353 105.454 159.809 105.084 160.379 104.78C160.968 104.476 161.652 104.324 162.43 104.324C163.19 104.324 163.76 104.466 164.14 104.751C164.463 104.998 164.795 105.426 165.137 106.033L163.997 106.888C163.789 106.603 163.485 106.394 163.086 106.261C162.687 106.109 162.231 106.033 161.718 106.033C161.148 106.033 160.626 106.166 160.151 106.432C159.676 106.679 159.296 107.021 159.011 107.458V118H156.447V108.028ZM169.054 102.899C168.617 102.899 168.237 102.719 167.914 102.358C167.61 101.997 167.458 101.57 167.458 101.076C167.458 100.677 167.572 100.364 167.8 100.136C168.047 99.9077 168.37 99.7937 168.769 99.7937C169.206 99.7937 169.576 99.9742 169.88 100.335C170.203 100.696 170.364 101.123 170.364 101.617C170.364 102.016 170.241 102.33 169.994 102.557C169.766 102.785 169.453 102.899 169.054 102.899ZM167.971 108.028C167.971 107.059 167.838 106.347 167.572 105.891C167.306 105.416 166.774 105.179 165.977 105.179H165.407V104.609H167.971C168.674 104.609 169.196 104.704 169.538 104.894C169.899 105.065 170.155 105.388 170.307 105.862C170.459 106.337 170.535 107.059 170.535 108.028V118H167.971V108.028ZM35.112 144.57C33.6874 144.57 32.2153 144.285 30.6958 143.715L30.8382 143.145C32.0159 143.335 33.2505 143.43 34.5422 143.43C36.2137 143.43 37.4578 142.794 38.2746 141.521C39.1104 140.23 39.5282 138.444 39.5282 136.165C38.9584 136.564 38.3316 136.877 37.6478 137.105C36.983 137.333 36.1852 137.447 35.2545 137.447C33.317 137.447 31.8829 136.887 30.9522 135.766C30.0215 134.626 29.5561 133.05 29.5561 131.036C29.5561 129.897 29.784 128.842 30.2399 127.874C30.6958 126.905 31.3891 126.126 32.3198 125.537C33.2505 124.929 34.3712 124.626 35.6818 124.626C37.9232 124.626 39.5757 125.461 40.6394 127.133C41.7031 128.785 42.235 131.274 42.235 134.598C42.235 137.922 41.6461 140.42 40.4685 142.091C39.3098 143.744 37.5243 144.57 35.112 144.57ZM36.1092 136.307C36.793 136.307 37.4009 136.193 37.9327 135.965C38.4645 135.718 38.9964 135.357 39.5282 134.883C39.5282 131.749 39.1863 129.45 38.5025 127.988C37.8187 126.506 36.8785 125.765 35.6818 125.765C34.6372 125.765 33.8014 126.288 33.1746 127.332C32.5667 128.377 32.2628 129.612 32.2628 131.036C32.2628 134.55 33.545 136.307 36.1092 136.307ZM49.7321 144.285C48.6684 144.285 47.8326 143.981 47.2248 143.373C46.617 142.765 46.3131 141.835 46.3131 140.581V131.749H44.3186V130.609H46.3131V128.045L47.7377 126.335H48.8773V130.609H52.2964V131.749H48.8773V140.581C48.8773 142.29 49.5421 143.145 50.8718 143.145C51.3276 143.145 51.7075 143.098 52.0114 143.003C52.3343 142.908 52.6667 142.765 53.0086 142.575L53.2936 143.145C52.8567 143.468 52.3723 143.744 51.8405 143.972C51.3086 144.18 50.6058 144.285 49.7321 144.285ZM55.3988 128.614C55.3988 127.646 55.2659 126.933 55 126.478C54.734 126.003 54.2022 125.765 53.4044 125.765H52.8346V125.195H55.3988C56.1016 125.195 56.624 125.29 56.9659 125.48C57.3268 125.651 57.5832 125.974 57.7352 126.449C57.8871 126.924 57.9631 127.646 57.9631 128.614V131.749C58.362 131.35 58.8748 131.017 59.5017 130.751C60.1475 130.466 60.8693 130.324 61.667 130.324C63.0916 130.324 64.2503 130.704 65.143 131.464C66.0548 132.223 66.5106 133.553 66.5106 135.452V144H63.9464V135.452C63.9464 134.123 63.6425 133.154 63.0346 132.546C62.4458 131.919 61.705 131.606 60.8123 131.606C59.8056 131.606 58.8559 132.109 57.9631 133.116V144H55.3988V128.614ZM78.5711 128.614C78.5711 127.646 78.4382 126.933 78.1723 126.478C77.9063 126.003 77.3745 125.765 76.5767 125.765H76.0069V125.195H88.1444C89.7589 125.195 90.5662 125.955 90.5662 127.475V129.612H89.9964C89.9964 127.427 88.8092 126.335 86.4349 126.335H81.1354V133.743H88.8282V134.883H81.1354V142.86H86.1215C87.4321 142.86 88.4578 142.623 89.1986 142.148C89.9394 141.673 90.5282 140.866 90.9651 139.726L91.5349 139.869L90.5377 142.575C90.1958 143.525 89.4835 144 88.4008 144H78.5711V128.614ZM98.8244 144.285C97.1718 144.285 95.8992 143.63 95.0065 142.319C94.1327 141.008 93.6958 139.337 93.6958 137.304C93.6958 135.272 94.1517 133.6 95.0634 132.29C95.9942 130.979 97.3428 130.324 99.1093 130.324C99.8311 130.324 100.467 130.4 101.018 130.552C101.569 130.704 102.12 130.913 102.671 131.179V128.614C102.671 127.646 102.538 126.933 102.272 126.478C102.006 126.003 101.474 125.765 100.676 125.765H100.106V125.195H102.671C103.374 125.195 103.896 125.29 104.238 125.48C104.599 125.651 104.855 125.974 105.007 126.449C105.159 126.924 105.235 127.646 105.235 128.614V144H103.81L102.813 142.718H102.671C102.253 143.193 101.759 143.573 101.189 143.858C100.638 144.142 99.8501 144.285 98.8244 144.285ZM99.6791 143.145C100.458 143.145 101.047 143.003 101.446 142.718C101.844 142.433 102.253 142.006 102.671 141.436V132.318C102.101 132.052 101.607 131.843 101.189 131.692C100.771 131.54 100.363 131.464 99.964 131.464C98.7484 131.464 97.8461 131.995 97.2573 133.059C96.6875 134.123 96.4026 135.538 96.4026 137.304C96.4026 139.052 96.678 140.467 97.2288 141.55C97.7797 142.613 98.5964 143.145 99.6791 143.145ZM110.86 128.899C110.423 128.899 110.043 128.719 109.72 128.358C109.416 127.997 109.264 127.57 109.264 127.076C109.264 126.677 109.378 126.364 109.606 126.136C109.853 125.908 110.176 125.794 110.575 125.794C111.012 125.794 111.382 125.974 111.686 126.335C112.009 126.696 112.17 127.123 112.17 127.617C112.17 128.016 112.047 128.33 111.8 128.557C111.572 128.785 111.259 128.899 110.86 128.899ZM109.777 134.028C109.777 133.059 109.644 132.347 109.378 131.891C109.112 131.416 108.58 131.179 107.783 131.179H107.213V130.609H109.777C110.48 130.609 111.002 130.704 111.344 130.894C111.705 131.065 111.961 131.388 112.113 131.862C112.265 132.337 112.341 133.059 112.341 134.028V144H109.777V134.028ZM120.322 144.285C119.258 144.285 118.422 143.981 117.814 143.373C117.207 142.765 116.903 141.835 116.903 140.581V131.749H114.908V130.609H116.903V128.045L118.327 126.335H119.467V130.609H122.886V131.749H119.467V140.581C119.467 142.29 120.132 143.145 121.461 143.145C121.917 143.145 122.297 143.098 122.601 143.003C122.924 142.908 123.256 142.765 123.598 142.575L123.883 143.145C123.446 143.468 122.962 143.744 122.43 143.972C121.898 144.18 121.195 144.285 120.322 144.285ZM127.498 128.899C127.062 128.899 126.682 128.719 126.359 128.358C126.055 127.997 125.903 127.57 125.903 127.076C125.903 126.677 126.017 126.364 126.245 126.136C126.492 125.908 126.815 125.794 127.214 125.794C127.65 125.794 128.021 125.974 128.325 126.335C128.648 126.696 128.809 127.123 128.809 127.617C128.809 128.016 128.686 128.33 128.439 128.557C128.211 128.785 127.897 128.899 127.498 128.899ZM126.416 134.028C126.416 133.059 126.283 132.347 126.017 131.891C125.751 131.416 125.219 131.179 124.421 131.179H123.852V130.609H126.416C127.119 130.609 127.641 130.704 127.983 130.894C128.344 131.065 128.6 131.388 128.752 131.862C128.904 132.337 128.98 133.059 128.98 134.028V144H126.416V134.028ZM138.499 144.285C137.207 144.285 136.087 143.981 135.137 143.373C134.187 142.746 133.465 141.901 132.972 140.837C132.478 139.774 132.231 138.596 132.231 137.304C132.231 136.013 132.478 134.835 132.972 133.771C133.465 132.708 134.187 131.872 135.137 131.264C136.087 130.637 137.207 130.324 138.499 130.324C139.791 130.324 140.911 130.637 141.861 131.264C142.811 131.872 143.533 132.708 144.026 133.771C144.52 134.835 144.767 136.013 144.767 137.304C144.767 138.596 144.52 139.774 144.026 140.837C143.533 141.901 142.811 142.746 141.861 143.373C140.911 143.981 139.791 144.285 138.499 144.285ZM138.499 143.145C139.202 143.145 139.819 142.889 140.351 142.376C140.902 141.863 141.32 141.16 141.605 140.268C141.908 139.375 142.06 138.387 142.06 137.304C142.06 136.222 141.908 135.234 141.605 134.341C141.32 133.449 140.902 132.746 140.351 132.233C139.819 131.72 139.202 131.464 138.499 131.464C137.796 131.464 137.169 131.72 136.619 132.233C136.087 132.746 135.669 133.449 135.365 134.341C135.08 135.234 134.937 136.222 134.937 137.304C134.937 138.387 135.08 139.375 135.365 140.268C135.669 141.16 136.087 141.863 136.619 142.376C137.169 142.889 137.796 143.145 138.499 143.145ZM148.536 134.028C148.536 133.059 148.403 132.347 148.137 131.891C147.871 131.416 147.339 131.179 146.541 131.179H145.972V130.609H148.536C149.239 130.609 149.771 130.704 150.131 130.894C150.511 131.084 150.787 131.369 150.958 131.749H151.1C151.499 131.35 152.012 131.017 152.639 130.751C153.285 130.466 154.006 130.324 154.804 130.324C156.229 130.324 157.387 130.704 158.28 131.464C159.192 132.223 159.648 133.553 159.648 135.452V144H157.083V135.452C157.083 134.123 156.78 133.154 156.172 132.546C155.583 131.919 154.842 131.606 153.949 131.606C152.943 131.606 151.993 132.109 151.1 133.116V144H148.536V134.028Z" fill="#554F39"/>
<path d="M43.748 93.2849C41.9246 93.2849 40.481 92.981 39.4173 92.3732C38.3536 91.7464 37.5938 90.8251 37.1379 89.6095C36.7011 88.3938 36.4826 86.8173 36.4826 84.8798V77.6144C36.4826 76.6457 36.3497 75.9334 36.0837 75.4775C35.8178 75.0027 35.286 74.7652 34.4882 74.7652H33.9184V74.1954H36.4826C37.1854 74.1954 37.7078 74.2904 38.0497 74.4803C38.4106 74.6513 38.667 74.9742 38.8189 75.449C38.9709 75.9239 39.0469 76.6457 39.0469 77.6144V85.7346C39.0469 87.843 39.4363 89.4385 40.215 90.5212C40.9938 91.6039 42.2855 92.1452 44.0899 92.1452C45.5335 92.1452 46.6732 91.8888 47.5089 91.376C48.3637 90.8631 48.9715 90.0843 49.3324 89.0396C49.6933 87.9949 49.8738 86.6083 49.8738 84.8798V74.1954H51.0134V84.8798C51.0134 86.8553 50.8045 88.4508 50.3866 89.6665C49.9687 90.8631 49.228 91.7654 48.1643 92.3732C47.1196 92.981 45.6475 93.2849 43.748 93.2849ZM55.701 83.0279C55.701 82.0591 55.568 81.3469 55.3021 80.891C55.0362 80.4161 54.5044 80.1787 53.7066 80.1787H53.1367V79.6089H55.701C56.4228 79.6089 56.9641 79.7133 57.325 79.9223C57.7049 80.1122 57.9709 80.4351 58.1228 80.891H58.2653C58.6072 80.4541 59.0915 80.0837 59.7184 79.7798C60.3452 79.4759 61.1429 79.3239 62.1117 79.3239C63.7452 79.3239 65.0083 79.9887 65.9011 81.3184C66.7938 82.629 67.2402 84.291 67.2402 86.3044C67.2402 88.3368 66.7748 90.0084 65.8441 91.319C64.9324 92.6296 63.5932 93.2849 61.8267 93.2849C61.105 93.2849 60.4686 93.2089 59.9178 93.057C59.367 92.905 58.8161 92.6961 58.2653 92.4302V98.4134H55.701V83.0279ZM60.972 92.1452C62.1876 92.1452 63.0804 91.6134 63.6502 90.5497C64.2391 89.486 64.5335 88.0709 64.5335 86.3044C64.5335 84.5569 64.258 83.1513 63.7072 82.0876C63.1564 81.0049 62.3396 80.4636 61.2569 80.4636C59.9843 80.4636 58.9871 81.0334 58.2653 82.1731V91.2905C58.8351 91.5564 59.329 91.7654 59.7468 91.9173C60.1647 92.0693 60.5731 92.1452 60.972 92.1452ZM76.1036 93.2849C74.736 93.2849 73.5773 92.981 72.6276 92.3732C71.6969 91.7464 70.9941 90.9106 70.5192 89.8659C70.0633 88.8022 69.8354 87.615 69.8354 86.3044C69.8354 84.9938 70.0633 83.8161 70.5192 82.7714C70.9941 81.7077 71.6969 80.872 72.6276 80.2642C73.5773 79.6373 74.736 79.3239 76.1036 79.3239C78.193 79.3239 79.5701 79.6563 80.2349 80.3211C80.5578 80.6441 80.7573 81.0429 80.8332 81.5178C80.9092 81.9737 80.9472 82.8094 80.9472 84.0251H80.3774C80.3014 82.8474 79.931 81.9642 79.2662 81.3753C78.6014 80.7675 77.7371 80.4636 76.6734 80.4636C75.3058 80.4636 74.2706 81.0049 73.5678 82.0876C72.884 83.1703 72.5421 84.5759 72.5421 86.3044C72.5421 88.0329 72.884 89.4385 73.5678 90.5212C74.2706 91.6039 75.3058 92.1452 76.6734 92.1452C77.6421 92.1452 78.4399 91.9648 79.0667 91.6039C79.6936 91.224 80.2729 90.6447 80.8047 89.8659L81.3746 90.2933C80.7478 91.357 80.007 92.1263 79.1522 92.6011C78.2975 93.057 77.2813 93.2849 76.1036 93.2849ZM89.8765 93.2849C88.5849 93.2849 87.4642 92.981 86.5145 92.3732C85.5647 91.7464 84.8429 90.9011 84.3491 89.8374C83.8552 88.7737 83.6083 87.5961 83.6083 86.3044C83.6083 85.0128 83.8552 83.8351 84.3491 82.7714C84.8429 81.7077 85.5647 80.872 86.5145 80.2642C87.4642 79.6373 88.5849 79.3239 89.8765 79.3239C91.1681 79.3239 92.2888 79.6373 93.2385 80.2642C94.1882 80.872 94.91 81.7077 95.4039 82.7714C95.8978 83.8351 96.1447 85.0128 96.1447 86.3044C96.1447 87.5961 95.8978 88.7737 95.4039 89.8374C94.91 90.9011 94.1882 91.7464 93.2385 92.3732C92.2888 92.981 91.1681 93.2849 89.8765 93.2849ZM89.8765 92.1452C90.5793 92.1452 91.1966 91.8888 91.7285 91.376C92.2793 90.8631 92.6972 90.1603 92.9821 89.2676C93.286 88.3748 93.438 87.3871 93.438 86.3044C93.438 85.2217 93.286 84.234 92.9821 83.3413C92.6972 82.4485 92.2793 81.7457 91.7285 81.2329C91.1966 80.72 90.5793 80.4636 89.8765 80.4636C89.1737 80.4636 88.5469 80.72 87.996 81.2329C87.4642 81.7457 87.0463 82.4485 86.7424 83.3413C86.4575 84.234 86.315 85.2217 86.315 86.3044C86.315 87.3871 86.4575 88.3748 86.7424 89.2676C87.0463 90.1603 87.4642 90.8631 87.996 91.376C88.5469 91.8888 89.1737 92.1452 89.8765 92.1452ZM99.9134 83.0279C99.9134 82.0591 99.7804 81.3469 99.5145 80.891C99.2486 80.4161 98.7167 80.1787 97.919 80.1787H97.3491V79.6089H99.9134C100.616 79.6089 101.148 79.7038 101.509 79.8938C101.889 80.0837 102.164 80.3686 102.335 80.7485H102.478C102.877 80.3496 103.389 80.0172 104.016 79.7513C104.662 79.4664 105.384 79.3239 106.182 79.3239C106.979 79.3239 107.663 79.4759 108.233 79.7798C108.803 80.0647 109.259 80.5776 109.601 81.3184C110.094 80.6915 110.721 80.2072 111.481 79.8653C112.26 79.5044 113.058 79.3239 113.874 79.3239C115.09 79.3239 116.059 79.7038 116.781 80.4636C117.502 81.2234 117.863 82.553 117.863 84.4525V93H115.299V84.4525C115.299 83.0849 115.109 82.1066 114.729 81.5178C114.349 80.91 113.779 80.6061 113.02 80.6061C112.488 80.6061 111.927 80.8055 111.339 81.2044C110.75 81.5843 110.313 82.0022 110.028 82.458C110.123 82.743 110.17 83.4078 110.17 84.4525V93H107.606V84.4525C107.606 83.0849 107.416 82.1066 107.036 81.5178C106.656 80.91 106.087 80.6061 105.327 80.6061C104.32 80.6061 103.37 81.1094 102.478 82.1161V93H99.9134V83.0279ZM123.367 77.8993C122.93 77.8993 122.55 77.7189 122.227 77.358C121.923 76.9971 121.771 76.5697 121.771 76.0759C121.771 75.677 121.885 75.3636 122.113 75.1356C122.36 74.9077 122.683 74.7937 123.082 74.7937C123.519 74.7937 123.889 74.9742 124.193 75.3351C124.516 75.696 124.677 76.1234 124.677 76.6172C124.677 77.0161 124.554 77.3295 124.307 77.5574C124.079 77.7854 123.765 77.8993 123.367 77.8993ZM122.284 83.0279C122.284 82.0591 122.151 81.3469 121.885 80.891C121.619 80.4161 121.087 80.1787 120.289 80.1787H119.72V79.6089H122.284C122.987 79.6089 123.509 79.7038 123.851 79.8938C124.212 80.0647 124.468 80.3876 124.62 80.8625C124.772 81.3374 124.848 82.0591 124.848 83.0279V93H122.284V83.0279ZM129.296 83.0279C129.296 82.0591 129.163 81.3469 128.897 80.891C128.631 80.4161 128.099 80.1787 127.301 80.1787H126.731V79.6089H129.296C129.998 79.6089 130.53 79.7038 130.891 79.8938C131.271 80.0837 131.546 80.3686 131.717 80.7485H131.86C132.259 80.3496 132.772 80.0172 133.398 79.7513C134.044 79.4664 134.766 79.3239 135.564 79.3239C136.988 79.3239 138.147 79.7038 139.04 80.4636C139.951 81.2234 140.407 82.553 140.407 84.4525V93H137.843V84.4525C137.843 83.1228 137.539 82.1541 136.931 81.5463C136.343 80.9195 135.602 80.6061 134.709 80.6061C133.702 80.6061 132.753 81.1094 131.86 82.1161V93H129.296V83.0279ZM149.324 98.6984C147.405 98.6984 145.876 98.347 144.737 97.6442C143.616 96.9414 143.056 95.8207 143.056 94.2821C143.056 93.4084 143.35 92.6486 143.939 92.0028C144.528 91.357 145.278 90.8821 146.19 90.5782C145.43 90.1603 145.05 89.5905 145.05 88.8687C145.05 88.4888 145.135 88.1944 145.306 87.9854C145.477 87.7765 145.724 87.5486 146.047 87.3016C145.439 86.9977 144.927 86.5229 144.509 85.877C144.11 85.2312 143.91 84.4715 143.91 83.5977C143.91 80.7485 145.715 79.3239 149.324 79.3239H154.595V80.0362L152.743 80.3211V80.4636C153.332 80.7675 153.806 81.1949 154.167 81.7457C154.547 82.2776 154.737 82.8949 154.737 83.5977C154.737 86.4469 152.933 87.8715 149.324 87.8715C147.329 87.8715 146.332 88.2039 146.332 88.8687C146.332 89.5335 147.329 89.8659 149.324 89.8659C151.166 89.8659 152.667 90.2363 153.825 90.9771C155.003 91.6989 155.592 92.8006 155.592 94.2821C155.592 95.8207 155.022 96.9414 153.882 97.6442C152.762 98.347 151.242 98.6984 149.324 98.6984ZM149.324 86.8743C150.178 86.8743 150.862 86.6178 151.375 86.105C151.907 85.5731 152.173 84.7374 152.173 83.5977C152.173 82.515 151.907 81.6983 151.375 81.1474C150.862 80.5966 150.178 80.3211 149.324 80.3211C148.469 80.3211 147.776 80.5871 147.244 81.1189C146.731 81.6318 146.475 82.458 146.475 83.5977C146.475 84.7374 146.731 85.5731 147.244 86.105C147.776 86.6178 148.469 86.8743 149.324 86.8743ZM149.324 97.5587C150.463 97.5587 151.366 97.2833 152.03 96.7324C152.695 96.2006 153.028 95.3838 153.028 94.2821C153.028 92.3827 151.888 91.2905 149.609 91.0056L148.042 90.8631C147.263 91.167 146.665 91.5944 146.247 92.1452C145.829 92.6961 145.62 93.4084 145.62 94.2821C145.62 95.3838 145.952 96.2006 146.617 96.7324C147.282 97.2833 148.184 97.5587 149.324 97.5587ZM20.5163 102.614C20.5163 101.646 20.3833 100.933 20.1174 100.478C19.8515 100.003 19.3196 99.7652 18.5219 99.7652H17.952V99.1954H25.3599C27.4303 99.1954 29.2253 99.5373 30.7449 100.221C32.2834 100.905 33.0527 102.225 33.0527 104.181C33.0527 105.074 32.7488 105.881 32.141 106.603C31.5331 107.325 30.6024 107.895 29.3488 108.313C31.0963 108.598 32.3119 109.12 32.9957 109.88C33.6985 110.621 34.0499 111.618 34.0499 112.871C34.0499 114.79 33.2901 116.129 31.7706 116.889C30.27 117.63 28.418 118 26.2147 118H20.5163V102.614ZM25.7873 107.885C26.5661 107.885 27.2974 107.743 27.9812 107.458C28.684 107.154 29.2538 106.717 29.6907 106.147C30.1275 105.559 30.346 104.856 30.346 104.039C30.346 103.184 30.0895 102.472 29.5767 101.902C29.0638 101.313 28.4085 100.886 27.6108 100.62C26.832 100.335 26.0342 100.193 25.2174 100.193C24.5526 100.193 23.8403 100.288 23.0806 100.478V107.885H25.7873ZM25.7873 117.003C27.5158 117.003 28.8454 116.661 29.7761 115.977C30.7259 115.293 31.2007 114.306 31.2007 113.014C31.2007 111.722 30.7354 110.735 29.8046 110.051C28.8929 109.367 27.5538 109.025 25.7873 109.025H23.0806V116.604C23.9923 116.87 24.8945 117.003 25.7873 117.003ZM42.7704 118.285C41.4788 118.285 40.3581 117.981 39.4084 117.373C38.4586 116.746 37.7369 115.901 37.243 114.837C36.7491 113.774 36.5022 112.596 36.5022 111.304C36.5022 110.013 36.7491 108.835 37.243 107.771C37.7369 106.708 38.4586 105.872 39.4084 105.264C40.3581 104.637 41.4788 104.324 42.7704 104.324C44.062 104.324 45.1827 104.637 46.1324 105.264C47.0822 105.872 47.804 106.708 48.2978 107.771C48.7917 108.835 49.0386 110.013 49.0386 111.304C49.0386 112.596 48.7917 113.774 48.2978 114.837C47.804 115.901 47.0822 116.746 46.1324 117.373C45.1827 117.981 44.062 118.285 42.7704 118.285ZM42.7704 117.145C43.4732 117.145 44.0905 116.889 44.6224 116.376C45.1732 115.863 45.5911 115.16 45.876 114.268C46.1799 113.375 46.3319 112.387 46.3319 111.304C46.3319 110.222 46.1799 109.234 45.876 108.341C45.5911 107.449 45.1732 106.746 44.6224 106.233C44.0905 105.72 43.4732 105.464 42.7704 105.464C42.0676 105.464 41.4408 105.72 40.8899 106.233C40.3581 106.746 39.9402 107.449 39.6363 108.341C39.3514 109.234 39.2089 110.222 39.2089 111.304C39.2089 112.387 39.3514 113.375 39.6363 114.268C39.9402 115.16 40.3581 115.863 40.8899 116.376C41.4408 116.889 42.0676 117.145 42.7704 117.145ZM52.6079 108.028C52.6079 107.059 52.4749 106.347 52.209 105.891C51.9431 105.416 51.4112 105.179 50.6134 105.179H50.3285V104.609H52.6079C53.3297 104.609 53.871 104.713 54.2319 104.922C54.6118 105.112 54.8777 105.435 55.0297 105.891H55.1721C55.514 105.454 55.9699 105.084 56.5397 104.78C57.1286 104.476 57.8124 104.324 58.5911 104.324C59.3509 104.324 59.9208 104.466 60.3007 104.751C60.6236 104.998 60.956 105.426 61.2979 106.033L60.1582 106.888C59.9493 106.603 59.6453 106.394 59.2465 106.261C58.8476 106.109 58.3917 106.033 57.8789 106.033C57.309 106.033 56.7867 106.166 56.3118 106.432C55.8369 106.679 55.457 107.021 55.1721 107.458V118H52.6079V108.028ZM63.7043 102.614C63.7043 101.646 63.5713 100.933 63.3054 100.478C63.0395 100.003 62.5077 99.7652 61.7099 99.7652H61.14V99.1954H63.7043C64.4071 99.1954 64.9295 99.2904 65.2714 99.4803C65.6323 99.6513 65.8887 99.9742 66.0406 100.449C66.1926 100.924 66.2686 101.646 66.2686 102.614V105.749C66.6675 105.35 67.1803 105.017 67.8071 104.751C68.4529 104.466 69.1747 104.324 69.9725 104.324C71.3971 104.324 72.5558 104.704 73.4485 105.464C74.3602 106.223 74.8161 107.553 74.8161 109.452V118H72.2519V109.452C72.2519 108.123 71.9479 107.154 71.3401 106.546C70.7513 105.919 70.0105 105.606 69.1178 105.606C68.111 105.606 67.1613 106.109 66.2686 107.116V118H63.7043V102.614ZM84.2839 118.285C82.9922 118.285 81.8715 117.981 80.9218 117.373C79.9721 116.746 79.2503 115.901 78.7564 114.837C78.2626 113.774 78.0157 112.596 78.0157 111.304C78.0157 110.013 78.2626 108.835 78.7564 107.771C79.2503 106.708 79.9721 105.872 80.9218 105.264C81.8715 104.637 82.9922 104.324 84.2839 104.324C85.5755 104.324 86.6962 104.637 87.6459 105.264C88.5956 105.872 89.3174 106.708 89.8113 107.771C90.3051 108.835 90.552 110.013 90.552 111.304C90.552 112.596 90.3051 113.774 89.8113 114.837C89.3174 115.901 88.5956 116.746 87.6459 117.373C86.6962 117.981 85.5755 118.285 84.2839 118.285ZM84.2839 117.145C84.9867 117.145 85.604 116.889 86.1358 116.376C86.6867 115.863 87.1045 115.16 87.3895 114.268C87.6934 113.375 87.8453 112.387 87.8453 111.304C87.8453 110.222 87.6934 109.234 87.3895 108.341C87.1045 107.449 86.6867 106.746 86.1358 106.233C85.604 105.72 84.9867 105.464 84.2839 105.464C83.5811 105.464 82.9542 105.72 82.4034 106.233C81.8715 106.746 81.4537 107.449 81.1498 108.341C80.8648 109.234 80.7224 110.222 80.7224 111.304C80.7224 112.387 80.8648 113.375 81.1498 114.268C81.4537 115.16 81.8715 115.863 82.4034 116.376C82.9542 116.889 83.5811 117.145 84.2839 117.145ZM94.3208 108.028C94.3208 107.059 94.1878 106.347 93.9219 105.891C93.656 105.416 93.1241 105.179 92.3263 105.179H91.7565V104.609H94.3208C95.0236 104.609 95.5554 104.704 95.9163 104.894C96.2962 105.084 96.5716 105.369 96.7426 105.749H96.885C97.2839 105.35 97.7968 105.017 98.4236 104.751C99.0694 104.466 99.7912 104.324 100.589 104.324C101.387 104.324 102.071 104.476 102.64 104.78C103.21 105.065 103.666 105.578 104.008 106.318C104.502 105.692 105.129 105.207 105.888 104.865C106.667 104.504 107.465 104.324 108.282 104.324C109.497 104.324 110.466 104.704 111.188 105.464C111.91 106.223 112.271 107.553 112.271 109.452V118H109.706V109.452C109.706 108.085 109.516 107.107 109.136 106.518C108.757 105.91 108.187 105.606 107.427 105.606C106.895 105.606 106.335 105.806 105.746 106.204C105.157 106.584 104.72 107.002 104.435 107.458C104.53 107.743 104.578 108.408 104.578 109.452V118H102.014V109.452C102.014 108.085 101.824 107.107 101.444 106.518C101.064 105.91 100.494 105.606 99.7342 105.606C98.7275 105.606 97.7778 106.109 96.885 107.116V118H94.3208V108.028ZM120.224 118.285C119.161 118.285 118.325 117.981 117.717 117.373C117.109 116.765 116.805 115.835 116.805 114.581V105.749H114.811V104.609H116.805V102.045L118.23 100.335H119.37V104.609H122.789V105.749H119.37V114.581C119.37 116.29 120.034 117.145 121.364 117.145C121.82 117.145 122.2 117.098 122.504 117.003C122.827 116.908 123.159 116.765 123.501 116.575L123.786 117.145C123.349 117.468 122.864 117.744 122.333 117.972C121.801 118.18 121.098 118.285 120.224 118.285ZM125.891 102.614C125.891 101.646 125.758 100.933 125.492 100.478C125.226 100.003 124.694 99.7652 123.897 99.7652H123.327V99.1954H125.891C126.594 99.1954 127.116 99.2904 127.458 99.4803C127.819 99.6513 128.075 99.9742 128.227 100.449C128.379 100.924 128.455 101.646 128.455 102.614V105.749C128.854 105.35 129.367 105.017 129.994 104.751C130.64 104.466 131.361 104.324 132.159 104.324C133.584 104.324 134.742 104.704 135.635 105.464C136.547 106.223 137.003 107.553 137.003 109.452V118H134.439V109.452C134.439 108.123 134.135 107.154 133.527 106.546C132.938 105.919 132.197 105.606 131.304 105.606C130.298 105.606 129.348 106.109 128.455 107.116V118H125.891V102.614ZM145.844 118.285C144.419 118.285 143.251 117.905 142.339 117.145C141.447 116.385 141 115.056 141 113.156V108.028C141 107.059 140.867 106.347 140.601 105.891C140.335 105.416 139.803 105.179 139.006 105.179H138.721V104.609H141C141.703 104.609 142.225 104.704 142.567 104.894C142.928 105.065 143.185 105.388 143.336 105.862C143.488 106.337 143.564 107.059 143.564 108.028V113.156C143.564 114.486 143.859 115.464 144.448 116.091C145.055 116.699 145.806 117.003 146.698 117.003C147.705 117.003 148.655 116.499 149.548 115.493V104.609H152.112V118H150.687L149.69 116.86H149.548C149.149 117.259 148.626 117.601 147.981 117.886C147.354 118.152 146.642 118.285 145.844 118.285ZM156.447 108.028C156.447 107.059 156.314 106.347 156.048 105.891C155.782 105.416 155.25 105.179 154.453 105.179H154.168V104.609H156.447C157.169 104.609 157.71 104.713 158.071 104.922C158.451 105.112 158.717 105.435 158.869 105.891H159.011C159.353 105.454 159.809 105.084 160.379 104.78C160.968 104.476 161.652 104.324 162.43 104.324C163.19 104.324 163.76 104.466 164.14 104.751C164.463 104.998 164.795 105.426 165.137 106.033L163.997 106.888C163.789 106.603 163.485 106.394 163.086 106.261C162.687 106.109 162.231 106.033 161.718 106.033C161.148 106.033 160.626 106.166 160.151 106.432C159.676 106.679 159.296 107.021 159.011 107.458V118H156.447V108.028ZM169.054 102.899C168.617 102.899 168.237 102.719 167.914 102.358C167.61 101.997 167.458 101.57 167.458 101.076C167.458 100.677 167.572 100.364 167.8 100.136C168.047 99.9077 168.37 99.7937 168.769 99.7937C169.206 99.7937 169.576 99.9742 169.88 100.335C170.203 100.696 170.364 101.123 170.364 101.617C170.364 102.016 170.241 102.33 169.994 102.557C169.766 102.785 169.453 102.899 169.054 102.899ZM167.971 108.028C167.971 107.059 167.838 106.347 167.572 105.891C167.306 105.416 166.774 105.179 165.977 105.179H165.407V104.609H167.971C168.674 104.609 169.196 104.704 169.538 104.894C169.899 105.065 170.155 105.388 170.307 105.862C170.459 106.337 170.535 107.059 170.535 108.028V118H167.971V108.028ZM35.112 144.57C33.6874 144.57 32.2153 144.285 30.6958 143.715L30.8382 143.145C32.0159 143.335 33.2505 143.43 34.5422 143.43C36.2137 143.43 37.4578 142.794 38.2746 141.521C39.1104 140.23 39.5282 138.444 39.5282 136.165C38.9584 136.564 38.3316 136.877 37.6478 137.105C36.983 137.333 36.1852 137.447 35.2545 137.447C33.317 137.447 31.8829 136.887 30.9522 135.766C30.0215 134.626 29.5561 133.05 29.5561 131.036C29.5561 129.897 29.784 128.842 30.2399 127.874C30.6958 126.905 31.3891 126.126 32.3198 125.537C33.2505 124.929 34.3712 124.626 35.6818 124.626C37.9232 124.626 39.5757 125.461 40.6394 127.133C41.7031 128.785 42.235 131.274 42.235 134.598C42.235 137.922 41.6461 140.42 40.4685 142.091C39.3098 143.744 37.5243 144.57 35.112 144.57ZM36.1092 136.307C36.793 136.307 37.4009 136.193 37.9327 135.965C38.4645 135.718 38.9964 135.357 39.5282 134.883C39.5282 131.749 39.1863 129.45 38.5025 127.988C37.8187 126.506 36.8785 125.765 35.6818 125.765C34.6372 125.765 33.8014 126.288 33.1746 127.332C32.5667 128.377 32.2628 129.612 32.2628 131.036C32.2628 134.55 33.545 136.307 36.1092 136.307ZM49.7321 144.285C48.6684 144.285 47.8326 143.981 47.2248 143.373C46.617 142.765 46.3131 141.835 46.3131 140.581V131.749H44.3186V130.609H46.3131V128.045L47.7377 126.335H48.8773V130.609H52.2964V131.749H48.8773V140.581C48.8773 142.29 49.5421 143.145 50.8718 143.145C51.3276 143.145 51.7075 143.098 52.0114 143.003C52.3343 142.908 52.6667 142.765 53.0086 142.575L53.2936 143.145C52.8567 143.468 52.3723 143.744 51.8405 143.972C51.3086 144.18 50.6058 144.285 49.7321 144.285ZM55.3988 128.614C55.3988 127.646 55.2659 126.933 55 126.478C54.734 126.003 54.2022 125.765 53.4044 125.765H52.8346V125.195H55.3988C56.1016 125.195 56.624 125.29 56.9659 125.48C57.3268 125.651 57.5832 125.974 57.7352 126.449C57.8871 126.924 57.9631 127.646 57.9631 128.614V131.749C58.362 131.35 58.8748 131.017 59.5017 130.751C60.1475 130.466 60.8693 130.324 61.667 130.324C63.0916 130.324 64.2503 130.704 65.143 131.464C66.0548 132.223 66.5106 133.553 66.5106 135.452V144H63.9464V135.452C63.9464 134.123 63.6425 133.154 63.0346 132.546C62.4458 131.919 61.705 131.606 60.8123 131.606C59.8056 131.606 58.8559 132.109 57.9631 133.116V144H55.3988V128.614ZM78.5711 128.614C78.5711 127.646 78.4382 126.933 78.1723 126.478C77.9063 126.003 77.3745 125.765 76.5767 125.765H76.0069V125.195H88.1444C89.7589 125.195 90.5662 125.955 90.5662 127.475V129.612H89.9964C89.9964 127.427 88.8092 126.335 86.4349 126.335H81.1354V133.743H88.8282V134.883H81.1354V142.86H86.1215C87.4321 142.86 88.4578 142.623 89.1986 142.148C89.9394 141.673 90.5282 140.866 90.9651 139.726L91.5349 139.869L90.5377 142.575C90.1958 143.525 89.4835 144 88.4008 144H78.5711V128.614ZM98.8244 144.285C97.1718 144.285 95.8992 143.63 95.0065 142.319C94.1327 141.008 93.6958 139.337 93.6958 137.304C93.6958 135.272 94.1517 133.6 95.0634 132.29C95.9942 130.979 97.3428 130.324 99.1093 130.324C99.8311 130.324 100.467 130.4 101.018 130.552C101.569 130.704 102.12 130.913 102.671 131.179V128.614C102.671 127.646 102.538 126.933 102.272 126.478C102.006 126.003 101.474 125.765 100.676 125.765H100.106V125.195H102.671C103.374 125.195 103.896 125.29 104.238 125.48C104.599 125.651 104.855 125.974 105.007 126.449C105.159 126.924 105.235 127.646 105.235 128.614V144H103.81L102.813 142.718H102.671C102.253 143.193 101.759 143.573 101.189 143.858C100.638 144.142 99.8501 144.285 98.8244 144.285ZM99.6791 143.145C100.458 143.145 101.047 143.003 101.446 142.718C101.844 142.433 102.253 142.006 102.671 141.436V132.318C102.101 132.052 101.607 131.843 101.189 131.692C100.771 131.54 100.363 131.464 99.964 131.464C98.7484 131.464 97.8461 131.995 97.2573 133.059C96.6875 134.123 96.4026 135.538 96.4026 137.304C96.4026 139.052 96.678 140.467 97.2288 141.55C97.7797 142.613 98.5964 143.145 99.6791 143.145ZM110.86 128.899C110.423 128.899 110.043 128.719 109.72 128.358C109.416 127.997 109.264 127.57 109.264 127.076C109.264 126.677 109.378 126.364 109.606 126.136C109.853 125.908 110.176 125.794 110.575 125.794C111.012 125.794 111.382 125.974 111.686 126.335C112.009 126.696 112.17 127.123 112.17 127.617C112.17 128.016 112.047 128.33 111.8 128.557C111.572 128.785 111.259 128.899 110.86 128.899ZM109.777 134.028C109.777 133.059 109.644 132.347 109.378 131.891C109.112 131.416 108.58 131.179 107.783 131.179H107.213V130.609H109.777C110.48 130.609 111.002 130.704 111.344 130.894C111.705 131.065 111.961 131.388 112.113 131.862C112.265 132.337 112.341 133.059 112.341 134.028V144H109.777V134.028ZM120.322 144.285C119.258 144.285 118.422 143.981 117.814 143.373C117.207 142.765 116.903 141.835 116.903 140.581V131.749H114.908V130.609H116.903V128.045L118.327 126.335H119.467V130.609H122.886V131.749H119.467V140.581C119.467 142.29 120.132 143.145 121.461 143.145C121.917 143.145 122.297 143.098 122.601 143.003C122.924 142.908 123.256 142.765 123.598 142.575L123.883 143.145C123.446 143.468 122.962 143.744 122.43 143.972C121.898 144.18 121.195 144.285 120.322 144.285ZM127.498 128.899C127.062 128.899 126.682 128.719 126.359 128.358C126.055 127.997 125.903 127.57 125.903 127.076C125.903 126.677 126.017 126.364 126.245 126.136C126.492 125.908 126.815 125.794 127.214 125.794C127.65 125.794 128.021 125.974 128.325 126.335C128.648 126.696 128.809 127.123 128.809 127.617C128.809 128.016 128.686 128.33 128.439 128.557C128.211 128.785 127.897 128.899 127.498 128.899ZM126.416 134.028C126.416 133.059 126.283 132.347 126.017 131.891C125.751 131.416 125.219 131.179 124.421 131.179H123.852V130.609H126.416C127.119 130.609 127.641 130.704 127.983 130.894C128.344 131.065 128.6 131.388 128.752 131.862C128.904 132.337 128.98 133.059 128.98 134.028V144H126.416V134.028ZM138.499 144.285C137.207 144.285 136.087 143.981 135.137 143.373C134.187 142.746 133.465 141.901 132.972 140.837C132.478 139.774 132.231 138.596 132.231 137.304C132.231 136.013 132.478 134.835 132.972 133.771C133.465 132.708 134.187 131.872 135.137 131.264C136.087 130.637 137.207 130.324 138.499 130.324C139.791 130.324 140.911 130.637 141.861 131.264C142.811 131.872 143.533 132.708 144.026 133.771C144.52 134.835 144.767 136.013 144.767 137.304C144.767 138.596 144.52 139.774 144.026 140.837C143.533 141.901 142.811 142.746 141.861 143.373C140.911 143.981 139.791 144.285 138.499 144.285ZM138.499 143.145C139.202 143.145 139.819 142.889 140.351 142.376C140.902 141.863 141.32 141.16 141.605 140.268C141.908 139.375 142.06 138.387 142.06 137.304C142.06 136.222 141.908 135.234 141.605 134.341C141.32 133.449 140.902 132.746 140.351 132.233C139.819 131.72 139.202 131.464 138.499 131.464C137.796 131.464 137.169 131.72 136.619 132.233C136.087 132.746 135.669 133.449 135.365 134.341C135.08 135.234 134.937 136.222 134.937 137.304C134.937 138.387 135.08 139.375 135.365 140.268C135.669 141.16 136.087 141.863 136.619 142.376C137.169 142.889 137.796 143.145 138.499 143.145ZM148.536 134.028C148.536 133.059 148.403 132.347 148.137 131.891C147.871 131.416 147.339 131.179 146.541 131.179H145.972V130.609H148.536C149.239 130.609 149.771 130.704 150.131 130.894C150.511 131.084 150.787 131.369 150.958 131.749H151.1C151.499 131.35 152.012 131.017 152.639 130.751C153.285 130.466 154.006 130.324 154.804 130.324C156.229 130.324 157.387 130.704 158.28 131.464C159.192 132.223 159.648 133.553 159.648 135.452V144H157.083V135.452C157.083 134.123 156.78 133.154 156.172 132.546C155.583 131.919 154.842 131.606 153.949 131.606C152.943 131.606 151.993 132.109 151.1 133.116V144H148.536V134.028Z" fill="url(#paint1_linear_922_8378)"/>
<defs>
<linearGradient id="paint0_linear_922_8378" x1="73.8894" y1="-79.6364" x2="73.8894" y2="219" gradientUnits="userSpaceOnUse">
<stop stop-color="#FFD9A8"/>
<stop offset="1" stop-color="#F41A01"/>
</linearGradient>
<linearGradient id="paint1_linear_922_8378" x1="231.455" y1="99.9444" x2="16" y2="99.9444" gradientUnits="userSpaceOnUse">
<stop stop-color="#FFD9A8"/>
<stop offset="1" stop-color="#F41A01"/>
</linearGradient>
</defs>
</svg>
